SplineFontDB: 3.0
FontName: CherrySwash-Regular
FullName: Cherry Swash
FamilyName: Cherry Swash
Weight: Book
Copyright: Copyright (c) 2012, Natalia Kasatkina (kasatkinanataliya@gmail.com)
Version: 1.001
ItalicAngle: 0
UnderlinePosition: -210
UnderlineWidth: 50
Ascent: 800
Descent: 200
sfntRevision: 0x00010042
LayerCount: 2
Layer: 0 1 "Back"  1
Layer: 1 1 "Fore"  0
XUID: [1021 517 698815906 2705744]
FSType: 0
OS2Version: 3
OS2_WeightWidthSlopeOnly: 0
OS2_UseTypoMetrics: 1
CreationTime: 1325665560
ModificationTime: 1349496248
PfmFamily: 17
TTFWeight: 400
TTFWidth: 5
LineGap: 0
VLineGap: 0
Panose: 2 0 0 0 0 0 0 0 0 0
OS2TypoAscent: 1025
OS2TypoAOffset: 0
OS2TypoDescent: -301
OS2TypoDOffset: 0
OS2TypoLinegap: 0
OS2WinAscent: 1025
OS2WinAOffset: 0
OS2WinDescent: 301
OS2WinDOffset: 0
HheadAscent: 1025
HheadAOffset: 0
HheadDescent: -301
HheadDOffset: 0
OS2SubXSize: 650
OS2SubYSize: 600
OS2SubXOff: 0
OS2SubYOff: 75
OS2SupXSize: 650
OS2SupYSize: 600
OS2SupXOff: 0
OS2SupYOff: 350
OS2StrikeYSize: 50
OS2StrikeYPos: 300
OS2Vendor: 'PYRS'
OS2CodePages: 20000003.00000000
OS2UnicodeRanges: a0000027.00000002.00000000.00000000
DEI: 91125
TtTable: prep
PUSHW_1
 511
SCANCTRL
PUSHB_1
 4
SCANTYPE
EndTTInstrs
ShortTable: maxp 16
  1
  0
  268
  77
  5
  0
  0
  2
  0
  1
  1
  0
  64
  0
  0
  0
EndShort
LangName: 1033 "" "" "" "NataliyaKasatkina: Cherry Swash: 2012" "" "Version 1.001" "" "Please refer to the Copyright section for the font trademark attribution notices." "Nataliya Kasatkina" "Kasatkina Nataliya" "" "" "" "This Font Software is licensed under the SIL Open Font License, Version 1.1. This license is available with a FAQ at: http://scripts.sil.org/OFL" "http://scripts.sil.org/OFL" 
GaspTable: 1 65535 15 1
Encoding: UnicodeBmp
UnicodeInterp: none
NameList: AGL For New Fonts
DisplaySize: -24
AntiAlias: 1
FitToEm: 1
BeginChars: 65540 268

StartChar: exclam
Encoding: 33 33 4
Width: 315
GlyphClass: 2
Flags: W
LayerCount: 2
Fore
SplineSet
123.5 7 m 128,-1,1
 108 24 108 24 108 46.5 c 128,-1,2
 108 69 108 69 122 85 c 128,-1,3
 136 101 136 101 158 101 c 128,-1,4
 180 101 180 101 195.5 84 c 128,-1,5
 211 67 211 67 211 44.5 c 128,-1,6
 211 22 211 22 197 6 c 128,-1,7
 183 -10 183 -10 161 -10 c 128,-1,0
 139 -10 139 -10 123.5 7 c 128,-1,1
128 201 m 1,8,-1
 108 801 l 1,9,-1
 213 801 l 1,10,-1
 193 201 l 1,11,-1
 128 201 l 1,8,-1
EndSplineSet
EndChar

StartChar: quotedbl
Encoding: 34 34 5
Width: 366
GlyphClass: 2
Flags: W
LayerCount: 2
Fore
SplineSet
135 487 m 1,0,-1
 74 487 l 1,1,-1
 60 700 l 1,2,-1
 150 700 l 1,3,-1
 135 487 l 1,0,-1
291 487 m 1,4,-1
 230 487 l 1,5,-1
 216 700 l 1,6,-1
 306 700 l 1,7,-1
 291 487 l 1,4,-1
EndSplineSet
EndChar

StartChar: numbersign
Encoding: 35 35 6
Width: 639
GlyphClass: 2
Flags: W
LayerCount: 2
Fore
SplineSet
346 40 m 1,0,-1
 370 180 l 1,1,-1
 219 180 l 1,2,-1
 195 40 l 1,3,-1
 135 40 l 1,4,-1
 159 180 l 1,5,-1
 60 180 l 1,6,-1
 73 238 l 1,7,-1
 169 238 l 1,8,-1
 197 395 l 1,9,-1
 82 395 l 1,10,-1
 95 453 l 1,11,-1
 207 453 l 1,12,-1
 235 610 l 1,13,-1
 295 610 l 1,14,-1
 267 453 l 1,15,-1
 418 453 l 1,16,-1
 446 610 l 1,17,-1
 506 610 l 1,18,-1
 478 453 l 1,19,-1
 579 453 l 1,20,-1
 571 395 l 1,21,-1
 468 395 l 1,22,-1
 440 238 l 1,23,-1
 557 238 l 1,24,-1
 549 180 l 1,25,-1
 430 180 l 1,26,-1
 406 40 l 1,27,-1
 346 40 l 1,0,-1
257 395 m 1,28,-1
 229 238 l 1,29,-1
 380 238 l 1,30,-1
 408 395 l 1,31,-1
 257 395 l 1,28,-1
EndSplineSet
EndChar

StartChar: dollar
Encoding: 36 36 7
Width: 535
GlyphClass: 2
Flags: W
LayerCount: 2
Fore
SplineSet
224 769 m 1,0,-1
 294 769 l 1,1,-1
 294 697 l 1,2,3
 412 695 412 695 482 656 c 1,4,-1
 482 522 l 1,5,-1
 412 522 l 1,6,-1
 412 605 l 1,7,8
 354 622 354 622 286 622 c 2,9,-1
 280 622 l 1,10,11
 218 620 218 620 173.5 592.5 c 128,-1,12
 129 565 129 565 129 521 c 0,13,14
 129 454 129 454 290 401 c 0,15,16
 340 384 340 384 369.5 371.5 c 128,-1,17
 399 359 399 359 436 336 c 0,18,19
 509 289 509 289 509 203 c 128,-1,20
 509 117 509 117 454 70 c 128,-1,21
 399 23 399 23 304 14 c 1,22,-1
 304 -61 l 1,23,-1
 234 -61 l 1,24,-1
 234 12 l 1,25,26
 116 16 116 16 36 63 c 1,27,-1
 36 198 l 1,28,-1
 106 198 l 1,29,-1
 106 117 l 1,30,31
 173 87 173 87 251 87 c 128,-1,32
 329 87 329 87 376 119.5 c 128,-1,33
 423 152 423 152 423 203 c 0,34,35
 423 237 423 237 407.5 252 c 128,-1,36
 392 267 392 267 385 274 c 128,-1,37
 378 281 378 281 357.5 290 c 128,-1,38
 337 299 337 299 330 302 c 0,39,40
 302 313 302 313 260.5 327.5 c 128,-1,41
 219 342 219 342 195.5 352 c 128,-1,42
 172 362 172 362 138.5 380 c 128,-1,43
 105 398 105 398 88 415 c 0,44,45
 45 458 45 458 45 522.5 c 128,-1,46
 45 587 45 587 94 632.5 c 128,-1,47
 143 678 143 678 224 691 c 1,48,-1
 224 769 l 1,0,-1
EndSplineSet
EndChar

StartChar: percent
Encoding: 37 37 8
Width: 820
GlyphClass: 2
Flags: W
LayerCount: 2
Fore
SplineSet
234 -22 m 1,0,-1
 506 701 l 1,1,-1
 576 701 l 1,2,-1
 304 -22 l 1,3,-1
 234 -22 l 1,0,-1
61 391 m 128,-1,5
 18 442 18 442 18 519.5 c 128,-1,6
 18 597 18 597 61 648.5 c 128,-1,7
 104 700 104 700 180 700 c 128,-1,8
 256 700 256 700 299 648.5 c 128,-1,9
 342 597 342 597 342 519.5 c 128,-1,10
 342 442 342 442 299 391 c 128,-1,11
 256 340 256 340 180 340 c 128,-1,4
 104 340 104 340 61 391 c 128,-1,5
94 520 m 128,-1,13
 94 471 94 471 116.5 439 c 128,-1,14
 139 407 139 407 180 407 c 128,-1,15
 221 407 221 407 243 439 c 128,-1,16
 265 471 265 471 265 520 c 128,-1,17
 265 569 265 569 243 600.5 c 128,-1,18
 221 632 221 632 180 632 c 128,-1,19
 139 632 139 632 116.5 600.5 c 128,-1,12
 94 569 94 569 94 520 c 128,-1,13
518 47 m 128,-1,21
 475 98 475 98 475 175.5 c 128,-1,22
 475 253 475 253 518 304.5 c 128,-1,23
 561 356 561 356 637 356 c 128,-1,24
 713 356 713 356 756 304.5 c 128,-1,25
 799 253 799 253 799 175.5 c 128,-1,26
 799 98 799 98 756 47 c 128,-1,27
 713 -4 713 -4 637 -4 c 128,-1,20
 561 -4 561 -4 518 47 c 128,-1,21
551 176 m 128,-1,29
 551 127 551 127 573.5 95 c 128,-1,30
 596 63 596 63 637 63 c 128,-1,31
 678 63 678 63 700 95 c 128,-1,32
 722 127 722 127 722 176 c 128,-1,33
 722 225 722 225 700 256.5 c 128,-1,34
 678 288 678 288 637 288 c 128,-1,35
 596 288 596 288 573.5 256.5 c 128,-1,28
 551 225 551 225 551 176 c 128,-1,29
EndSplineSet
EndChar

StartChar: ampersand
Encoding: 38 38 9
Width: 726
GlyphClass: 2
Flags: W
LayerCount: 2
Fore
SplineSet
31 183 m 0,0,1
 31 251 31 251 66 298.5 c 128,-1,2
 101 346 101 346 178 401 c 1,3,4
 119 501 119 501 119 568 c 128,-1,5
 119 635 119 635 162 678.5 c 128,-1,6
 205 722 205 722 282.5 722 c 128,-1,7
 360 722 360 722 400 679.5 c 128,-1,8
 440 637 440 637 440 575 c 128,-1,9
 440 513 440 513 404.5 472 c 128,-1,10
 369 431 369 431 288 377 c 1,11,12
 365 263 365 263 467 164 c 1,13,14
 544 248 544 248 544 336 c 1,15,-1
 482 336 l 1,16,-1
 482 409 l 1,17,-1
 684 409 l 1,18,-1
 684 336 l 1,19,-1
 625 336 l 1,20,21
 625 282 625 282 599 221.5 c 128,-1,22
 573 161 573 161 527 110 c 1,23,24
 601 47 601 47 672 16 c 1,25,-1
 634 -54 l 1,26,27
 557 -13 557 -13 472 59 c 1,28,29
 376 -12 376 -12 256 -12 c 0,30,31
 157 -12 157 -12 94 37.5 c 128,-1,32
 31 87 31 87 31 183 c 0,0,1
157 94 m 128,-1,34
 198 62 198 62 266.5 62 c 128,-1,35
 335 62 335 62 411 115 c 1,36,37
 303 220 303 220 223 333 c 1,38,39
 166 291 166 291 141 258 c 128,-1,40
 116 225 116 225 116 175.5 c 128,-1,33
 116 126 116 126 157 94 c 128,-1,34
223.5 628 m 128,-1,42
 204 605 204 605 204 564 c 128,-1,43
 204 523 204 523 245 446 c 1,44,45
 308 486 308 486 331.5 511.5 c 128,-1,46
 355 537 355 537 355 574 c 0,47,48
 355 651 355 651 282 651 c 0,49,41
 243 651 243 651 223.5 628 c 128,-1,42
EndSplineSet
EndChar

StartChar: quotesingle
Encoding: 39 39 10
Width: 210
GlyphClass: 2
Flags: W
LayerCount: 2
Fore
SplineSet
135 487 m 1,0,-1
 74 487 l 1,1,-1
 60 700 l 1,2,-1
 150 700 l 1,3,-1
 135 487 l 1,0,-1
EndSplineSet
EndChar

StartChar: parenleft
Encoding: 40 40 11
Width: 285
GlyphClass: 2
Flags: W
LayerCount: 2
Fore
SplineSet
78 132.5 m 128,-1,1
 60 212 60 212 60 298.5 c 128,-1,2
 60 385 60 385 78 465.5 c 128,-1,3
 96 546 96 546 126 604 c 1,4,5
 176 705 176 705 228 763 c 1,6,-1
 272 728 l 1,7,8
 141 556 141 556 141 296 c 0,9,10
 141 189 141 189 168 89.5 c 128,-1,11
 195 -10 195 -10 220 -56.5 c 128,-1,12
 245 -103 245 -103 271 -139 c 1,13,-1
 228 -171 l 1,14,15
 175 -110 175 -110 135.5 -28.5 c 128,-1,0
 96 53 96 53 78 132.5 c 128,-1,1
EndSplineSet
EndChar

StartChar: parenright
Encoding: 41 41 12
Width: 287
GlyphClass: 2
Flags: W
LayerCount: 2
Fore
SplineSet
209 465.5 m 128,-1,1
 227 385 227 385 227 298.5 c 128,-1,2
 227 212 227 212 209 132.5 c 128,-1,3
 191 53 191 53 162 -6 c 0,4,5
 112 -110 112 -110 59 -171 c 1,6,-1
 16 -139 l 1,7,8
 42 -103 42 -103 67 -56.5 c 128,-1,9
 92 -10 92 -10 119 89.5 c 128,-1,10
 146 189 146 189 146 296 c 0,11,12
 146 556 146 556 15 728 c 1,13,-1
 59 763 l 1,14,15
 111 705 111 705 151 625.5 c 128,-1,0
 191 546 191 546 209 465.5 c 128,-1,1
EndSplineSet
EndChar

StartChar: asterisk
Encoding: 42 42 13
Width: 389
GlyphClass: 2
Flags: W
LayerCount: 2
Fore
SplineSet
238 690 m 1,0,-1
 215 577 l 1,1,-1
 316 631 l 1,2,-1
 343 552 l 1,3,-1
 225 538 l 1,4,-1
 309 459 l 1,5,-1
 244 410 l 1,6,-1
 194 516 l 1,7,-1
 145 411 l 1,8,-1
 78 459 l 1,9,-1
 162 539 l 1,10,-1
 49 554 l 1,11,-1
 75 634 l 1,12,-1
 176 577 l 1,13,-1
 153 690 l 1,14,-1
 238 690 l 1,0,-1
EndSplineSet
EndChar

StartChar: plus
Encoding: 43 43 14
Width: 490
GlyphClass: 2
Flags: W
LayerCount: 2
Fore
SplineSet
215 261 m 1,0,-1
 60 261 l 1,1,-1
 60 318 l 1,2,-1
 215 318 l 1,3,-1
 215 474 l 1,4,-1
 275 474 l 1,5,-1
 275 318 l 1,6,-1
 430 318 l 1,7,-1
 430 261 l 1,8,-1
 275 261 l 1,9,-1
 275 104 l 1,10,-1
 215 104 l 1,11,-1
 215 261 l 1,0,-1
EndSplineSet
EndChar

StartChar: comma
Encoding: 44 44 15
Width: 250
GlyphClass: 2
Flags: W
LayerCount: 2
Fore
SplineSet
81.5 14 m 128,-1,1
 70 32 70 32 70 53 c 128,-1,2
 70 74 70 74 87 89.5 c 128,-1,3
 104 105 104 105 129 105 c 128,-1,4
 154 105 154 105 171.5 88 c 128,-1,5
 189 71 189 71 189 35.5 c 128,-1,6
 189 0 189 0 165 -57 c 128,-1,7
 141 -114 141 -114 106 -152 c 1,8,-1
 74 -132 l 1,9,10
 93 -108 93 -108 106.5 -72.5 c 128,-1,11
 120 -37 120 -37 120 -9 c 1,12,0
 93 -4 93 -4 81.5 14 c 128,-1,1
EndSplineSet
EndChar

StartChar: hyphen
Encoding: 45 45 16
Width: 370
GlyphClass: 2
Flags: W
LayerCount: 2
Fore
SplineSet
310 261 m 1,0,-1
 60 261 l 1,1,-1
 60 318 l 1,2,-1
 310 318 l 1,3,-1
 310 261 l 1,0,-1
EndSplineSet
EndChar

StartChar: period
Encoding: 46 46 17
Width: 245
GlyphClass: 2
Flags: W
LayerCount: 2
Fore
SplineSet
87 7 m 128,-1,1
 70 24 70 24 70 48.5 c 128,-1,2
 70 73 70 73 87 90 c 128,-1,3
 104 107 104 107 128.5 107 c 128,-1,4
 153 107 153 107 170 90 c 128,-1,5
 187 73 187 73 187 48.5 c 128,-1,6
 187 24 187 24 170 7 c 128,-1,7
 153 -10 153 -10 128.5 -10 c 128,-1,0
 104 -10 104 -10 87 7 c 128,-1,1
EndSplineSet
EndChar

StartChar: slash
Encoding: 47 47 18
Width: 375
GlyphClass: 2
Flags: W
LayerCount: 2
Fore
SplineSet
10 -30 m 1,0,-1
 300 700 l 1,1,-1
 365 700 l 1,2,-1
 75 -30 l 1,3,-1
 10 -30 l 1,0,-1
EndSplineSet
EndChar

StartChar: zero
Encoding: 48 48 19
Width: 570
GlyphClass: 2
Flags: W
LayerCount: 2
Fore
SplineSet
114 280 m 128,-1,1
 114 187 114 187 161 126 c 128,-1,2
 208 65 208 65 285.5 65 c 128,-1,3
 363 65 363 65 409.5 126 c 128,-1,4
 456 187 456 187 456 280 c 128,-1,5
 456 373 456 373 409 434 c 128,-1,6
 362 495 362 495 284.5 495 c 128,-1,7
 207 495 207 495 160.5 434 c 128,-1,0
 114 373 114 373 114 280 c 128,-1,1
24 280 m 128,-1,9
 24 406 24 406 93.5 488 c 128,-1,10
 163 570 163 570 285 570 c 128,-1,11
 407 570 407 570 476.5 488 c 128,-1,12
 546 406 546 406 546 280 c 128,-1,13
 546 154 546 154 476.5 72 c 128,-1,14
 407 -10 407 -10 285 -10 c 128,-1,15
 163 -10 163 -10 93.5 72 c 128,-1,8
 24 154 24 154 24 280 c 128,-1,9
EndSplineSet
EndChar

StartChar: one
Encoding: 49 49 20
Width: 457
GlyphClass: 2
Flags: W
LayerCount: 2
Fore
SplineSet
280 75 m 1,0,-1
 407 75 l 1,1,-1
 407 0 l 1,2,-1
 55 0 l 1,3,-1
 55 75 l 1,4,-1
 195 75 l 1,5,-1
 195 451 l 1,6,-1
 55 428 l 1,7,-1
 44 475 l 1,8,-1
 280 570 l 1,9,-1
 280 75 l 1,0,-1
EndSplineSet
EndChar

StartChar: two
Encoding: 50 50 21
Width: 550
GlyphClass: 2
Flags: W
LayerCount: 2
Fore
SplineSet
47 0 m 1,0,-1
 47 55 l 1,1,2
 50 57 50 57 91 80 c 128,-1,3
 132 103 132 103 161.5 121.5 c 128,-1,4
 191 140 191 140 237 173.5 c 128,-1,5
 283 207 283 207 313 237 c 128,-1,6
 343 267 343 267 365.5 305 c 128,-1,7
 388 343 388 343 388 378 c 0,8,9
 388 485 388 485 241 485 c 0,10,11
 178 485 178 485 125 468 c 1,12,-1
 125 385 l 1,13,-1
 55 385 l 1,14,-1
 55 519 l 1,15,16
 125 560 125 560 238 560 c 0,17,18
 472 560 472 560 472 379 c 0,19,20
 472 297 472 297 393.5 212 c 128,-1,21
 315 127 315 127 202 63 c 1,22,-1
 280 75 l 1,23,-1
 423 75 l 1,24,-1
 436 144 l 1,25,-1
 506 144 l 1,26,-1
 486 0 l 1,27,-1
 47 0 l 1,0,-1
EndSplineSet
EndChar

StartChar: three
Encoding: 51 51 22
Width: 522
GlyphClass: 2
Flags: W
LayerCount: 2
Fore
SplineSet
58 375 m 1,0,-1
 58 531 l 1,1,-1
 73 534 l 1,2,3
 154 559 154 559 243.5 559 c 128,-1,4
 333 559 333 559 400 516 c 128,-1,5
 467 473 467 473 467 383 c 0,6,7
 467 254 467 254 338 207 c 1,8,9
 484 166 484 166 484 36 c 0,10,11
 484 -73 484 -73 411 -126.5 c 128,-1,12
 338 -180 338 -180 218.5 -180 c 128,-1,13
 99 -180 99 -180 17 -139 c 1,14,-1
 50 -73 l 1,15,16
 129 -105 129 -105 214.5 -105 c 128,-1,17
 300 -105 300 -105 350 -71.5 c 128,-1,18
 400 -38 400 -38 400 33 c 128,-1,19
 400 104 400 104 350 135.5 c 128,-1,20
 300 167 300 167 224 167 c 2,21,-1
 162 167 l 1,22,-1
 162 242 l 1,23,-1
 207 242 l 2,24,25
 282 242 282 242 332.5 277 c 128,-1,26
 383 312 383 312 383 384 c 0,27,28
 383 436 383 436 338.5 460 c 128,-1,29
 294 484 294 484 237.5 484 c 128,-1,30
 181 484 181 484 128 470 c 1,31,-1
 128 375 l 1,32,-1
 58 375 l 1,0,-1
EndSplineSet
EndChar

StartChar: four
Encoding: 52 52 23
Width: 558
GlyphClass: 2
Flags: W
LayerCount: 2
Fore
SplineSet
434 560 m 1,0,-1
 434 96 l 1,1,-1
 542 96 l 1,2,-1
 542 21 l 1,3,-1
 434 21 l 1,4,-1
 434 -94 l 1,5,-1
 511 -94 l 1,6,-1
 511 -169 l 1,7,-1
 272 -169 l 1,8,-1
 272 -94 l 1,9,-1
 349 -94 l 1,10,-1
 349 21 l 1,11,-1
 22 21 l 1,12,-1
 22 83 l 1,13,-1
 369 560 l 1,14,-1
 434 560 l 1,0,-1
349 96 m 1,15,-1
 349 409 l 1,16,-1
 125 96 l 1,17,-1
 349 96 l 1,15,-1
EndSplineSet
EndChar

StartChar: five
Encoding: 53 53 24
Width: 524
GlyphClass: 2
Flags: W
LayerCount: 2
Fore
SplineSet
463 560 m 1,0,-1
 463 396 l 1,1,-1
 393 396 l 1,2,-1
 393 485 l 1,3,-1
 188 485 l 1,4,-1
 156 276 l 1,5,6
 191 283 191 283 236 283 c 0,7,8
 343 283 343 283 410 226.5 c 128,-1,9
 477 170 477 170 477 54 c 128,-1,10
 477 -62 477 -62 404 -120.5 c 128,-1,11
 331 -179 331 -179 214.5 -179 c 128,-1,12
 98 -179 98 -179 20 -138 c 1,13,-1
 53 -72 l 1,14,15
 124 -104 124 -104 208.5 -104 c 128,-1,16
 293 -104 293 -104 343 -65.5 c 128,-1,17
 393 -27 393 -27 393 53.5 c 128,-1,18
 393 134 393 134 348.5 171 c 128,-1,19
 304 208 304 208 246.5 208 c 128,-1,20
 189 208 189 208 122 187 c 1,21,-1
 72 203 l 1,22,-1
 126 560 l 1,23,-1
 463 560 l 1,0,-1
EndSplineSet
EndChar

StartChar: six
Encoding: 54 54 25
Width: 507
GlyphClass: 2
Flags: W
LayerCount: 2
Fore
SplineSet
318 635 m 0,0,1
 226 635 226 635 182.5 579 c 128,-1,2
 139 523 139 523 129 407 c 1,3,4
 183 433 183 433 256 433 c 0,5,6
 361 433 361 433 423.5 375 c 128,-1,7
 486 317 486 317 486 217 c 128,-1,8
 486 117 486 117 430 53.5 c 128,-1,9
 374 -10 374 -10 270 -10 c 0,10,11
 189 -10 189 -10 135.5 38 c 128,-1,12
 82 86 82 86 61 155 c 128,-1,13
 40 224 40 224 40 312.5 c 128,-1,14
 40 401 40 401 54 471.5 c 128,-1,15
 68 542 68 542 99 597 c 0,16,17
 163 710 163 710 318 710 c 0,18,19
 382 710 382 710 458 676 c 1,20,-1
 433 612 l 1,21,22
 362 635 362 635 318 635 c 0,0,1
371 104.5 m 128,-1,24
 401 144 401 144 401 210 c 128,-1,25
 401 276 401 276 363 317 c 128,-1,26
 325 358 325 358 252 358 c 128,-1,27
 179 358 179 358 125 332 c 1,28,-1
 125 304 l 2,29,30
 125 212 125 212 154 144 c 0,31,32
 169 108 169 108 199 86.5 c 128,-1,33
 229 65 229 65 271 65 c 0,34,23
 341 65 341 65 371 104.5 c 128,-1,24
EndSplineSet
EndChar

StartChar: seven
Encoding: 55 55 26
Width: 469
GlyphClass: 2
Flags: W
LayerCount: 2
Fore
SplineSet
240 -170 m 1,0,-1
 153 -170 l 1,1,2
 153 -19 153 -19 220 144 c 0,3,4
 248 212 248 212 276 273 c 0,5,6
 343 419 343 419 343 484 c 1,7,-1
 107 484 l 1,8,-1
 107 405 l 1,9,-1
 37 405 l 1,10,-1
 37 559 l 1,11,-1
 434 559 l 1,12,-1
 434 485 l 2,13,14
 434 410 434 410 337 212 c 0,15,16
 301 138 301 138 270.5 32.5 c 128,-1,17
 240 -73 240 -73 240 -170 c 1,0,-1
EndSplineSet
EndChar

StartChar: eight
Encoding: 56 56 27
Width: 533
GlyphClass: 2
Flags: W
LayerCount: 2
Fore
SplineSet
494 193 m 0,0,1
 494 104 494 104 436 47 c 128,-1,2
 378 -10 378 -10 267 -10 c 128,-1,3
 156 -10 156 -10 98 47 c 128,-1,4
 40 104 40 104 40 193 c 0,5,6
 40 294 40 294 151 373 c 1,7,8
 71 427 71 427 71 517.5 c 128,-1,9
 71 608 71 608 129 659 c 128,-1,10
 187 710 187 710 267.5 710 c 128,-1,11
 348 710 348 710 405.5 658.5 c 128,-1,12
 463 607 463 607 463 520 c 0,13,14
 463 472 463 472 441 436 c 128,-1,15
 419 400 419 400 375 358 c 1,16,17
 494 294 494 294 494 193 c 0,0,1
125 193 m 0,18,19
 125 65 125 65 267 65 c 128,-1,20
 409 65 409 65 409 193 c 0,21,22
 409 242 409 242 372 270.5 c 128,-1,23
 335 299 335 299 257 324 c 0,24,25
 240 329 240 329 218 338 c 1,26,27
 177 316 177 316 151 278.5 c 128,-1,28
 125 241 125 241 125 193 c 0,18,19
378 518 m 0,29,30
 378 574 378 574 348 604.5 c 128,-1,31
 318 635 318 635 267 635 c 128,-1,32
 216 635 216 635 186 604.5 c 128,-1,33
 156 574 156 574 156 523 c 128,-1,34
 156 472 156 472 189 441.5 c 128,-1,35
 222 411 222 411 261 400.5 c 128,-1,36
 300 390 300 390 310 386 c 1,37,38
 378 442 378 442 378 518 c 0,29,30
EndSplineSet
EndChar

StartChar: nine
Encoding: 57 57 28
Width: 507
GlyphClass: 2
Flags: W
LayerCount: 2
Fore
SplineSet
193 -105 m 0,0,1
 285 -105 285 -105 328.5 -46.5 c 128,-1,2
 372 12 372 12 382 132 c 1,3,4
 329 107 329 107 255 107 c 0,5,6
 150 107 150 107 87.5 168 c 128,-1,7
 25 229 25 229 25 331 c 128,-1,8
 25 433 25 433 81 496.5 c 128,-1,9
 137 560 137 560 241 560 c 0,10,11
 322 560 322 560 375.5 510.5 c 128,-1,12
 429 461 429 461 450 390 c 128,-1,13
 471 319 471 319 471 227.5 c 128,-1,14
 471 136 471 136 457 64 c 128,-1,15
 443 -8 443 -8 412 -64 c 0,16,17
 349 -180 349 -180 193 -180 c 0,18,19
 130 -180 130 -180 53 -146 c 1,20,-1
 78 -82 l 1,21,22
 149 -105 149 -105 193 -105 c 0,0,1
140 445.5 m 128,-1,24
 110 406 110 406 110 337.5 c 128,-1,25
 110 269 110 269 148 225.5 c 128,-1,26
 186 182 186 182 260 182 c 128,-1,27
 334 182 334 182 386 208 c 1,28,-1
 386 236 l 2,29,30
 386 332 386 332 358 402 c 0,31,32
 342 441 342 441 312 463 c 128,-1,33
 282 485 282 485 240 485 c 0,34,23
 170 485 170 485 140 445.5 c 128,-1,24
EndSplineSet
EndChar

StartChar: colon
Encoding: 58 58 29
Width: 250
GlyphClass: 2
Flags: W
LayerCount: 2
Fore
SplineSet
70 50 m 128,-1,1
 70 75 70 75 87.5 92.5 c 128,-1,2
 105 110 105 110 130 110 c 128,-1,3
 155 110 155 110 172.5 92.5 c 128,-1,4
 190 75 190 75 190 50 c 128,-1,5
 190 25 190 25 172.5 7.5 c 128,-1,6
 155 -10 155 -10 130 -10 c 128,-1,7
 105 -10 105 -10 87.5 7.5 c 128,-1,0
 70 25 70 25 70 50 c 128,-1,1
70 360 m 128,-1,9
 70 385 70 385 87.5 402.5 c 128,-1,10
 105 420 105 420 130 420 c 128,-1,11
 155 420 155 420 172.5 402.5 c 128,-1,12
 190 385 190 385 190 360 c 128,-1,13
 190 335 190 335 172.5 317.5 c 128,-1,14
 155 300 155 300 130 300 c 128,-1,15
 105 300 105 300 87.5 317.5 c 128,-1,8
 70 335 70 335 70 360 c 128,-1,9
EndSplineSet
EndChar

StartChar: semicolon
Encoding: 59 59 30
Width: 250
GlyphClass: 2
Flags: W
LayerCount: 2
Fore
SplineSet
70 360 m 128,-1,1
 70 385 70 385 87.5 402.5 c 128,-1,2
 105 420 105 420 130 420 c 128,-1,3
 155 420 155 420 172.5 402.5 c 128,-1,4
 190 385 190 385 190 360 c 128,-1,5
 190 335 190 335 172.5 317.5 c 128,-1,6
 155 300 155 300 130 300 c 128,-1,7
 105 300 105 300 87.5 317.5 c 128,-1,0
 70 335 70 335 70 360 c 128,-1,1
81.5 14 m 128,-1,9
 70 32 70 32 70 53 c 128,-1,10
 70 74 70 74 87 89.5 c 128,-1,11
 104 105 104 105 129 105 c 128,-1,12
 154 105 154 105 171.5 88 c 128,-1,13
 189 71 189 71 189 35.5 c 128,-1,14
 189 0 189 0 165 -57 c 128,-1,15
 141 -114 141 -114 106 -152 c 1,16,-1
 74 -132 l 1,17,18
 93 -108 93 -108 106.5 -72.5 c 128,-1,19
 120 -37 120 -37 120 -9 c 1,20,8
 93 -4 93 -4 81.5 14 c 128,-1,9
EndSplineSet
EndChar

StartChar: less
Encoding: 60 60 31
Width: 558
GlyphClass: 2
Flags: W
LayerCount: 2
Fore
SplineSet
487 132 m 1,0,-1
 487 54 l 1,1,-1
 79 261 l 1,2,-1
 79 315 l 1,3,-1
 487 520 l 1,4,-1
 487 441 l 1,5,-1
 168 289 l 1,6,-1
 487 132 l 1,0,-1
EndSplineSet
EndChar

StartChar: equal
Encoding: 61 61 32
Width: 490
GlyphClass: 2
Flags: W
LayerCount: 2
Fore
SplineSet
430 336 m 1,0,-1
 60 336 l 1,1,-1
 60 393 l 1,2,-1
 430 393 l 1,3,-1
 430 336 l 1,0,-1
430 185 m 1,4,-1
 60 185 l 1,5,-1
 60 242 l 1,6,-1
 430 242 l 1,7,-1
 430 185 l 1,4,-1
EndSplineSet
EndChar

StartChar: greater
Encoding: 62 62 33
Width: 558
GlyphClass: 2
Flags: W
LayerCount: 2
Fore
SplineSet
79 54 m 1,0,-1
 79 132 l 1,1,-1
 398 289 l 1,2,-1
 79 441 l 1,3,-1
 79 520 l 1,4,-1
 487 315 l 1,5,-1
 487 261 l 1,6,-1
 79 54 l 1,0,-1
EndSplineSet
EndChar

StartChar: question
Encoding: 63 63 34
Width: 550
GlyphClass: 2
Flags: W
LayerCount: 2
Fore
SplineSet
290 201 m 1,0,-1
 220 201 l 1,1,-1
 220 333 l 1,2,3
 294 365 294 365 328 392 c 128,-1,4
 362 419 362 419 375 446.5 c 128,-1,5
 388 474 388 474 388 508 c 0,6,7
 388 635 388 635 241 635 c 0,8,9
 178 635 178 635 125 618 c 1,10,-1
 125 535 l 1,11,-1
 55 535 l 1,12,-1
 55 669 l 1,13,14
 125 710 125 710 238 710 c 0,15,16
 472 710 472 710 472 509 c 0,17,18
 472 425 472 425 424 377 c 128,-1,19
 376 329 376 329 290 292 c 1,20,-1
 290 201 l 1,0,-1
218 85 m 128,-1,22
 232 101 232 101 254 101 c 128,-1,23
 276 101 276 101 291.5 84 c 128,-1,24
 307 67 307 67 307 44.5 c 128,-1,25
 307 22 307 22 293 6 c 128,-1,26
 279 -10 279 -10 257 -10 c 128,-1,27
 235 -10 235 -10 219.5 7 c 128,-1,28
 204 24 204 24 204 46.5 c 128,-1,21
 204 69 204 69 218 85 c 128,-1,22
EndSplineSet
EndChar

StartChar: at
Encoding: 64 64 35
Width: 1109
GlyphClass: 2
Flags: W
LayerCount: 2
Fore
SplineSet
723 455 m 0,0,1
 723 402 723 402 751 402 c 0,2,3
 775 402 775 402 788.5 432.5 c 128,-1,4
 802 463 802 463 802 497 c 0,5,6
 802 579 802 579 730 628 c 128,-1,7
 658 677 658 677 547 677 c 0,8,9
 468 677 468 677 393.5 645.5 c 128,-1,10
 319 614 319 614 260.5 557.5 c 128,-1,11
 202 501 202 501 166.5 414.5 c 128,-1,12
 131 328 131 328 131 227 c 0,13,14
 131 66 131 66 216 -28.5 c 128,-1,15
 301 -123 301 -123 457.5 -123 c 128,-1,16
 614 -123 614 -123 733 -44 c 128,-1,17
 852 35 852 35 914.5 164.5 c 128,-1,18
 977 294 977 294 977 450 c 0,19,20
 977 631 977 631 889 727 c 128,-1,21
 801 823 801 823 632 823 c 1,22,-1
 645 903 l 1,23,24
 842 903 842 903 950.5 778 c 128,-1,25
 1059 653 1059 653 1059 451 c 0,26,27
 1059 324 1059 324 1014.5 205.5 c 128,-1,28
 970 87 970 87 892.5 -3.5 c 128,-1,29
 815 -94 815 -94 701 -148.5 c 128,-1,30
 587 -203 587 -203 457 -203 c 0,31,32
 264 -203 264 -203 157 -89 c 128,-1,33
 50 25 50 25 50 220 c 0,34,35
 50 320 50 320 79.5 408 c 128,-1,36
 109 496 109 496 158.5 558.5 c 128,-1,37
 208 621 208 621 272 666 c 0,38,39
 399 757 399 757 546 757 c 128,-1,40
 693 757 693 757 788 689 c 128,-1,41
 883 621 883 621 883 508 c 0,42,43
 883 439 883 439 845.5 380.5 c 128,-1,44
 808 322 808 322 742 322 c 0,45,46
 716 322 716 322 700 331 c 1,47,-1
 664 98 l 1,48,-1
 740 98 l 1,49,-1
 734 60 l 1,50,51
 698 39 698 39 655.5 39 c 128,-1,52
 613 39 613 39 599 49.5 c 128,-1,53
 585 60 585 60 585 85 c 2,54,-1
 585 93 l 1,55,56
 520 34 520 34 442 34 c 128,-1,57
 364 34 364 34 327.5 82.5 c 128,-1,58
 291 131 291 131 291 216 c 0,59,60
 291 340 291 340 363 426.5 c 128,-1,61
 435 513 435 513 564 513 c 0,62,63
 638 513 638 513 725 485 c 1,64,65
 723 465 723 465 723 455 c 0,0,1
370 229 m 0,66,67
 370 103 370 103 466 103 c 0,68,69
 517 103 517 103 556.5 145.5 c 128,-1,70
 596 188 596 188 610 251 c 1,71,-1
 638 427 l 1,72,73
 598 444 598 444 556 444 c 0,74,75
 468 444 468 444 419 381 c 128,-1,76
 370 318 370 318 370 229 c 0,66,67
EndSplineSet
EndChar

StartChar: A
Encoding: 65 65 36
Width: 768
GlyphClass: 2
Flags: W
LayerCount: 2
Fore
SplineSet
389 700 m 2,0,-1
 564 700 l 1,1,-1
 564 625 l 1,2,-1
 504 625 l 1,3,-1
 702 75 l 1,4,-1
 768 75 l 1,5,-1
 768 0 l 1,6,-1
 556 0 l 1,7,-1
 556 75 l 1,8,-1
 615 75 l 1,9,-1
 570 206 l 1,10,-1
 296 206 l 1,11,-1
 251 75 l 1,12,-1
 311 75 l 1,13,-1
 311 0 l 1,14,-1
 99 0 l 1,15,-1
 99 75 l 1,16,-1
 164 75 l 1,17,-1
 362 624 l 1,18,19
 206 622 206 622 143 588.5 c 128,-1,20
 80 555 80 555 80 486 c 0,21,22
 80 456 80 456 93 436.5 c 128,-1,23
 106 417 106 417 131 417 c 0,24,25
 178 417 178 417 178 496 c 1,26,-1
 258 496 l 1,27,28
 258 431 258 431 228 386.5 c 128,-1,29
 198 342 198 342 131 342 c 128,-1,30
 64 342 64 342 32 384 c 128,-1,31
 0 426 0 426 0 486 c 0,32,33
 0 584 0 584 93 642 c 128,-1,34
 186 700 186 700 389 700 c 2,0,-1
433 605 m 1,35,-1
 318 271 l 1,36,-1
 548 271 l 1,37,-1
 433 605 l 1,35,-1
EndSplineSet
EndChar

StartChar: B
Encoding: 66 66 37
Width: 814
GlyphClass: 2
Flags: W
LayerCount: 2
Fore
SplineSet
228 396.5 m 128,-1,1
 198 352 198 352 131 352 c 128,-1,2
 64 352 64 352 32 394 c 128,-1,3
 0 436 0 436 0 496 c 0,4,5
 0 594 0 594 93 652 c 128,-1,6
 186 710 186 710 389 710 c 0,7,8
 742 710 742 710 742 506 c 0,9,10
 742 404 742 404 647 362 c 1,11,12
 705 342 705 342 739 296.5 c 128,-1,13
 773 251 773 251 773 187 c 0,14,15
 773 101 773 101 712 45.5 c 128,-1,16
 651 -10 651 -10 534 -10 c 0,17,18
 512 -10 512 -10 432 -5 c 128,-1,19
 352 0 352 0 304 0 c 2,20,-1
 207 0 l 1,21,-1
 207 75 l 1,22,-1
 304 75 l 1,23,-1
 304 632 l 1,24,25
 182 623 182 623 131 589 c 128,-1,26
 80 555 80 555 80 496 c 0,27,28
 80 466 80 466 93 446.5 c 128,-1,29
 106 427 106 427 131 427 c 0,30,31
 178 427 178 427 178 506 c 1,32,-1
 258 506 l 1,33,0
 258 441 258 441 228 396.5 c 128,-1,1
439 317 m 1,34,-1
 439 392 l 1,35,-1
 538 392 l 2,36,37
 589 392 589 392 623 422 c 128,-1,38
 657 452 657 452 657 506 c 0,39,40
 657 572 657 572 596 603.5 c 128,-1,41
 535 635 535 635 389 635 c 1,42,-1
 389 72 l 1,43,44
 513 65 513 65 549 65 c 0,45,46
 612 65 612 65 650 98.5 c 128,-1,47
 688 132 688 132 688 192 c 128,-1,48
 688 252 688 252 649.5 284.5 c 128,-1,49
 611 317 611 317 549 317 c 2,50,-1
 439 317 l 1,34,-1
EndSplineSet
EndChar

StartChar: C
Encoding: 67 67 38
Width: 615
GlyphClass: 2
Flags: W
LayerCount: 2
Fore
SplineSet
550 423 m 128,-1,1
 518 381 518 381 451 381 c 128,-1,2
 384 381 384 381 354 425.5 c 128,-1,3
 324 470 324 470 324 535 c 1,4,-1
 404 535 l 1,5,6
 404 456 404 456 451 456 c 0,7,8
 476 456 476 456 489 475.5 c 128,-1,9
 502 495 502 495 502 525 c 0,10,11
 502 573 502 573 458 601.5 c 128,-1,12
 414 630 414 630 355 630 c 0,13,14
 251 630 251 630 188 550.5 c 128,-1,15
 125 471 125 471 125 350 c 128,-1,16
 125 229 125 229 188 149.5 c 128,-1,17
 251 70 251 70 354.5 70 c 128,-1,18
 458 70 458 70 540 156 c 1,19,-1
 601 106 l 1,20,21
 512 -10 512 -10 359 -10 c 128,-1,22
 206 -10 206 -10 120.5 89.5 c 128,-1,23
 35 189 35 189 35 348 c 128,-1,24
 35 507 35 507 121 608.5 c 128,-1,25
 207 710 207 710 355 710 c 0,26,27
 446 710 446 710 514 658.5 c 128,-1,28
 582 607 582 607 582 525 c 0,29,0
 582 465 582 465 550 423 c 128,-1,1
EndSplineSet
EndChar

StartChar: D
Encoding: 68 68 39
Width: 847
GlyphClass: 2
Flags: W
LayerCount: 2
Fore
SplineSet
509 -10 m 1,0,-1
 304 0 l 1,1,-1
 216 0 l 1,2,-1
 216 75 l 1,3,-1
 304 75 l 1,4,-1
 304 622 l 1,5,6
 182 613 182 613 131 579 c 128,-1,7
 80 545 80 545 80 486 c 0,8,9
 80 456 80 456 93 436.5 c 128,-1,10
 106 417 106 417 131 417 c 0,11,12
 178 417 178 417 178 496 c 1,13,-1
 258 496 l 1,14,15
 258 431 258 431 228 386.5 c 128,-1,16
 198 342 198 342 131 342 c 128,-1,17
 64 342 64 342 32 384 c 128,-1,18
 0 426 0 426 0 486 c 0,19,20
 0 584 0 584 93 642 c 128,-1,21
 186 700 186 700 390.5 700 c 128,-1,22
 595 700 595 700 703.5 597.5 c 128,-1,23
 812 495 812 495 812 320 c 0,24,25
 812 148 812 148 715 58 c 0,26,27
 641 -10 641 -10 509 -10 c 1,0,-1
509 65 m 0,28,29
 569 65 569 65 613 87.5 c 128,-1,30
 657 110 657 110 680 148 c 0,31,32
 722 221 722 221 722 320 c 0,33,34
 722 465 722 465 637 545 c 128,-1,35
 552 625 552 625 389 625 c 1,36,-1
 389 71 l 1,37,38
 481 65 481 65 509 65 c 0,28,29
EndSplineSet
EndChar

StartChar: E
Encoding: 69 69 40
Width: 780
GlyphClass: 2
Flags: W
LayerCount: 2
Fore
SplineSet
389 311 m 1,0,-1
 389 75 l 1,1,-1
 678 75 l 1,2,-1
 678 190 l 1,3,-1
 748 190 l 1,4,-1
 748 0 l 1,5,-1
 207 0 l 1,6,-1
 207 75 l 1,7,-1
 304 75 l 1,8,-1
 304 623 l 1,9,10
 181 615 181 615 130.5 582 c 128,-1,11
 80 549 80 549 80 486 c 0,12,13
 80 456 80 456 93 436.5 c 128,-1,14
 106 417 106 417 131 417 c 0,15,16
 178 417 178 417 178 496 c 1,17,-1
 258 496 l 1,18,19
 258 431 258 431 228 386.5 c 128,-1,20
 198 342 198 342 131 342 c 128,-1,21
 64 342 64 342 32 384 c 128,-1,22
 0 426 0 426 0 486 c 0,23,24
 0 584 0 584 93 642 c 128,-1,25
 186 700 186 700 389 700 c 2,26,-1
 739 700 l 1,27,-1
 739 510 l 1,28,-1
 669 510 l 1,29,-1
 669 625 l 1,30,-1
 389 625 l 1,31,-1
 389 386 l 1,32,-1
 527 386 l 1,33,-1
 527 446 l 1,34,-1
 597 446 l 1,35,-1
 597 251 l 1,36,-1
 527 251 l 1,37,-1
 527 311 l 1,38,-1
 389 311 l 1,0,-1
EndSplineSet
EndChar

StartChar: F
Encoding: 70 70 41
Width: 743
GlyphClass: 2
Flags: W
LayerCount: 2
Fore
SplineSet
207 0 m 1,0,-1
 207 75 l 1,1,-1
 304 75 l 1,2,-1
 304 623 l 1,3,4
 181 615 181 615 130.5 582 c 128,-1,5
 80 549 80 549 80 486 c 0,6,7
 80 456 80 456 93 436.5 c 128,-1,8
 106 417 106 417 131 417 c 0,9,10
 178 417 178 417 178 496 c 1,11,-1
 258 496 l 1,12,13
 258 431 258 431 228 386.5 c 128,-1,14
 198 342 198 342 131 342 c 128,-1,15
 64 342 64 342 32 384 c 128,-1,16
 0 426 0 426 0 486 c 0,17,18
 0 584 0 584 93 642 c 128,-1,19
 186 700 186 700 389 700 c 2,20,-1
 739 700 l 1,21,-1
 739 510 l 1,22,-1
 669 510 l 1,23,-1
 669 625 l 1,24,-1
 389 625 l 1,25,-1
 389 386 l 1,26,-1
 527 386 l 1,27,-1
 527 446 l 1,28,-1
 597 446 l 1,29,-1
 597 251 l 1,30,-1
 527 251 l 1,31,-1
 527 311 l 1,32,-1
 389 311 l 1,33,-1
 389 75 l 1,34,-1
 496 75 l 1,35,-1
 496 0 l 1,36,-1
 207 0 l 1,0,-1
EndSplineSet
EndChar

StartChar: G
Encoding: 71 71 42
Width: 674
GlyphClass: 2
Flags: W
LayerCount: 2
Fore
SplineSet
48 348 m 128,-1,1
 48 507 48 507 134 608.5 c 128,-1,2
 220 710 220 710 368 710 c 0,3,4
 470 710 470 710 532.5 659.5 c 128,-1,5
 595 609 595 609 595 525 c 0,6,7
 595 465 595 465 563 423 c 128,-1,8
 531 381 531 381 464 381 c 128,-1,9
 397 381 397 381 367 425.5 c 128,-1,10
 337 470 337 470 337 535 c 1,11,-1
 417 535 l 1,12,13
 417 456 417 456 464 456 c 0,14,15
 489 456 489 456 502 475.5 c 128,-1,16
 515 495 515 495 515 525 c 0,17,18
 515 579 515 579 476.5 607 c 128,-1,19
 438 635 438 635 368 635 c 0,20,21
 264 635 264 635 201 554.5 c 128,-1,22
 138 474 138 474 138 352 c 128,-1,23
 138 230 138 230 202 147.5 c 128,-1,24
 266 65 266 65 349 65 c 128,-1,25
 432 65 432 65 475.5 111 c 128,-1,26
 519 157 519 157 519 223 c 2,27,-1
 519 235 l 1,28,-1
 355 235 l 1,29,-1
 355 310 l 1,30,-1
 604 310 l 1,31,-1
 604 0 l 1,32,-1
 542 0 l 1,33,-1
 523 73 l 1,34,35
 505 51 505 51 492 38 c 128,-1,36
 479 25 479 25 439 7.5 c 128,-1,37
 399 -10 399 -10 348 -10 c 0,38,39
 208 -10 208 -10 128 89.5 c 128,-1,0
 48 189 48 189 48 348 c 128,-1,1
EndSplineSet
EndChar

StartChar: H
Encoding: 72 72 43
Width: 919
GlyphClass: 2
Flags: W
LayerCount: 2
Fore
SplineSet
389 625 m 1,0,-1
 389 393 l 1,1,-1
 717 393 l 1,2,-1
 717 625 l 1,3,-1
 630 625 l 1,4,-1
 630 700 l 1,5,-1
 899 700 l 1,6,-1
 899 625 l 1,7,-1
 802 625 l 1,8,-1
 802 75 l 1,9,-1
 899 75 l 1,10,-1
 899 0 l 1,11,-1
 630 0 l 1,12,-1
 630 75 l 1,13,-1
 717 75 l 1,14,-1
 717 318 l 1,15,-1
 389 318 l 1,16,-1
 389 75 l 1,17,-1
 476 75 l 1,18,-1
 476 0 l 1,19,-1
 207 0 l 1,20,-1
 207 75 l 1,21,-1
 304 75 l 1,22,-1
 304 623 l 1,23,24
 181 615 181 615 130.5 582 c 128,-1,25
 80 549 80 549 80 486 c 0,26,27
 80 456 80 456 93 436.5 c 128,-1,28
 106 417 106 417 131 417 c 0,29,30
 178 417 178 417 178 496 c 1,31,-1
 258 496 l 1,32,33
 258 431 258 431 228 386.5 c 128,-1,34
 198 342 198 342 131 342 c 128,-1,35
 64 342 64 342 32 384 c 128,-1,36
 0 426 0 426 0 486 c 0,37,38
 0 584 0 584 93 642 c 128,-1,39
 186 700 186 700 389 700 c 2,40,-1
 476 700 l 1,41,-1
 476 625 l 1,42,-1
 389 625 l 1,0,-1
EndSplineSet
EndChar

StartChar: I
Encoding: 73 73 44
Width: 510
GlyphClass: 2
Flags: W
LayerCount: 2
Fore
SplineSet
389 625 m 1,0,-1
 389 75 l 1,1,-1
 486 75 l 1,2,-1
 486 0 l 1,3,-1
 216 0 l 1,4,-1
 216 75 l 1,5,-1
 304 75 l 1,6,-1
 304 623 l 1,7,8
 181 615 181 615 130.5 582 c 128,-1,9
 80 549 80 549 80 486 c 0,10,11
 80 456 80 456 93 436.5 c 128,-1,12
 106 417 106 417 131 417 c 0,13,14
 178 417 178 417 178 496 c 1,15,-1
 258 496 l 1,16,17
 258 431 258 431 228 386.5 c 128,-1,18
 198 342 198 342 131 342 c 128,-1,19
 64 342 64 342 32 384 c 128,-1,20
 0 426 0 426 0 486 c 0,21,22
 0 584 0 584 93 642 c 128,-1,23
 186 700 186 700 389 700 c 2,24,-1
 486 700 l 1,25,-1
 486 625 l 1,26,-1
 389 625 l 1,0,-1
EndSplineSet
EndChar

StartChar: J
Encoding: 74 74 45
Width: 520
GlyphClass: 2
Flags: W
LayerCount: 2
Fore
SplineSet
389 700 m 2,0,-1
 496 700 l 1,1,-1
 496 625 l 1,2,-1
 389 625 l 1,3,-1
 389 100 l 2,4,5
 389 -21 389 -21 331 -90.5 c 128,-1,6
 273 -160 273 -160 160 -160 c 1,7,-1
 160 -90 l 1,8,9
 229 -90 229 -90 266.5 -40 c 128,-1,10
 304 10 304 10 304 100 c 2,11,-1
 304 623 l 1,12,13
 181 615 181 615 130.5 582 c 128,-1,14
 80 549 80 549 80 486 c 0,15,16
 80 456 80 456 93 436.5 c 128,-1,17
 106 417 106 417 131 417 c 0,18,19
 178 417 178 417 178 496 c 1,20,-1
 258 496 l 1,21,22
 258 431 258 431 228 386.5 c 128,-1,23
 198 342 198 342 131 342 c 128,-1,24
 64 342 64 342 32 384 c 128,-1,25
 0 426 0 426 0 486 c 0,26,27
 0 584 0 584 93 642 c 128,-1,28
 186 700 186 700 389 700 c 2,0,-1
EndSplineSet
EndChar

StartChar: K
Encoding: 75 75 46
Width: 893
GlyphClass: 2
Flags: W
LayerCount: 2
Fore
SplineSet
819 140 m 1,0,-1
 894 140 l 1,1,2
 894 63 894 63 855 26 c 128,-1,3
 816 -11 816 -11 756.5 -11 c 128,-1,4
 697 -11 697 -11 660.5 16 c 128,-1,5
 624 43 624 43 587 111 c 2,6,-1
 477 310 l 1,7,-1
 389 270 l 1,8,-1
 389 75 l 1,9,-1
 486 75 l 1,10,-1
 486 0 l 1,11,-1
 304 0 l 1,12,-1
 304 623 l 1,13,14
 181 615 181 615 130.5 582 c 128,-1,15
 80 549 80 549 80 486 c 0,16,17
 80 456 80 456 93 436.5 c 128,-1,18
 106 417 106 417 131 417 c 0,19,20
 178 417 178 417 178 496 c 1,21,-1
 258 496 l 1,22,23
 258 431 258 431 228 386.5 c 128,-1,24
 198 342 198 342 131 342 c 128,-1,25
 64 342 64 342 32 384 c 128,-1,26
 0 426 0 426 0 486 c 0,27,28
 0 580 0 580 84 640 c 128,-1,29
 168 700 168 700 348 700 c 2,30,-1
 476 700 l 1,31,-1
 476 625 l 1,32,-1
 389 625 l 1,33,-1
 389 356 l 1,34,-1
 463 390 l 1,35,-1
 656 625 l 1,36,-1
 608 625 l 1,37,-1
 608 700 l 1,38,-1
 835 700 l 1,39,-1
 835 625 l 1,40,-1
 760 625 l 1,41,-1
 541 367 l 1,42,-1
 666 140 l 1,43,44
 691 99 691 99 709.5 81.5 c 128,-1,45
 728 64 728 64 754 64 c 128,-1,46
 780 64 780 64 799.5 84.5 c 128,-1,47
 819 105 819 105 819 140 c 1,0,-1
207 0 m 1,48,-1
 207 75 l 1,49,-1
 304 75 l 1,50,-1
 304 0 l 1,51,-1
 207 0 l 1,48,-1
EndSplineSet
EndChar

StartChar: L
Encoding: 76 76 47
Width: 764
GlyphClass: 2
Flags: W
LayerCount: 2
Fore
SplineSet
389 625 m 1,0,-1
 389 75 l 1,1,-1
 668 75 l 1,2,-1
 668 190 l 1,3,-1
 738 190 l 1,4,-1
 738 0 l 1,5,-1
 207 0 l 1,6,-1
 207 75 l 1,7,-1
 304 75 l 1,8,-1
 304 623 l 1,9,10
 181 615 181 615 130.5 582 c 128,-1,11
 80 549 80 549 80 486 c 0,12,13
 80 456 80 456 93 436.5 c 128,-1,14
 106 417 106 417 131 417 c 0,15,16
 178 417 178 417 178 496 c 1,17,-1
 258 496 l 1,18,19
 258 431 258 431 228 386.5 c 128,-1,20
 198 342 198 342 131 342 c 128,-1,21
 64 342 64 342 32 384 c 128,-1,22
 0 426 0 426 0 486 c 0,23,24
 0 580 0 580 84 640 c 128,-1,25
 168 700 168 700 348 700 c 2,26,-1
 476 700 l 1,27,-1
 476 625 l 1,28,-1
 389 625 l 1,0,-1
EndSplineSet
EndChar

StartChar: M
Encoding: 77 77 48
Width: 1052
GlyphClass: 2
Flags: W
LayerCount: 2
Fore
SplineSet
1032 700 m 1,0,-1
 1032 625 l 1,1,-1
 935 625 l 1,2,-1
 935 75 l 1,3,-1
 1032 75 l 1,4,-1
 1032 0 l 1,5,-1
 763 0 l 1,6,-1
 763 75 l 1,7,-1
 850 75 l 1,8,-1
 850 497 l 1,9,-1
 663 60 l 1,10,-1
 593 60 l 1,11,-1
 406 497 l 1,12,-1
 406 75 l 1,13,-1
 493 75 l 1,14,-1
 493 0 l 1,15,-1
 224 0 l 1,16,-1
 224 75 l 1,17,-1
 321 75 l 1,18,-1
 321 623 l 1,19,20
 189 617 189 617 134.5 583.5 c 128,-1,21
 80 550 80 550 80 486 c 0,22,23
 80 456 80 456 93 436.5 c 128,-1,24
 106 417 106 417 131 417 c 0,25,26
 178 417 178 417 178 496 c 1,27,-1
 258 496 l 1,28,29
 258 431 258 431 228 386.5 c 128,-1,30
 198 342 198 342 131 342 c 128,-1,31
 64 342 64 342 32 384 c 128,-1,32
 0 426 0 426 0 486 c 0,33,34
 0 584 0 584 93 642 c 128,-1,35
 186 700 186 700 389 700 c 2,36,-1
 406 700 l 1,37,-1
 628 175 l 1,38,-1
 850 700 l 1,39,-1
 1032 700 l 1,0,-1
EndSplineSet
EndChar

StartChar: N
Encoding: 78 78 49
Width: 933
GlyphClass: 2
Flags: W
LayerCount: 2
Fore
SplineSet
257 710 m 0,0,1
 336 710 336 710 382 682 c 128,-1,2
 428 654 428 654 472 583 c 2,3,-1
 741 150 l 1,4,-1
 741 625 l 1,5,-1
 654 625 l 1,6,-1
 654 700 l 1,7,-1
 923 700 l 1,8,-1
 923 625 l 1,9,-1
 826 625 l 1,10,-1
 826 0 l 1,11,-1
 741 0 l 1,12,-1
 388 564 l 1,13,-1
 388 75 l 1,14,-1
 475 75 l 1,15,-1
 475 0 l 1,16,-1
 206 0 l 1,17,-1
 206 75 l 1,18,-1
 303 75 l 1,19,-1
 303 629 l 1,20,21
 276 635 276 635 249 635 c 0,22,23
 177 635 177 635 128.5 597 c 128,-1,24
 80 559 80 559 80 496 c 0,25,26
 80 466 80 466 93 446.5 c 128,-1,27
 106 427 106 427 131 427 c 0,28,29
 178 427 178 427 178 506 c 1,30,-1
 258 506 l 1,31,32
 258 441 258 441 228 396.5 c 128,-1,33
 198 352 198 352 131 352 c 128,-1,34
 64 352 64 352 32 394 c 128,-1,35
 0 436 0 436 0 496 c 0,36,37
 0 591 0 591 67.5 650.5 c 128,-1,38
 135 710 135 710 257 710 c 0,0,1
EndSplineSet
EndChar

StartChar: O
Encoding: 79 79 50
Width: 710
GlyphClass: 2
Flags: W
LayerCount: 2
Fore
SplineSet
515 330.5 m 128,-1,1
 485 286 485 286 418 286 c 128,-1,2
 351 286 351 286 319 328 c 128,-1,3
 287 370 287 370 287 430 c 0,4,5
 287 512 287 512 343 563.5 c 128,-1,6
 399 615 399 615 474 615 c 0,7,8
 546 615 546 615 606 561 c 0,9,10
 637 533 637 533 656 479 c 128,-1,11
 675 425 675 425 675 352 c 0,12,13
 675 193 675 193 589 91.5 c 128,-1,14
 503 -10 503 -10 355 -10 c 128,-1,15
 207 -10 207 -10 121 91.5 c 128,-1,16
 35 193 35 193 35 350 c 128,-1,17
 35 507 35 507 121 608.5 c 128,-1,18
 207 710 207 710 355 710 c 1,19,-1
 355 635 l 1,20,21
 251 635 251 635 188 554.5 c 128,-1,22
 125 474 125 474 125 350 c 128,-1,23
 125 226 125 226 188 145.5 c 128,-1,24
 251 65 251 65 355 65 c 128,-1,25
 459 65 459 65 522 145.5 c 128,-1,26
 585 226 585 226 585 340.5 c 128,-1,27
 585 455 585 455 552 497.5 c 128,-1,28
 519 540 519 540 475 540 c 128,-1,29
 431 540 431 540 399 509 c 128,-1,30
 367 478 367 478 367 430 c 0,31,32
 367 400 367 400 380 380.5 c 128,-1,33
 393 361 393 361 418 361 c 0,34,35
 465 361 465 361 465 440 c 1,36,-1
 545 440 l 1,37,0
 545 375 545 375 515 330.5 c 128,-1,1
EndSplineSet
EndChar

StartChar: P
Encoding: 80 80 51
Width: 777
GlyphClass: 2
Flags: W
LayerCount: 2
Fore
SplineSet
389 75 m 1,0,-1
 506 75 l 1,1,-1
 506 0 l 1,2,-1
 207 0 l 1,3,-1
 207 75 l 1,4,-1
 304 75 l 1,5,-1
 304 632 l 1,6,7
 182 623 182 623 131 589 c 128,-1,8
 80 555 80 555 80 496 c 0,9,10
 80 466 80 466 93 446.5 c 128,-1,11
 106 427 106 427 131 427 c 0,12,13
 178 427 178 427 178 506 c 1,14,-1
 258 506 l 1,15,16
 258 441 258 441 228 396.5 c 128,-1,17
 198 352 198 352 131 352 c 128,-1,18
 64 352 64 352 32 394 c 128,-1,19
 0 436 0 436 0 496 c 0,20,21
 0 594 0 594 93 652 c 128,-1,22
 186 710 186 710 377 710 c 128,-1,23
 568 710 568 710 655 646.5 c 128,-1,24
 742 583 742 583 742 478.5 c 128,-1,25
 742 374 742 374 678.5 315.5 c 128,-1,26
 615 257 615 257 518 257 c 0,27,28
 443 257 443 257 389 280 c 1,29,-1
 389 75 l 1,0,-1
389 635 m 1,30,-1
 389 354 l 1,31,32
 436 332 436 332 518 332 c 0,33,34
 575 332 575 332 616 372.5 c 128,-1,35
 657 413 657 413 657 476 c 0,36,37
 657 553 657 553 595 594 c 128,-1,38
 533 635 533 635 389 635 c 1,30,-1
EndSplineSet
EndChar

StartChar: Q
Encoding: 81 81 52
Width: 710
GlyphClass: 2
Flags: W
LayerCount: 2
Fore
SplineSet
515 330.5 m 128,-1,1
 485 286 485 286 418 286 c 128,-1,2
 351 286 351 286 319 328 c 128,-1,3
 287 370 287 370 287 430 c 0,4,5
 287 512 287 512 343 563.5 c 128,-1,6
 399 615 399 615 474 615 c 0,7,8
 546 615 546 615 606 561 c 0,9,10
 637 533 637 533 656 479 c 128,-1,11
 675 425 675 425 675 352 c 0,12,13
 675 217 675 217 612.5 122 c 128,-1,14
 550 27 550 27 438 0 c 1,15,-1
 659 -173 l 1,16,-1
 607 -240 l 1,17,-1
 334 -9 l 1,18,19
 195 -2 195 -2 115 98.5 c 128,-1,20
 35 199 35 199 35 353 c 128,-1,21
 35 507 35 507 121 608.5 c 128,-1,22
 207 710 207 710 355 710 c 1,23,-1
 355 635 l 1,24,25
 251 635 251 635 185.5 553 c 128,-1,26
 120 471 120 471 120 350 c 128,-1,27
 120 229 120 229 185.5 147 c 128,-1,28
 251 65 251 65 355 65 c 128,-1,29
 459 65 459 65 524.5 147 c 128,-1,30
 590 229 590 229 590 341.5 c 128,-1,31
 590 454 590 454 555 497 c 128,-1,32
 520 540 520 540 475.5 540 c 128,-1,33
 431 540 431 540 399 509 c 128,-1,34
 367 478 367 478 367 430 c 0,35,36
 367 400 367 400 380 380.5 c 128,-1,37
 393 361 393 361 418 361 c 0,38,39
 465 361 465 361 465 440 c 1,40,-1
 545 440 l 1,41,0
 545 375 545 375 515 330.5 c 128,-1,1
EndSplineSet
EndChar

StartChar: R
Encoding: 82 82 53
Width: 842
GlyphClass: 2
Flags: W
LayerCount: 2
Fore
SplineSet
761 140 m 1,0,-1
 836 140 l 1,1,2
 836 63 836 63 797 26 c 128,-1,3
 758 -11 758 -11 702 -11 c 0,4,5
 609 -11 609 -11 554 54.5 c 128,-1,6
 499 120 499 120 453 281 c 1,7,8
 425 286 425 286 389 300 c 1,9,-1
 389 75 l 1,10,-1
 476 75 l 1,11,-1
 476 0 l 1,12,-1
 207 0 l 1,13,-1
 207 75 l 1,14,-1
 304 75 l 1,15,-1
 304 632 l 1,16,17
 182 623 182 623 131 589 c 128,-1,18
 80 555 80 555 80 496 c 0,19,20
 80 466 80 466 93 446.5 c 128,-1,21
 106 427 106 427 131 427 c 0,22,23
 178 427 178 427 178 506 c 1,24,-1
 258 506 l 1,25,26
 258 441 258 441 228 396.5 c 128,-1,27
 198 352 198 352 131 352 c 128,-1,28
 64 352 64 352 32 394 c 128,-1,29
 0 436 0 436 0 496 c 0,30,31
 0 594 0 594 93 652 c 128,-1,32
 186 710 186 710 377 710 c 128,-1,33
 568 710 568 710 655 649 c 128,-1,34
 742 588 742 588 742 490.5 c 128,-1,35
 742 393 742 393 685 338 c 128,-1,36
 628 283 628 283 538 277 c 1,37,38
 571 162 571 162 608 113 c 128,-1,39
 645 64 645 64 692 64 c 0,40,41
 722 64 722 64 741.5 84.5 c 128,-1,42
 761 105 761 105 761 140 c 1,0,-1
389 635 m 1,43,-1
 389 374 l 1,44,45
 436 352 436 352 518 352 c 0,46,47
 575 352 575 352 616 389.5 c 128,-1,48
 657 427 657 427 657 486 c 0,49,50
 657 558 657 558 595 596.5 c 128,-1,51
 533 635 533 635 389 635 c 1,43,-1
EndSplineSet
EndChar

StartChar: S
Encoding: 83 83 54
Width: 535
GlyphClass: 2
Flags: W
LayerCount: 2
Fore
SplineSet
111 666 m 128,-1,1
 177 717 177 717 274 717 c 128,-1,2
 371 717 371 717 433.5 671.5 c 128,-1,3
 496 626 496 626 496 558.5 c 128,-1,4
 496 491 496 491 466.5 449.5 c 128,-1,5
 437 408 437 408 372.5 408 c 128,-1,6
 308 408 308 408 278 450 c 128,-1,7
 248 492 248 492 248 552 c 1,8,-1
 328 552 l 1,9,10
 328 483 328 483 373 483 c 0,11,12
 416 483 416 483 416 552 c 0,13,14
 416 594 416 594 377.5 618 c 128,-1,15
 339 642 339 642 277.5 642 c 128,-1,16
 216 642 216 642 172.5 613 c 128,-1,17
 129 584 129 584 129 536 c 128,-1,18
 129 488 129 488 168.5 455 c 128,-1,19
 208 422 208 422 265.5 393.5 c 128,-1,20
 323 365 323 365 332 360 c 128,-1,21
 341 355 341 355 371 339.5 c 128,-1,22
 401 324 401 324 410.5 316.5 c 128,-1,23
 420 309 420 309 441.5 293 c 128,-1,24
 463 277 463 277 471 265 c 128,-1,25
 479 253 479 253 490 236 c 0,26,27
 509 205 509 205 509 159 c 0,28,29
 509 75 509 75 439.5 33.5 c 128,-1,30
 370 -8 370 -8 247 -8 c 128,-1,31
 124 -8 124 -8 36 43 c 1,32,-1
 36 178 l 1,33,-1
 106 178 l 1,34,-1
 106 97 l 1,35,36
 173 67 173 67 251.5 67 c 128,-1,37
 330 67 330 67 376.5 95 c 128,-1,38
 423 123 423 123 423 167 c 0,39,40
 423 208 423 208 376 242 c 1,41,42
 339 267 339 267 240.5 316 c 128,-1,43
 142 365 142 365 93.5 410 c 128,-1,44
 45 455 45 455 45 527 c 0,45,0
 45 615 45 615 111 666 c 128,-1,1
EndSplineSet
EndChar

StartChar: T
Encoding: 84 84 55
Width: 706
GlyphClass: 2
Flags: W
LayerCount: 2
Fore
SplineSet
389 700 m 2,0,-1
 672 700 l 1,1,-1
 672 538 l 1,2,-1
 598 538 l 1,3,-1
 598 625 l 1,4,-1
 444 625 l 1,5,-1
 444 75 l 1,6,-1
 541 75 l 1,7,-1
 541 0 l 1,8,-1
 271 0 l 1,9,-1
 271 75 l 1,10,-1
 359 75 l 1,11,-1
 359 625 l 1,12,-1
 304 625 l 1,13,14
 181 617 181 617 130.5 583 c 128,-1,15
 80 549 80 549 80 486 c 0,16,17
 80 456 80 456 93 436.5 c 128,-1,18
 106 417 106 417 131 417 c 0,19,20
 178 417 178 417 178 496 c 1,21,-1
 258 496 l 1,22,23
 258 431 258 431 228 386.5 c 128,-1,24
 198 342 198 342 131 342 c 128,-1,25
 64 342 64 342 32 384 c 128,-1,26
 0 426 0 426 0 486 c 0,27,28
 0 584 0 584 93 642 c 128,-1,29
 186 700 186 700 389 700 c 2,0,-1
EndSplineSet
EndChar

StartChar: U
Encoding: 85 85 56
Width: 948
GlyphClass: 2
Flags: W
LayerCount: 2
Fore
SplineSet
440 113 m 128,-1,1
 491 70 491 70 571.5 70 c 128,-1,2
 652 70 652 70 704.5 113.5 c 128,-1,3
 757 157 757 157 757 220 c 2,4,-1
 757 625 l 1,5,-1
 670 625 l 1,6,-1
 670 700 l 1,7,-1
 949 700 l 1,8,-1
 949 625 l 1,9,-1
 842 625 l 1,10,-1
 842 220 l 2,11,12
 842 122 842 122 769 56 c 128,-1,13
 696 -10 696 -10 572 -10 c 128,-1,14
 448 -10 448 -10 376 55.5 c 128,-1,15
 304 121 304 121 304 220 c 2,16,-1
 304 623 l 1,17,18
 181 615 181 615 130.5 582 c 128,-1,19
 80 549 80 549 80 486 c 0,20,21
 80 456 80 456 93 436.5 c 128,-1,22
 106 417 106 417 131 417 c 0,23,24
 178 417 178 417 178 496 c 1,25,-1
 258 496 l 1,26,27
 258 431 258 431 228 386.5 c 128,-1,28
 198 342 198 342 131 342 c 128,-1,29
 64 342 64 342 32 384 c 128,-1,30
 0 426 0 426 0 486 c 0,31,32
 0 584 0 584 93 642 c 128,-1,33
 186 700 186 700 389 700 c 2,34,-1
 476 700 l 1,35,-1
 476 625 l 1,36,-1
 389 625 l 1,37,-1
 389 220 l 2,38,0
 389 156 389 156 440 113 c 128,-1,1
EndSplineSet
EndChar

StartChar: V
Encoding: 86 86 57
Width: 841
GlyphClass: 2
Flags: W
LayerCount: 2
Fore
SplineSet
841 700 m 1,0,-1
 841 625 l 1,1,-1
 777 625 l 1,2,-1
 568 0 l 1,3,-1
 480 0 l 1,4,-1
 272 626 l 1,5,6
 168 615 168 615 124 582.5 c 128,-1,7
 80 550 80 550 80 492 c 0,8,9
 80 462 80 462 93 442.5 c 128,-1,10
 106 423 106 423 131 423 c 0,11,12
 178 423 178 423 178 502 c 1,13,-1
 258 502 l 1,14,15
 258 437 258 437 228 392.5 c 128,-1,16
 198 348 198 348 131 348 c 128,-1,17
 64 348 64 348 32 390 c 128,-1,18
 0 432 0 432 0 492 c 0,19,20
 0 590 0 590 93 648 c 128,-1,21
 186 706 186 706 389 706 c 2,22,-1
 429 706 l 1,23,-1
 429 631 l 1,24,-1
 358 631 l 1,25,-1
 524 126 l 1,26,-1
 689 625 l 1,27,-1
 619 625 l 1,28,-1
 619 700 l 1,29,-1
 841 700 l 1,0,-1
EndSplineSet
EndChar

StartChar: W
Encoding: 87 87 58
Width: 1189
GlyphClass: 2
Flags: W
LayerCount: 2
Fore
SplineSet
80 492 m 0,0,1
 80 462 80 462 93 442.5 c 128,-1,2
 106 423 106 423 131 423 c 0,3,4
 178 423 178 423 178 502 c 1,5,-1
 258 502 l 1,6,7
 258 437 258 437 228 392.5 c 128,-1,8
 198 348 198 348 131 348 c 128,-1,9
 64 348 64 348 32 390 c 128,-1,10
 0 432 0 432 0 492 c 0,11,12
 0 590 0 590 93 648 c 128,-1,13
 186 706 186 706 389 706 c 2,14,-1
 468 706 l 1,15,-1
 468 631 l 1,16,-1
 394 631 l 1,17,-1
 528 123 l 1,18,-1
 674 700 l 1,19,-1
 762 700 l 1,20,-1
 907 123 l 1,21,-1
 1039 625 l 1,22,-1
 967 625 l 1,23,-1
 967 700 l 1,24,-1
 1189 700 l 1,25,-1
 1189 625 l 1,26,-1
 1127 625 l 1,27,-1
 956 0 l 1,28,-1
 868 0 l 1,29,-1
 718 541 l 1,30,-1
 568 0 l 1,31,-1
 480 0 l 1,32,-1
 307 629 l 1,33,34
 182 621 182 621 131 588 c 128,-1,35
 80 555 80 555 80 492 c 0,0,1
EndSplineSet
EndChar

StartChar: X
Encoding: 88 88 59
Width: 762
GlyphClass: 2
Flags: W
LayerCount: 2
Fore
SplineSet
391 704 m 1,0,-1
 391 628 l 1,1,-1
 340 628 l 1,2,-1
 465 428 l 1,3,-1
 587 625 l 1,4,-1
 522 625 l 1,5,-1
 522 700 l 1,6,-1
 744 700 l 1,7,-1
 744 625 l 1,8,-1
 685 625 l 1,9,-1
 519 360 l 1,10,-1
 698 75 l 1,11,-1
 761 75 l 1,12,-1
 761 0 l 1,13,-1
 539 0 l 1,14,-1
 539 75 l 1,15,-1
 600 75 l 1,16,-1
 465 294 l 1,17,-1
 329 75 l 1,18,-1
 388 75 l 1,19,-1
 388 0 l 1,20,-1
 166 0 l 1,21,-1
 166 75 l 1,22,-1
 232 75 l 1,23,-1
 410 360 l 1,24,-1
 247 621 l 1,25,26
 157 609 157 609 119.5 577 c 128,-1,27
 82 545 82 545 82 490 c 0,28,29
 82 460 82 460 95 440.5 c 128,-1,30
 108 421 108 421 133 421 c 0,31,32
 180 421 180 421 180 500 c 1,33,-1
 260 500 l 1,34,35
 260 435 260 435 230 390.5 c 128,-1,36
 200 346 200 346 133 346 c 128,-1,37
 66 346 66 346 34 388 c 128,-1,38
 2 430 2 430 2 490 c 0,39,40
 2 588 2 588 95 646 c 128,-1,41
 188 704 188 704 391 704 c 1,0,-1
EndSplineSet
EndChar

StartChar: Y
Encoding: 89 89 60
Width: 745
GlyphClass: 2
Flags: W
LayerCount: 2
Fore
SplineSet
389 704 m 1,0,-1
 389 629 l 1,1,-1
 334 629 l 1,2,-1
 465 388 l 1,3,-1
 592 625 l 1,4,-1
 522 625 l 1,5,-1
 522 700 l 1,6,-1
 744 700 l 1,7,-1
 744 625 l 1,8,-1
 689 625 l 1,9,-1
 507 303 l 1,10,-1
 507 75 l 1,11,-1
 604 75 l 1,12,-1
 604 0 l 1,13,-1
 334 0 l 1,14,-1
 334 75 l 1,15,-1
 422 75 l 1,16,-1
 422 303 l 1,17,-1
 242 620 l 1,18,19
 154 608 154 608 117 576 c 128,-1,20
 80 544 80 544 80 490 c 0,21,22
 80 460 80 460 93 440.5 c 128,-1,23
 106 421 106 421 131 421 c 0,24,25
 178 421 178 421 178 500 c 1,26,-1
 258 500 l 1,27,28
 258 435 258 435 228 390.5 c 128,-1,29
 198 346 198 346 131 346 c 128,-1,30
 64 346 64 346 32 388 c 128,-1,31
 0 430 0 430 0 490 c 0,32,33
 0 588 0 588 93 646 c 128,-1,34
 186 704 186 704 389 704 c 1,0,-1
EndSplineSet
EndChar

StartChar: Z
Encoding: 90 90 61
Width: 664
GlyphClass: 2
Flags: W
LayerCount: 2
Fore
SplineSet
609 700 m 1,0,-1
 609 645 l 1,1,-1
 231 75 l 1,2,-1
 542 75 l 1,3,-1
 542 144 l 1,4,-1
 612 144 l 1,5,-1
 612 0 l 1,6,-1
 115 0 l 1,7,-1
 115 55 l 1,8,-1
 492 625 l 1,9,-1
 389 625 l 2,10,11
 217 625 217 625 148.5 591.5 c 128,-1,12
 80 558 80 558 80 486 c 0,13,14
 80 456 80 456 93 436.5 c 128,-1,15
 106 417 106 417 131 417 c 0,16,17
 178 417 178 417 178 496 c 1,18,-1
 258 496 l 1,19,20
 258 431 258 431 228 386.5 c 128,-1,21
 198 342 198 342 131 342 c 128,-1,22
 64 342 64 342 32 384 c 128,-1,23
 0 426 0 426 0 486 c 0,24,25
 0 584 0 584 93 642 c 128,-1,26
 186 700 186 700 389 700 c 2,27,-1
 609 700 l 1,0,-1
EndSplineSet
EndChar

StartChar: bracketleft
Encoding: 91 91 62
Width: 243
GlyphClass: 2
Flags: W
LayerCount: 2
Fore
SplineSet
203 795 m 1,0,-1
 203 730 l 1,1,-1
 115 730 l 1,2,-1
 115 -135 l 1,3,-1
 203 -135 l 1,4,-1
 203 -200 l 1,5,-1
 40 -200 l 1,6,-1
 40 795 l 1,7,-1
 203 795 l 1,0,-1
EndSplineSet
EndChar

StartChar: backslash
Encoding: 92 92 63
Width: 375
GlyphClass: 2
Flags: W
LayerCount: 2
Fore
SplineSet
75 700 m 1,0,-1
 365 -30 l 1,1,-1
 300 -30 l 1,2,-1
 10 700 l 1,3,-1
 75 700 l 1,0,-1
EndSplineSet
EndChar

StartChar: bracketright
Encoding: 93 93 64
Width: 243
GlyphClass: 2
Flags: W
LayerCount: 2
Fore
SplineSet
40 730 m 1,0,-1
 40 795 l 1,1,-1
 203 795 l 1,2,-1
 203 -200 l 1,3,-1
 40 -200 l 1,4,-1
 40 -135 l 1,5,-1
 128 -135 l 1,6,-1
 128 730 l 1,7,-1
 40 730 l 1,0,-1
EndSplineSet
EndChar

StartChar: asciicircum
Encoding: 94 94 65
Width: 387
GlyphClass: 2
Flags: W
LayerCount: 2
Fore
SplineSet
221 700 m 1,0,-1
 376 425 l 1,1,-1
 313 425 l 1,2,-1
 194 629 l 1,3,-1
 75 425 l 1,4,-1
 13 425 l 1,5,-1
 167 700 l 1,6,-1
 221 700 l 1,0,-1
EndSplineSet
EndChar

StartChar: underscore
Encoding: 95 95 66
Width: 530
GlyphClass: 2
Flags: W
LayerCount: 2
Fore
SplineSet
530 -57 m 1,0,-1
 0 -57 l 1,1,-1
 0 0 l 1,2,-1
 530 0 l 1,3,-1
 530 -57 l 1,0,-1
EndSplineSet
EndChar

StartChar: grave
Encoding: 96 96 67
Width: 291
GlyphClass: 2
Flags: W
LayerCount: 2
Fore
SplineSet
168 760 m 1,0,-1
 44 921 l 1,1,-1
 115 968 l 1,2,-1
 212 786 l 1,3,-1
 168 760 l 1,0,-1
EndSplineSet
EndChar

StartChar: a
Encoding: 97 97 68
Width: 522
GlyphClass: 2
Flags: W
LayerCount: 2
Fore
SplineSet
177 -10 m 0,0,1
 108 -10 108 -10 69 29.5 c 128,-1,2
 30 69 30 69 30 135.5 c 128,-1,3
 30 202 30 202 82 247 c 128,-1,4
 134 292 134 292 236 292 c 2,5,-1
 345 292 l 1,6,-1
 345 343 l 2,7,8
 345 435 345 435 257 435 c 0,9,10
 183 435 183 435 121 417 c 1,11,-1
 121 350 l 1,12,-1
 51 350 l 1,13,-1
 51 469 l 1,14,15
 96 488 96 488 157.5 499 c 128,-1,16
 219 510 219 510 260 510 c 0,17,18
 340 510 340 510 385 464.5 c 128,-1,19
 430 419 430 419 430 343 c 2,20,-1
 430 60 l 1,21,-1
 512 60 l 1,22,-1
 512 18 l 1,23,24
 475 -5 475 -5 427 -5 c 128,-1,25
 379 -5 379 -5 362 11 c 128,-1,26
 345 27 345 27 345 65 c 1,27,28
 270 -10 270 -10 177 -10 c 0,0,1
186 65 m 0,29,30
 272 65 272 65 345 162 c 1,31,-1
 345 226 l 1,32,-1
 235 226 l 2,33,34
 174 226 174 226 144.5 202 c 128,-1,35
 115 178 115 178 115 141.5 c 128,-1,36
 115 105 115 105 133 85 c 128,-1,37
 151 65 151 65 186 65 c 0,29,30
EndSplineSet
EndChar

StartChar: b
Encoding: 98 98 69
Width: 552
GlyphClass: 2
Flags: W
LayerCount: 2
Fore
SplineSet
87 685 m 1,0,-1
 10 685 l 1,1,-1
 10 750 l 1,2,-1
 172 750 l 1,3,-1
 172 445 l 1,4,5
 231 510 231 510 323.5 510 c 128,-1,6
 416 510 416 510 466.5 436.5 c 128,-1,7
 517 363 517 363 517 249.5 c 128,-1,8
 517 136 517 136 454 63 c 128,-1,9
 391 -10 391 -10 271 -10 c 0,10,11
 184 -10 184 -10 87 20 c 1,12,-1
 87 685 l 1,0,-1
307 435 m 128,-1,14
 247 435 247 435 209.5 388 c 128,-1,15
 172 341 172 341 172 275 c 2,16,-1
 172 82 l 1,17,18
 223 65 223 65 263 65 c 0,19,20
 346 65 346 65 389 116 c 128,-1,21
 432 167 432 167 432 247 c 128,-1,22
 432 327 432 327 399.5 381 c 128,-1,13
 367 435 367 435 307 435 c 128,-1,14
EndSplineSet
EndChar

StartChar: c
Encoding: 99 99 70
Width: 465
GlyphClass: 2
Flags: W
LayerCount: 2
Fore
SplineSet
95.5 436.5 m 128,-1,1
 156 510 156 510 257 510 c 128,-1,2
 358 510 358 510 426 469 c 1,3,-1
 426 350 l 1,4,-1
 356 350 l 1,5,-1
 356 417 l 1,6,7
 313 435 313 435 265 435 c 0,8,9
 196 435 196 435 158 383 c 128,-1,10
 120 331 120 331 120 250 c 128,-1,11
 120 169 120 169 158 117 c 128,-1,12
 196 65 196 65 265 65 c 0,13,14
 304 65 304 65 336 74.5 c 128,-1,15
 368 84 368 84 379 90.5 c 128,-1,16
 390 97 390 97 413 113 c 1,17,-1
 450 57 l 1,18,19
 379 -10 379 -10 267.5 -10 c 128,-1,20
 156 -10 156 -10 95.5 63.5 c 128,-1,21
 35 137 35 137 35 250 c 128,-1,0
 35 363 35 363 95.5 436.5 c 128,-1,1
EndSplineSet
EndChar

StartChar: d
Encoding: 100 100 71
Width: 557
GlyphClass: 2
Flags: W
LayerCount: 2
Fore
SplineSet
465 750 m 1,0,-1
 465 60 l 1,1,-1
 547 60 l 1,2,-1
 547 18 l 1,3,4
 510 -5 510 -5 463 -5 c 128,-1,5
 416 -5 416 -5 398.5 8.5 c 128,-1,6
 381 22 381 22 380 55 c 1,7,8
 321 -10 321 -10 229 -10 c 128,-1,9
 137 -10 137 -10 86 62.5 c 128,-1,10
 35 135 35 135 35 248.5 c 128,-1,11
 35 362 35 362 95 436 c 128,-1,12
 155 510 155 510 266 510 c 0,13,14
 320 510 320 510 380 489 c 1,15,-1
 380 685 l 1,16,-1
 303 685 l 1,17,-1
 303 750 l 1,18,-1
 465 750 l 1,0,-1
153 118 m 128,-1,20
 186 65 186 65 245.5 65 c 128,-1,21
 305 65 305 65 342.5 112 c 128,-1,22
 380 159 380 159 380 225 c 2,23,-1
 380 403 l 1,24,25
 327 435 327 435 265.5 435 c 128,-1,26
 204 435 204 435 162 385.5 c 128,-1,27
 120 336 120 336 120 253.5 c 128,-1,19
 120 171 120 171 153 118 c 128,-1,20
EndSplineSet
EndChar

StartChar: e
Encoding: 101 101 72
Width: 503
GlyphClass: 2
Flags: W
LayerCount: 2
Fore
SplineSet
473 284 m 2,0,-1
 473 231 l 1,1,-1
 120 231 l 1,2,3
 125 158 125 158 163 111.5 c 128,-1,4
 201 65 201 65 265 65 c 0,5,6
 307 65 307 65 340.5 74 c 128,-1,7
 374 83 374 83 387 90.5 c 128,-1,8
 400 98 400 98 423 113 c 1,9,-1
 460 57 l 1,10,11
 384 -10 384 -10 270 -10 c 128,-1,12
 156 -10 156 -10 95.5 63.5 c 128,-1,13
 35 137 35 137 35 250 c 128,-1,14
 35 363 35 363 95.5 436.5 c 128,-1,15
 156 510 156 510 260.5 510 c 128,-1,16
 365 510 365 510 419 447 c 128,-1,17
 473 384 473 384 473 284 c 2,0,-1
351.5 399 m 128,-1,19
 321 435 321 435 264.5 435 c 128,-1,20
 208 435 208 435 172 398.5 c 128,-1,21
 136 362 136 362 124 302 c 1,22,-1
 388 302 l 1,23,18
 382 363 382 363 351.5 399 c 128,-1,19
EndSplineSet
EndChar

StartChar: f
Encoding: 102 102 73
Width: 357
GlyphClass: 2
Flags: W
LayerCount: 2
Fore
SplineSet
290 758 m 0,0,1
 329 758 329 758 385 750 c 1,2,-1
 385 616 l 1,3,-1
 315 616 l 1,4,-1
 315 682 l 1,5,-1
 290 683 l 1,6,7
 226 683 226 683 204.5 651 c 128,-1,8
 183 619 183 619 183 546 c 2,9,-1
 183 500 l 1,10,-1
 342 500 l 1,11,-1
 342 435 l 1,12,-1
 183 435 l 1,13,-1
 183 65 l 1,14,-1
 270 65 l 1,15,-1
 270 0 l 1,16,-1
 20 0 l 1,17,-1
 20 65 l 1,18,-1
 98 65 l 1,19,-1
 98 435 l 1,20,-1
 21 435 l 1,21,-1
 21 490 l 1,22,-1
 98 500 l 1,23,-1
 98 546 l 2,24,25
 98 651 98 651 140.5 704.5 c 128,-1,26
 183 758 183 758 290 758 c 0,0,1
EndSplineSet
EndChar

StartChar: g
Encoding: 103 103 74
Width: 509
GlyphClass: 2
Flags: W
LayerCount: 2
Fore
SplineSet
448.5 30.5 m 128,-1,1
 490 -6 490 -6 490 -69.5 c 128,-1,2
 490 -133 490 -133 422.5 -178.5 c 128,-1,3
 355 -224 355 -224 230 -224 c 0,4,5
 140 -224 140 -224 90 -181.5 c 128,-1,6
 40 -139 40 -139 40 -69.5 c 128,-1,7
 40 0 40 0 113 41 c 1,8,9
 44 62 44 62 44 119 c 128,-1,10
 44 176 44 176 106 197 c 1,11,12
 50 247 50 247 50 327.5 c 128,-1,13
 50 408 50 408 102.5 459 c 128,-1,14
 155 510 155 510 250 510 c 0,15,16
 309 510 309 510 355 488 c 1,17,-1
 523 488 l 1,18,-1
 523 416 l 1,19,-1
 429 416 l 1,20,21
 450 377 450 377 450 330 c 0,22,23
 450 252 450 252 397.5 201 c 128,-1,24
 345 150 345 150 250 150 c 2,25,-1
 164 150 l 2,26,27
 129 150 129 150 129 123 c 0,28,29
 129 101 129 101 164 96 c 2,30,-1
 330 76 l 2,31,0
 407 67 407 67 448.5 30.5 c 128,-1,1
165.5 405 m 128,-1,33
 135 375 135 375 135 329.5 c 128,-1,34
 135 284 135 284 165.5 254.5 c 128,-1,35
 196 225 196 225 250 225 c 128,-1,36
 304 225 304 225 334.5 254.5 c 128,-1,37
 365 284 365 284 365 329.5 c 128,-1,38
 365 375 365 375 334.5 405 c 128,-1,39
 304 435 304 435 250 435 c 128,-1,32
 196 435 196 435 165.5 405 c 128,-1,33
148.5 -19 m 128,-1,41
 125 -45 125 -45 125 -75.5 c 128,-1,42
 125 -106 125 -106 153 -127.5 c 128,-1,43
 181 -149 181 -149 230 -149 c 0,44,45
 310 -149 310 -149 357.5 -124.5 c 128,-1,46
 405 -100 405 -100 405 -64 c 0,47,48
 405 -8 405 -8 330 1 c 2,49,-1
 207 15 l 1,50,40
 172 7 172 7 148.5 -19 c 128,-1,41
EndSplineSet
EndChar

StartChar: h
Encoding: 104 104 75
Width: 610
GlyphClass: 2
Flags: W
LayerCount: 2
Fore
SplineSet
182 65 m 1,0,-1
 269 65 l 1,1,-1
 269 0 l 1,2,-1
 20 0 l 1,3,-1
 20 65 l 1,4,-1
 97 65 l 1,5,-1
 97 685 l 1,6,-1
 20 685 l 1,7,-1
 20 750 l 1,8,-1
 182 750 l 1,9,-1
 182 451 l 1,10,11
 285 510 285 510 369 510 c 128,-1,12
 453 510 453 510 485.5 459 c 128,-1,13
 518 408 518 408 518 318 c 2,14,-1
 518 60 l 1,15,-1
 600 60 l 1,16,-1
 600 18 l 1,17,18
 563 -5 563 -5 514.5 -5 c 128,-1,19
 466 -5 466 -5 449.5 11.5 c 128,-1,20
 433 28 433 28 433 65 c 2,21,-1
 433 318 l 2,22,23
 433 376 433 376 418 405.5 c 128,-1,24
 403 435 403 435 349 435 c 128,-1,25
 295 435 295 435 182 375 c 1,26,-1
 182 65 l 1,0,-1
EndSplineSet
EndChar

StartChar: i
Encoding: 105 105 76
Width: 315
GlyphClass: 2
Flags: W
LayerCount: 2
Fore
SplineSet
41 435 m 1,0,-1
 41 500 l 1,1,-1
 203 500 l 1,2,-1
 203 65 l 1,3,-1
 290 65 l 1,4,-1
 290 0 l 1,5,-1
 40 0 l 1,6,-1
 40 65 l 1,7,-1
 118 65 l 1,8,-1
 118 435 l 1,9,-1
 41 435 l 1,0,-1
122 605 m 128,-1,11
 108 621 108 621 108 643.5 c 128,-1,12
 108 666 108 666 123.5 683 c 128,-1,13
 139 700 139 700 161 700 c 128,-1,14
 183 700 183 700 197 684 c 128,-1,15
 211 668 211 668 211 645.5 c 128,-1,16
 211 623 211 623 195.5 606 c 128,-1,17
 180 589 180 589 158 589 c 128,-1,10
 136 589 136 589 122 605 c 128,-1,11
EndSplineSet
EndChar

StartChar: j
Encoding: 106 106 77
Width: 288
GlyphClass: 2
Flags: W
LayerCount: 2
Fore
SplineSet
56 434 m 1,0,-1
 56 499 l 1,1,-1
 218 499 l 1,2,-1
 218 25 l 2,3,4
 218 -88 218 -88 164.5 -156.5 c 128,-1,5
 111 -225 111 -225 -3 -225 c 1,6,-1
 -3 -151 l 1,7,8
 67 -151 67 -151 100 -107.5 c 128,-1,9
 133 -64 133 -64 133 25 c 2,10,-1
 133 434 l 1,11,-1
 56 434 l 1,0,-1
132 605 m 128,-1,13
 118 621 118 621 118 643.5 c 128,-1,14
 118 666 118 666 133.5 683 c 128,-1,15
 149 700 149 700 171 700 c 128,-1,16
 193 700 193 700 207 684 c 128,-1,17
 221 668 221 668 221 645.5 c 128,-1,18
 221 623 221 623 205.5 606 c 128,-1,19
 190 589 190 589 168 589 c 128,-1,12
 146 589 146 589 132 605 c 128,-1,13
EndSplineSet
EndChar

StartChar: k
Encoding: 107 107 78
Width: 536
GlyphClass: 2
Flags: W
LayerCount: 2
Fore
SplineSet
172 65 m 1,0,-1
 249 65 l 1,1,-1
 249 0 l 1,2,-1
 10 0 l 1,3,-1
 10 65 l 1,4,-1
 87 65 l 1,5,-1
 87 685 l 1,6,-1
 10 685 l 1,7,-1
 10 750 l 1,8,-1
 172 750 l 1,9,-1
 172 281 l 1,10,-1
 233 303 l 1,11,-1
 351 435 l 1,12,-1
 314 435 l 1,13,-1
 314 500 l 1,14,-1
 502 500 l 1,15,-1
 502 435 l 1,16,-1
 459 435 l 1,17,-1
 301 263 l 1,18,-1
 460 60 l 1,19,-1
 536 60 l 1,20,-1
 536 18 l 1,21,22
 514 5 514 5 497 0 c 128,-1,23
 480 -5 480 -5 443 -5 c 128,-1,24
 406 -5 406 -5 377 33 c 2,25,-1
 233 222 l 1,26,-1
 172 200 l 1,27,-1
 172 65 l 1,0,-1
EndSplineSet
EndChar

StartChar: l
Encoding: 108 108 79
Width: 295
GlyphClass: 2
Flags: W
LayerCount: 2
Fore
SplineSet
21 685 m 1,0,-1
 21 750 l 1,1,-1
 183 750 l 1,2,-1
 183 65 l 1,3,-1
 270 65 l 1,4,-1
 270 0 l 1,5,-1
 20 0 l 1,6,-1
 20 65 l 1,7,-1
 98 65 l 1,8,-1
 98 685 l 1,9,-1
 21 685 l 1,0,-1
EndSplineSet
EndChar

StartChar: m
Encoding: 109 109 80
Width: 892
GlyphClass: 2
Flags: W
LayerCount: 2
Fore
SplineSet
336 0 m 1,0,-1
 336 65 l 1,1,-1
 413 65 l 1,2,-1
 413 318 l 2,3,4
 413 376 413 376 398 405.5 c 128,-1,5
 383 435 383 435 329.5 435 c 128,-1,6
 276 435 276 435 182 385 c 1,7,-1
 182 65 l 1,8,-1
 259 65 l 1,9,-1
 259 0 l 1,10,-1
 20 0 l 1,11,-1
 20 65 l 1,12,-1
 97 65 l 1,13,-1
 97 435 l 1,14,-1
 20 435 l 1,15,-1
 20 500 l 1,16,-1
 163 500 l 1,17,-1
 173 455 l 1,18,19
 274 510 274 510 354.5 510 c 128,-1,20
 435 510 435 510 470 452 c 1,21,22
 573 510 573 510 654 510 c 128,-1,23
 735 510 735 510 767.5 459 c 128,-1,24
 800 408 800 408 800 318 c 2,25,-1
 800 60 l 1,26,-1
 882 60 l 1,27,-1
 882 18 l 1,28,29
 845 -5 845 -5 796.5 -5 c 128,-1,30
 748 -5 748 -5 731.5 11.5 c 128,-1,31
 715 28 715 28 715 65 c 2,32,-1
 715 318 l 2,33,34
 715 376 715 376 700 405.5 c 128,-1,35
 685 435 685 435 633.5 435 c 128,-1,36
 582 435 582 435 492 390 c 1,37,38
 498 357 498 357 498 318 c 2,39,-1
 498 65 l 1,40,-1
 585 65 l 1,41,-1
 585 0 l 1,42,-1
 336 0 l 1,0,-1
EndSplineSet
EndChar

StartChar: n
Encoding: 110 110 81
Width: 610
GlyphClass: 2
Flags: W
LayerCount: 2
Fore
SplineSet
182 65 m 1,0,-1
 269 65 l 1,1,-1
 269 0 l 1,2,-1
 20 0 l 1,3,-1
 20 65 l 1,4,-1
 97 65 l 1,5,-1
 97 435 l 1,6,-1
 20 435 l 1,7,-1
 20 500 l 1,8,-1
 163 500 l 1,9,-1
 175 447 l 1,10,11
 209 466 209 466 230 476.5 c 128,-1,12
 251 487 251 487 290.5 498.5 c 128,-1,13
 330 510 330 510 367 510 c 0,14,15
 453 510 453 510 485.5 459 c 128,-1,16
 518 408 518 408 518 318 c 2,17,-1
 518 60 l 1,18,-1
 600 60 l 1,19,-1
 600 18 l 1,20,21
 563 -5 563 -5 514.5 -5 c 128,-1,22
 466 -5 466 -5 449.5 11.5 c 128,-1,23
 433 28 433 28 433 65 c 2,24,-1
 433 318 l 2,25,26
 433 376 433 376 418 405.5 c 128,-1,27
 403 435 403 435 349 435 c 128,-1,28
 295 435 295 435 182 375 c 1,29,-1
 182 65 l 1,0,-1
EndSplineSet
EndChar

StartChar: o
Encoding: 111 111 82
Width: 550
GlyphClass: 2
Flags: W
LayerCount: 2
Fore
SplineSet
35 250 m 128,-1,1
 35 363 35 363 98 436.5 c 128,-1,2
 161 510 161 510 275 510 c 128,-1,3
 389 510 389 510 452 436.5 c 128,-1,4
 515 363 515 363 515 250 c 128,-1,5
 515 137 515 137 452 63.5 c 128,-1,6
 389 -10 389 -10 275 -10 c 128,-1,7
 161 -10 161 -10 98 63.5 c 128,-1,0
 35 137 35 137 35 250 c 128,-1,1
120 250 m 128,-1,9
 120 169 120 169 161 117 c 128,-1,10
 202 65 202 65 275 65 c 128,-1,11
 348 65 348 65 389 117 c 128,-1,12
 430 169 430 169 430 250 c 128,-1,13
 430 331 430 331 389 383 c 128,-1,14
 348 435 348 435 275 435 c 128,-1,15
 202 435 202 435 161 383 c 128,-1,8
 120 331 120 331 120 250 c 128,-1,9
EndSplineSet
EndChar

StartChar: p
Encoding: 112 112 83
Width: 562
GlyphClass: 2
Flags: W
LayerCount: 2
Fore
SplineSet
20 435 m 1,0,-1
 20 500 l 1,1,-1
 163 500 l 1,2,-1
 177 439 l 1,3,4
 237 510 237 510 331 510 c 128,-1,5
 425 510 425 510 476 437.5 c 128,-1,6
 527 365 527 365 527 251.5 c 128,-1,7
 527 138 527 138 467 64 c 128,-1,8
 407 -10 407 -10 296 -10 c 0,9,10
 244 -10 244 -10 182 10 c 1,11,-1
 182 -150 l 1,12,-1
 259 -150 l 1,13,-1
 259 -215 l 1,14,-1
 20 -215 l 1,15,-1
 20 -150 l 1,16,-1
 97 -150 l 1,17,-1
 97 435 l 1,18,-1
 20 435 l 1,0,-1
409 382 m 128,-1,20
 376 435 376 435 316.5 435 c 128,-1,21
 257 435 257 435 219.5 388 c 128,-1,22
 182 341 182 341 182 275 c 2,23,-1
 182 96 l 1,24,25
 236 65 236 65 289 65 c 0,26,27
 358 65 358 65 400 114.5 c 128,-1,28
 442 164 442 164 442 246.5 c 128,-1,19
 442 329 442 329 409 382 c 128,-1,20
EndSplineSet
EndChar

StartChar: q
Encoding: 113 113 84
Width: 542
GlyphClass: 2
Flags: W
LayerCount: 2
Fore
SplineSet
465 -150 m 1,0,-1
 542 -150 l 1,1,-1
 542 -215 l 1,2,-1
 293 -215 l 1,3,-1
 293 -150 l 1,4,-1
 380 -150 l 1,5,-1
 380 54 l 1,6,7
 319 -10 319 -10 227.5 -10 c 128,-1,8
 136 -10 136 -10 85.5 63.5 c 128,-1,9
 35 137 35 137 35 250.5 c 128,-1,10
 35 364 35 364 98 437 c 128,-1,11
 161 510 161 510 281 510 c 0,12,13
 368 510 368 510 465 480 c 1,14,-1
 465 -150 l 1,0,-1
245 65 m 128,-1,16
 305 65 305 65 342.5 112 c 128,-1,17
 380 159 380 159 380 225 c 2,18,-1
 380 417 l 1,19,20
 331 435 331 435 289 435 c 0,21,22
 206 435 206 435 163 384 c 128,-1,23
 120 333 120 333 120 253 c 128,-1,24
 120 173 120 173 152.5 119 c 128,-1,15
 185 65 185 65 245 65 c 128,-1,16
EndSplineSet
EndChar

StartChar: r
Encoding: 114 114 85
Width: 421
GlyphClass: 2
Flags: W
LayerCount: 2
Fore
SplineSet
182 65 m 1,0,-1
 269 65 l 1,1,-1
 269 0 l 1,2,-1
 20 0 l 1,3,-1
 20 65 l 1,4,-1
 97 65 l 1,5,-1
 97 435 l 1,6,-1
 20 435 l 1,7,-1
 20 500 l 1,8,-1
 163 500 l 1,9,-1
 175 447 l 1,10,11
 209 466 209 466 230 476.5 c 128,-1,12
 251 487 251 487 290.5 498.5 c 128,-1,13
 330 510 330 510 367 510 c 1,14,-1
 423 495 l 1,15,-1
 400 413 l 1,16,-1
 355 425 l 1,17,18
 271 425 271 425 182 383 c 1,19,-1
 182 65 l 1,0,-1
EndSplineSet
EndChar

StartChar: s
Encoding: 115 115 86
Width: 439
GlyphClass: 2
Flags: W
LayerCount: 2
Fore
SplineSet
40 144 m 1,0,-1
 110 144 l 1,1,-1
 110 81 l 1,2,3
 148 66 148 66 202.5 66 c 128,-1,4
 257 66 257 66 285.5 83.5 c 128,-1,5
 314 101 314 101 314 127 c 128,-1,6
 314 153 314 153 292.5 169.5 c 128,-1,7
 271 186 271 186 190.5 229 c 128,-1,8
 110 272 110 272 78 301.5 c 128,-1,9
 46 331 46 331 46 379 c 0,10,11
 46 441 46 441 94.5 475.5 c 128,-1,12
 143 510 143 510 227 510 c 128,-1,13
 311 510 311 510 386 469 c 1,14,-1
 386 350 l 1,15,-1
 316 350 l 1,16,-1
 316 417 l 1,17,18
 272 435 272 435 222.5 435 c 128,-1,19
 173 435 173 435 152 416.5 c 128,-1,20
 131 398 131 398 131 376 c 128,-1,21
 131 354 131 354 147 341 c 0,22,23
 174 319 174 319 244 284 c 1,24,25
 333 235 333 235 366 205 c 128,-1,26
 399 175 399 175 399 128 c 0,27,28
 399 66 399 66 346 28.5 c 128,-1,29
 293 -9 293 -9 198.5 -9 c 128,-1,30
 104 -9 104 -9 40 29 c 1,31,-1
 40 144 l 1,0,-1
EndSplineSet
EndChar

StartChar: t
Encoding: 116 116 87
Width: 371
GlyphClass: 2
Flags: W
LayerCount: 2
Fore
SplineSet
20 435 m 1,0,-1
 20 490 l 1,1,-1
 97 500 l 1,2,-1
 107 500 l 1,3,4
 139 575 139 575 150 632 c 1,5,-1
 192 632 l 1,6,-1
 192 500 l 1,7,-1
 341 500 l 1,8,-1
 341 435 l 1,9,-1
 192 435 l 1,10,-1
 192 128 l 2,11,12
 192 94 192 94 203.5 79 c 128,-1,13
 215 64 215 64 243 64 c 128,-1,14
 271 64 271 64 318 83 c 1,15,-1
 351 26 l 1,16,17
 294 -10 294 -10 229 -10 c 128,-1,18
 164 -10 164 -10 135.5 24 c 128,-1,19
 107 58 107 58 107 112 c 2,20,-1
 107 435 l 1,21,-1
 20 435 l 1,0,-1
EndSplineSet
EndChar

StartChar: u
Encoding: 117 117 88
Width: 600
GlyphClass: 2
Flags: W
LayerCount: 2
Fore
SplineSet
346 435 m 1,0,-1
 346 500 l 1,1,-1
 508 500 l 1,2,-1
 508 60 l 1,3,-1
 590 60 l 1,4,-1
 590 18 l 1,5,6
 553 -5 553 -5 491.5 -5 c 128,-1,7
 430 -5 430 -5 424 48 c 1,8,9
 319 -11 319 -11 235.5 -11 c 128,-1,10
 152 -11 152 -11 119.5 40 c 128,-1,11
 87 91 87 91 87 181 c 2,12,-1
 87 435 l 1,13,-1
 10 435 l 1,14,-1
 10 500 l 1,15,-1
 172 500 l 1,16,-1
 172 181 l 2,17,18
 172 123 172 123 187 93.5 c 128,-1,19
 202 64 202 64 256 64 c 128,-1,20
 310 64 310 64 423 124 c 1,21,-1
 423 435 l 1,22,-1
 346 435 l 1,0,-1
EndSplineSet
EndChar

StartChar: v
Encoding: 118 118 89
Width: 549
GlyphClass: 2
Flags: W
LayerCount: 2
Fore
SplineSet
327 435 m 1,0,-1
 327 500 l 1,1,-1
 539 500 l 1,2,-1
 539 435 l 1,3,-1
 477 435 l 1,4,-1
 319 0 l 1,5,-1
 231 0 l 1,6,-1
 72 435 l 1,7,-1
 10 435 l 1,8,-1
 10 500 l 1,9,-1
 222 500 l 1,10,-1
 222 435 l 1,11,-1
 159 435 l 1,12,-1
 275 95 l 1,13,-1
 391 435 l 1,14,-1
 327 435 l 1,0,-1
EndSplineSet
EndChar

StartChar: w
Encoding: 119 119 90
Width: 762
GlyphClass: 2
Flags: W
LayerCount: 2
Fore
SplineSet
742 500 m 1,0,-1
 742 435 l 1,1,-1
 685 435 l 1,2,-1
 569 0 l 1,3,-1
 481 0 l 1,4,-1
 381 374 l 1,5,-1
 281 0 l 1,6,-1
 193 0 l 1,7,-1
 76 435 l 1,8,-1
 20 435 l 1,9,-1
 20 500 l 1,10,-1
 232 500 l 1,11,-1
 232 435 l 1,12,-1
 162 435 l 1,13,-1
 242 102 l 1,14,-1
 337 500 l 1,15,-1
 425 500 l 1,16,-1
 520 102 l 1,17,-1
 599 435 l 1,18,-1
 530 435 l 1,19,-1
 530 500 l 1,20,-1
 742 500 l 1,0,-1
EndSplineSet
EndChar

StartChar: x
Encoding: 120 120 91
Width: 498
GlyphClass: 2
Flags: W
LayerCount: 2
Fore
SplineSet
290 435 m 1,0,-1
 290 500 l 1,1,-1
 463 500 l 1,2,-1
 463 435 l 1,3,-1
 412 435 l 1,4,-1
 287 252 l 1,5,-1
 414 65 l 1,6,-1
 488 65 l 1,7,-1
 488 0 l 1,8,-1
 290 0 l 1,9,-1
 290 65 l 1,10,-1
 321 65 l 1,11,-1
 235 192 l 1,12,-1
 152 65 l 1,13,-1
 179 65 l 1,14,-1
 179 0 l 1,15,-1
 10 0 l 1,16,-1
 10 65 l 1,17,-1
 58 65 l 1,18,-1
 191 258 l 1,19,-1
 72 435 l 1,20,-1
 11 435 l 1,21,-1
 11 500 l 1,22,-1
 214 500 l 1,23,-1
 214 435 l 1,24,-1
 165 435 l 1,25,-1
 243 319 l 1,26,-1
 318 435 l 1,27,-1
 290 435 l 1,0,-1
EndSplineSet
EndChar

StartChar: y
Encoding: 121 121 92
Width: 524
GlyphClass: 2
Flags: W
LayerCount: 2
Fore
SplineSet
10 435 m 1,0,-1
 10 500 l 1,1,-1
 199 500 l 1,2,-1
 199 435 l 1,3,-1
 163 435 l 1,4,-1
 275 96 l 1,5,-1
 380 435 l 1,6,-1
 334 435 l 1,7,-1
 334 500 l 1,8,-1
 514 500 l 1,9,-1
 514 435 l 1,10,-1
 467 435 l 1,11,-1
 322 0 l 2,12,13
 284 -111 284 -111 238 -168.5 c 128,-1,14
 192 -226 192 -226 110 -226 c 0,15,16
 63 -226 63 -226 10 -208 c 1,17,-1
 34 -138 l 1,18,19
 75 -150 75 -150 104 -150 c 0,20,21
 190 -150 190 -150 236 -14 c 1,22,-1
 72 435 l 1,23,-1
 10 435 l 1,0,-1
EndSplineSet
EndChar

StartChar: z
Encoding: 122 122 93
Width: 447
GlyphClass: 2
Flags: W
LayerCount: 2
Fore
SplineSet
420 144 m 1,0,-1
 420 0 l 1,1,-1
 23 0 l 1,2,-1
 23 55 l 1,3,-1
 294 425 l 1,4,-1
 105 425 l 1,5,-1
 105 352 l 1,6,-1
 35 352 l 1,7,-1
 35 500 l 1,8,-1
 412 500 l 1,9,-1
 412 445 l 1,10,-1
 140 75 l 1,11,-1
 350 75 l 1,12,-1
 350 144 l 1,13,-1
 420 144 l 1,0,-1
EndSplineSet
EndChar

StartChar: braceleft
Encoding: 123 123 94
Width: 255
GlyphClass: 2
Flags: W
LayerCount: 2
Fore
SplineSet
78 -70 m 2,0,-1
 78 210 l 2,1,2
 78 299 78 299 12 318 c 1,3,-1
 12 362 l 1,4,5
 78 381 78 381 78 470 c 2,6,-1
 78 665 l 2,7,8
 78 733 78 733 109 764 c 128,-1,9
 140 795 140 795 208 795 c 2,10,-1
 241 795 l 1,11,-1
 241 730 l 1,12,-1
 203 730 l 2,13,14
 177 730 177 730 165 718 c 128,-1,15
 153 706 153 706 153 680 c 2,16,-1
 153 480 l 2,17,18
 153 400 153 400 124 367 c 0,19,20
 109 351 109 351 87 340 c 1,21,22
 129 319 129 319 141 280.5 c 128,-1,23
 153 242 153 242 153 190 c 2,24,-1
 153 -75 l 2,25,26
 153 -135 153 -135 203 -135 c 2,27,-1
 241 -135 l 1,28,-1
 241 -200 l 1,29,-1
 208 -200 l 2,30,31
 140 -200 140 -200 109 -169 c 128,-1,32
 78 -138 78 -138 78 -70 c 2,0,-1
EndSplineSet
EndChar

StartChar: bar
Encoding: 124 124 95
Width: 225
GlyphClass: 2
Flags: W
LayerCount: 2
Fore
SplineSet
145 750 m 1,0,-1
 145 -160 l 1,1,-1
 80 -160 l 1,2,-1
 80 750 l 1,3,-1
 145 750 l 1,0,-1
EndSplineSet
EndChar

StartChar: braceright
Encoding: 125 125 96
Width: 255
GlyphClass: 2
Flags: W
LayerCount: 2
Fore
SplineSet
175 210 m 2,0,-1
 175 -70 l 2,1,2
 175 -138 175 -138 144 -169 c 128,-1,3
 113 -200 113 -200 45 -200 c 2,4,-1
 12 -200 l 1,5,-1
 12 -135 l 1,6,-1
 50 -135 l 2,7,8
 100 -135 100 -135 100 -75 c 2,9,-1
 100 190 l 2,10,11
 100 276 100 276 130 312 c 0,12,13
 144 329 144 329 166 340 c 1,14,15
 121 363 121 363 109 404 c 0,16,17
 100 437 100 437 100 480 c 2,18,-1
 100 680 l 2,19,20
 100 706 100 706 88 718 c 128,-1,21
 76 730 76 730 50 730 c 2,22,-1
 12 730 l 1,23,-1
 12 795 l 1,24,-1
 45 795 l 2,25,26
 113 795 113 795 144 764 c 128,-1,27
 175 733 175 733 175 665 c 2,28,-1
 175 470 l 2,29,30
 175 381 175 381 241 362 c 1,31,-1
 241 318 l 1,32,33
 175 299 175 299 175 210 c 2,0,-1
EndSplineSet
EndChar

StartChar: asciitilde
Encoding: 126 126 97
Width: 455
GlyphClass: 2
Flags: W
LayerCount: 2
Fore
SplineSet
151 333 m 0,0,1
 190 333 190 333 245 315.5 c 128,-1,2
 300 298 300 298 315 294 c 1,3,-1
 393 333 l 1,4,-1
 425 309 l 1,5,6
 390 230 390 230 314 230 c 0,7,8
 275 230 275 230 220 247.5 c 128,-1,9
 165 265 165 265 150 269 c 1,10,-1
 62 230 l 1,11,-1
 30 254 l 1,12,13
 69 333 69 333 151 333 c 0,0,1
EndSplineSet
EndChar

StartChar: exclamdown
Encoding: 161 161 98
Width: 315
GlyphClass: 2
Flags: W
LayerCount: 2
Fore
SplineSet
197.5 493 m 128,-1,1
 213 476 213 476 213 453.5 c 128,-1,2
 213 431 213 431 199 415 c 128,-1,3
 185 399 185 399 163 399 c 128,-1,4
 141 399 141 399 125.5 416 c 128,-1,5
 110 433 110 433 110 455.5 c 128,-1,6
 110 478 110 478 124 494 c 128,-1,7
 138 510 138 510 160 510 c 128,-1,0
 182 510 182 510 197.5 493 c 128,-1,1
193 299 m 1,8,-1
 213 -301 l 1,9,-1
 108 -301 l 1,10,-1
 128 299 l 1,11,-1
 193 299 l 1,8,-1
EndSplineSet
EndChar

StartChar: cent
Encoding: 162 162 99
Width: 465
GlyphClass: 2
Flags: W
LayerCount: 2
Fore
SplineSet
300 508 m 1,0,1
 372 502 372 502 426 469 c 1,2,-1
 426 350 l 1,3,-1
 356 350 l 1,4,-1
 356 419 l 1,5,6
 322 435 322 435 277 435 c 0,7,8
 199 435 199 435 159.5 383 c 128,-1,9
 120 331 120 331 120 249.5 c 128,-1,10
 120 168 120 168 160 116.5 c 128,-1,11
 200 65 200 65 277 65 c 0,12,13
 312 65 312 65 340.5 73.5 c 128,-1,14
 369 82 369 82 381.5 90 c 128,-1,15
 394 98 394 98 413 113 c 1,16,-1
 450 57 l 1,17,18
 391 2 391 2 300 -8 c 1,19,-1
 300 -82 l 1,20,-1
 230 -82 l 1,21,-1
 230 -7 l 1,22,23
 137 5 137 5 86 76 c 128,-1,24
 35 147 35 147 35 250 c 128,-1,25
 35 353 35 353 86 424 c 128,-1,26
 137 495 137 495 230 507 c 1,27,-1
 230 582 l 1,28,-1
 300 582 l 1,29,-1
 300 508 l 1,0,1
EndSplineSet
EndChar

StartChar: sterling
Encoding: 163 163 100
Width: 518
GlyphClass: 2
Flags: W
LayerCount: 2
Fore
SplineSet
128 368 m 1,0,-1
 128 486 l 2,1,2
 128 584 128 584 183 640.5 c 128,-1,3
 238 697 238 697 330 697 c 128,-1,4
 422 697 422 697 485 656 c 1,5,-1
 485 522 l 1,6,-1
 415 522 l 1,7,-1
 415 605 l 1,8,9
 372 622 372 622 323.5 622 c 128,-1,10
 275 622 275 622 243.5 585.5 c 128,-1,11
 212 549 212 549 212 491 c 2,12,-1
 212 368 l 1,13,-1
 342 368 l 1,14,-1
 342 311 l 1,15,-1
 212 311 l 1,16,-1
 212 261 l 2,17,18
 212 208 212 208 193.5 152 c 128,-1,19
 175 96 175 96 149 75 c 1,20,-1
 492 75 l 1,21,-1
 492 0 l 1,22,-1
 36 0 l 1,23,-1
 36 75 l 1,24,25
 77 75 77 75 102.5 137 c 128,-1,26
 128 199 128 199 128 259 c 2,27,-1
 128 311 l 1,28,-1
 56 311 l 1,29,-1
 56 368 l 1,30,-1
 128 368 l 1,0,-1
EndSplineSet
EndChar

StartChar: currency
Encoding: 164 164 101
Width: 503
GlyphClass: 2
Flags: W
LayerCount: 2
Fore
SplineSet
76 178 m 1,0,1
 55 223 55 223 55 278.5 c 128,-1,2
 55 334 55 334 78 378 c 1,3,-1
 8 423 l 1,4,-1
 49 479 l 1,5,-1
 111 422 l 1,6,7
 166 475 166 475 251.5 475 c 128,-1,8
 337 475 337 475 393 422 c 1,9,-1
 456 479 l 1,10,-1
 497 423 l 1,11,-1
 426 377 l 1,12,13
 449 333 449 333 449 279 c 128,-1,14
 449 225 449 225 427 179 c 1,15,-1
 497 135 l 1,16,-1
 456 79 l 1,17,-1
 396 132 l 1,18,19
 341 75 341 75 252 75 c 128,-1,20
 163 75 163 75 108 132 c 1,21,-1
 49 79 l 1,22,-1
 8 135 l 1,23,-1
 76 178 l 1,0,1
162.5 373 m 128,-1,25
 130 336 130 336 130 277.5 c 128,-1,26
 130 219 130 219 162.5 179.5 c 128,-1,27
 195 140 195 140 252 140 c 128,-1,28
 309 140 309 140 341.5 179.5 c 128,-1,29
 374 219 374 219 374 277.5 c 128,-1,30
 374 336 374 336 341.5 373 c 128,-1,31
 309 410 309 410 252 410 c 128,-1,24
 195 410 195 410 162.5 373 c 128,-1,25
EndSplineSet
EndChar

StartChar: yen
Encoding: 165 165 102
Width: 745
GlyphClass: 2
Flags: W
LayerCount: 2
Fore
SplineSet
389 711 m 1,0,-1
 389 636 l 1,1,2
 379 636 379 636 360.5 635.5 c 128,-1,3
 342 635 342 635 334 635 c 1,4,-1
 465 394 l 1,5,-1
 592 625 l 1,6,-1
 522 625 l 1,7,-1
 522 700 l 1,8,-1
 744 700 l 1,9,-1
 744 625 l 1,10,-1
 689 625 l 1,11,-1
 525 336 l 1,12,-1
 642 336 l 1,13,-1
 642 279 l 1,14,-1
 507 279 l 1,15,-1
 507 232 l 1,16,-1
 642 232 l 1,17,-1
 642 175 l 1,18,-1
 507 175 l 1,19,-1
 507 75 l 1,20,-1
 604 75 l 1,21,-1
 604 0 l 1,22,-1
 334 0 l 1,23,-1
 334 75 l 1,24,-1
 422 75 l 1,25,-1
 422 175 l 1,26,-1
 287 175 l 1,27,-1
 287 232 l 1,28,-1
 422 232 l 1,29,-1
 422 279 l 1,30,-1
 287 279 l 1,31,-1
 287 336 l 1,32,-1
 405 336 l 1,33,-1
 242 627 l 1,34,35
 154 615 154 615 117 583 c 128,-1,36
 80 551 80 551 80 497 c 0,37,38
 80 467 80 467 93 447.5 c 128,-1,39
 106 428 106 428 131 428 c 0,40,41
 178 428 178 428 178 507 c 1,42,-1
 258 507 l 1,43,44
 258 442 258 442 228 397.5 c 128,-1,45
 198 353 198 353 131 353 c 128,-1,46
 64 353 64 353 32 395 c 128,-1,47
 0 437 0 437 0 497 c 0,48,49
 0 595 0 595 93 653 c 128,-1,50
 186 711 186 711 389 711 c 1,0,-1
EndSplineSet
EndChar

StartChar: brokenbar
Encoding: 166 166 103
Width: 225
GlyphClass: 2
Flags: W
LayerCount: 2
Fore
SplineSet
145 240 m 1,0,-1
 145 -160 l 1,1,-1
 80 -160 l 1,2,-1
 80 240 l 1,3,-1
 145 240 l 1,0,-1
145 750 m 1,4,-1
 145 350 l 1,5,-1
 80 350 l 1,6,-1
 80 750 l 1,7,-1
 145 750 l 1,4,-1
EndSplineSet
EndChar

StartChar: section
Encoding: 167 167 104
Width: 429
GlyphClass: 2
Flags: W
LayerCount: 2
Fore
SplineSet
393 278 m 0,0,1
 393 205 393 205 330 143 c 1,2,3
 403 96 403 96 403 25 c 128,-1,4
 403 -46 403 -46 349.5 -85 c 128,-1,5
 296 -124 296 -124 217.5 -124 c 128,-1,6
 139 -124 139 -124 59 -98 c 1,7,-1
 59 37 l 1,8,-1
 129 37 l 1,9,-1
 129 -42 l 1,10,11
 170 -54 170 -54 213.5 -54 c 128,-1,12
 257 -54 257 -54 288 -35.5 c 128,-1,13
 319 -17 319 -17 319 12.5 c 128,-1,14
 319 42 319 42 301.5 59 c 128,-1,15
 284 76 284 76 249 96 c 1,16,-1
 149 145 l 2,17,18
 98 170 98 170 72 201 c 128,-1,19
 46 232 46 232 46 279 c 0,20,21
 46 352 46 352 108 414 c 1,22,23
 36 462 36 462 36 532.5 c 128,-1,24
 36 603 36 603 89.5 642 c 128,-1,25
 143 681 143 681 221.5 681 c 128,-1,26
 300 681 300 681 380 655 c 1,27,-1
 380 520 l 1,28,-1
 310 520 l 1,29,-1
 310 599 l 1,30,31
 269 611 269 611 225.5 611 c 128,-1,32
 182 611 182 611 151 592.5 c 128,-1,33
 120 574 120 574 120 539 c 0,34,35
 120 516 120 516 137.5 498.5 c 128,-1,36
 155 481 155 481 190 461 c 1,37,-1
 290 412 l 2,38,39
 341 387 341 387 367 356 c 128,-1,40
 393 325 393 325 393 278 c 0,0,1
173 381 m 1,41,42
 126 334 126 334 126 300 c 128,-1,43
 126 266 126 266 147.5 245 c 128,-1,44
 169 224 169 224 211 203 c 2,45,-1
 266 176 l 1,46,47
 313 223 313 223 313 257 c 128,-1,48
 313 291 313 291 291.5 312 c 128,-1,49
 270 333 270 333 228 354 c 2,50,-1
 173 381 l 1,41,42
EndSplineSet
EndChar

StartChar: dieresis
Encoding: 168 168 105
Width: 476
GlyphClass: 2
Flags: W
LayerCount: 2
Fore
SplineSet
96 846 m 128,-1,1
 96 866 96 866 110 880.5 c 128,-1,2
 124 895 124 895 144 895 c 128,-1,3
 164 895 164 895 178.5 880.5 c 128,-1,4
 193 866 193 866 193 846 c 128,-1,5
 193 826 193 826 178.5 812 c 128,-1,6
 164 798 164 798 144 798 c 128,-1,7
 124 798 124 798 110 812 c 128,-1,0
 96 826 96 826 96 846 c 128,-1,1
287 846 m 128,-1,9
 287 866 287 866 301 880.5 c 128,-1,10
 315 895 315 895 335 895 c 128,-1,11
 355 895 355 895 369.5 880.5 c 128,-1,12
 384 866 384 866 384 846 c 128,-1,13
 384 826 384 826 369.5 812 c 128,-1,14
 355 798 355 798 335.5 798 c 128,-1,15
 316 798 316 798 301.5 812 c 128,-1,8
 287 826 287 826 287 846 c 128,-1,9
EndSplineSet
EndChar

StartChar: copyright
Encoding: 169 169 106
Width: 745
GlyphClass: 2
Flags: W
LayerCount: 2
Fore
SplineSet
117.5 93 m 128,-1,1
 24 196 24 196 24 347.5 c 128,-1,2
 24 499 24 499 117.5 598 c 128,-1,3
 211 697 211 697 373 697 c 128,-1,4
 535 697 535 697 628 598.5 c 128,-1,5
 721 500 721 500 721 347.5 c 128,-1,6
 721 195 721 195 627.5 92.5 c 128,-1,7
 534 -10 534 -10 372.5 -10 c 128,-1,0
 211 -10 211 -10 117.5 93 c 128,-1,1
162.5 561.5 m 128,-1,9
 86 478 86 478 86 347.5 c 128,-1,10
 86 217 86 217 163 129 c 128,-1,11
 240 41 240 41 372.5 41 c 128,-1,12
 505 41 505 41 582 129 c 128,-1,13
 659 217 659 217 659 347.5 c 128,-1,14
 659 478 659 478 582.5 561.5 c 128,-1,15
 506 645 506 645 372.5 645 c 128,-1,8
 239 645 239 645 162.5 561.5 c 128,-1,9
381 556 m 0,16,17
 444 556 444 556 487.5 520.5 c 128,-1,18
 531 485 531 485 531 427 c 1,19,-1
 459 426 l 1,20,21
 459 458 459 458 438 473.5 c 128,-1,22
 417 489 417 489 386 489 c 0,23,24
 334 489 334 489 301.5 447 c 128,-1,25
 269 405 269 405 269 342.5 c 128,-1,26
 269 280 269 280 301.5 238 c 128,-1,27
 334 196 334 196 387 196 c 128,-1,28
 440 196 440 196 489 249 c 1,29,-1
 540 208 l 1,30,31
 483 130 483 130 390.5 130 c 128,-1,32
 298 130 298 130 244 189.5 c 128,-1,33
 190 249 190 249 190 341.5 c 128,-1,34
 190 434 190 434 244 495 c 128,-1,35
 298 556 298 556 381 556 c 0,16,17
EndSplineSet
EndChar

StartChar: ordfeminine
Encoding: 170 170 107
Width: 328
GlyphClass: 2
Flags: W
LayerCount: 2
Fore
SplineSet
236 678 m 2,0,-1
 236 582 l 1,1,-1
 268 582 l 1,2,-1
 268 546 l 1,3,4
 246 534 246 534 227.5 534 c 128,-1,5
 209 534 209 534 200.5 541.5 c 128,-1,6
 192 549 192 549 191 566 c 1,7,8
 164 532 164 532 130 532 c 128,-1,9
 96 532 96 532 78 550 c 128,-1,10
 60 568 60 568 60 596.5 c 128,-1,11
 60 625 60 625 83 643 c 128,-1,12
 106 661 106 661 150 661 c 2,13,-1
 181 661 l 1,14,-1
 181 682 l 2,15,16
 181 706 181 706 159.5 706 c 128,-1,17
 138 706 138 706 118 701 c 1,18,-1
 118 682 l 1,19,-1
 68 670 l 1,20,-1
 68 734 l 1,21,22
 120 754 120 754 157.5 754 c 128,-1,23
 195 754 195 754 215.5 733 c 128,-1,24
 236 712 236 712 236 678 c 2,0,-1
116 600 m 0,25,26
 116 574 116 574 143.5 574 c 128,-1,27
 171 574 171 574 181 598 c 1,28,-1
 181 622 l 1,29,-1
 150 622 l 2,30,31
 116 622 116 622 116 600 c 0,25,26
EndSplineSet
EndChar

StartChar: guillemotleft
Encoding: 171 171 108
Width: 476
GlyphClass: 2
Flags: W
LayerCount: 2
Fore
SplineSet
210 20 m 1,0,-1
 58 176 l 1,1,-1
 58 230 l 1,2,-1
 210 386 l 1,3,-1
 249 352 l 1,4,-1
 129 203 l 1,5,-1
 249 54 l 1,6,-1
 210 20 l 1,0,-1
371 20 m 1,7,-1
 219 176 l 1,8,-1
 219 230 l 1,9,-1
 371 386 l 1,10,-1
 410 352 l 1,11,-1
 290 203 l 1,12,-1
 410 54 l 1,13,-1
 371 20 l 1,7,-1
EndSplineSet
EndChar

StartChar: logicalnot
Encoding: 172 172 109
Width: 370
GlyphClass: 2
Flags: W
LayerCount: 2
Fore
SplineSet
60 261 m 1,0,-1
 60 318 l 1,1,-1
 310 318 l 1,2,-1
 310 180 l 1,3,-1
 253 180 l 1,4,-1
 253 261 l 1,5,-1
 60 261 l 1,0,-1
EndSplineSet
EndChar

StartChar: uni00AD
Encoding: 173 173 110
Width: 370
GlyphClass: 2
Flags: W
LayerCount: 2
Fore
SplineSet
310 261 m 1,0,-1
 60 261 l 1,1,-1
 60 318 l 1,2,-1
 310 318 l 1,3,-1
 310 261 l 1,0,-1
EndSplineSet
EndChar

StartChar: registered
Encoding: 174 174 111
Width: 460
GlyphClass: 2
Flags: W
LayerCount: 2
Fore
SplineSet
83 317.5 m 128,-1,1
 28 378 28 378 28 468 c 128,-1,2
 28 558 28 558 83 616.5 c 128,-1,3
 138 675 138 675 234 675 c 128,-1,4
 330 675 330 675 385 616.5 c 128,-1,5
 440 558 440 558 440 468 c 128,-1,6
 440 378 440 378 385 317.5 c 128,-1,7
 330 257 330 257 234 257 c 128,-1,0
 138 257 138 257 83 317.5 c 128,-1,1
113.5 587.5 m 128,-1,9
 69 541 69 541 69 469 c 128,-1,10
 69 397 69 397 113.5 347.5 c 128,-1,11
 158 298 158 298 234 298 c 128,-1,12
 310 298 310 298 354 347.5 c 128,-1,13
 398 397 398 397 398 469 c 128,-1,14
 398 541 398 541 354 587.5 c 128,-1,15
 310 634 310 634 234 634 c 128,-1,8
 158 634 158 634 113.5 587.5 c 128,-1,9
248 392 m 1,16,-1
 248 355 l 1,17,-1
 147 355 l 1,18,-1
 147 392 l 1,19,-1
 177 392 l 1,20,-1
 177 555 l 1,21,-1
 147 555 l 1,22,-1
 147 593 l 1,23,-1
 210 593 l 2,24,25
 269 593 269 593 299 571.5 c 128,-1,26
 329 550 329 550 329 515 c 0,27,28
 329 462 329 462 289 447 c 1,29,-1
 327 392 l 1,30,-1
 340 392 l 1,31,-1
 340 355 l 1,32,-1
 269 355 l 1,33,-1
 269 392 l 1,34,-1
 282 392 l 1,35,-1
 249 442 l 1,36,37
 233 442 233 442 217 446 c 1,38,-1
 217 392 l 1,39,-1
 248 392 l 1,16,-1
289 515 m 0,40,41
 289 554 289 554 217 555 c 1,42,-1
 217 484 l 1,43,44
 232 479 232 479 249 479 c 128,-1,45
 266 479 266 479 277.5 489 c 128,-1,46
 289 499 289 499 289 515 c 0,40,41
EndSplineSet
EndChar

StartChar: macron
Encoding: 175 175 112
Width: 503
GlyphClass: 2
Flags: W
LayerCount: 2
Fore
SplineSet
84 592 m 1,0,-1
 84 656 l 1,1,-1
 413 656 l 1,2,-1
 413 592 l 1,3,-1
 84 592 l 1,0,-1
EndSplineSet
EndChar

StartChar: degree
Encoding: 176 176 113
Width: 344
GlyphClass: 2
Flags: W
LayerCount: 2
Fore
SplineSet
111 643 m 128,-1,1
 111 578 111 578 171.5 578 c 128,-1,2
 232 578 232 578 232 643 c 128,-1,3
 232 708 232 708 171.5 708 c 128,-1,0
 111 708 111 708 111 643 c 128,-1,1
60 643 m 128,-1,5
 60 694 60 694 88.5 724 c 128,-1,6
 117 754 117 754 172 754 c 128,-1,7
 227 754 227 754 255.5 724 c 128,-1,8
 284 694 284 694 284 643 c 128,-1,9
 284 592 284 592 255.5 562 c 128,-1,10
 227 532 227 532 172 532 c 128,-1,11
 117 532 117 532 88.5 562 c 128,-1,4
 60 592 60 592 60 643 c 128,-1,5
EndSplineSet
EndChar

StartChar: plusminus
Encoding: 177 177 114
Width: 490
GlyphClass: 2
Flags: W
LayerCount: 2
Fore
SplineSet
215 341 m 1,0,-1
 60 341 l 1,1,-1
 60 398 l 1,2,-1
 215 398 l 1,3,-1
 215 554 l 1,4,-1
 275 554 l 1,5,-1
 275 398 l 1,6,-1
 430 398 l 1,7,-1
 430 341 l 1,8,-1
 275 341 l 1,9,-1
 275 184 l 1,10,-1
 215 184 l 1,11,-1
 215 341 l 1,0,-1
430 80 m 1,12,-1
 60 80 l 1,13,-1
 60 137 l 1,14,-1
 430 137 l 1,15,-1
 430 80 l 1,12,-1
EndSplineSet
EndChar

StartChar: twosuperior
Encoding: 178 178 115
Width: 322
GlyphClass: 2
Flags: W
LayerCount: 2
Fore
SplineSet
60 452 m 1,0,-1
 60 492 l 1,1,-1
 66 495 l 1,2,3
 112 527 112 527 151.5 571.5 c 128,-1,4
 191 616 191 616 191 660 c 0,5,6
 191 698 191 698 146 698 c 0,7,8
 131 698 131 698 113 694 c 1,9,-1
 113 659 l 1,10,-1
 62 659 l 1,11,-1
 62 730 l 1,12,13
 98 750 98 750 145 750 c 0,14,15
 247 750 247 750 247 661 c 0,16,17
 247 576 247 576 139 498 c 1,18,-1
 206 504 l 1,19,-1
 235 531 l 1,20,-1
 262 531 l 1,21,-1
 251 452 l 1,22,-1
 60 452 l 1,0,-1
EndSplineSet
EndChar

StartChar: threesuperior
Encoding: 179 179 116
Width: 328
GlyphClass: 2
Flags: W
LayerCount: 2
Fore
SplineSet
79 669 m 1,0,-1
 79 742 l 1,1,2
 127 754 127 754 164.5 754 c 128,-1,3
 202 754 202 754 231.5 734.5 c 128,-1,4
 261 715 261 715 261 675 c 128,-1,5
 261 635 261 635 228 612 c 1,6,7
 268 590 268 590 268 544.5 c 128,-1,8
 268 499 268 499 236 475.5 c 128,-1,9
 204 452 204 452 154 452 c 128,-1,10
 104 452 104 452 60 474 c 1,11,-1
 82 520 l 1,12,13
 118 504 118 504 156 504 c 0,14,15
 212 504 212 504 212 545 c 0,16,17
 212 583 212 583 156 583 c 2,18,-1
 120 583 l 1,19,-1
 120 635 l 1,20,-1
 137 635 l 2,21,22
 205 635 205 635 205 676 c 0,23,24
 205 702 205 702 157 702 c 0,25,26
 145 702 145 702 130 699 c 1,27,-1
 130 669 l 1,28,-1
 79 669 l 1,0,-1
EndSplineSet
EndChar

StartChar: acute
Encoding: 180 180 117
Width: 343
GlyphClass: 2
Flags: W
LayerCount: 2
Fore
SplineSet
212 921 m 1,0,-1
 88 760 l 1,1,-1
 44 786 l 1,2,-1
 141 968 l 1,3,-1
 212 921 l 1,0,-1
EndSplineSet
EndChar

StartChar: mu
Encoding: 181 181 118
AltUni2: 0003bc.ffffffff.0
Width: 600
GlyphClass: 2
Flags: W
LayerCount: 2
Fore
SplineSet
346 435 m 1,0,-1
 346 500 l 1,1,-1
 508 500 l 1,2,-1
 508 60 l 1,3,-1
 590 60 l 1,4,-1
 590 18 l 1,5,6
 553 -5 553 -5 492 -5 c 128,-1,7
 431 -5 431 -5 424 46 c 1,8,9
 334 -11 334 -11 269.5 -11 c 128,-1,10
 205 -11 205 -11 172 22 c 1,11,-1
 172 -185 l 1,12,-1
 249 -185 l 1,13,-1
 249 -250 l 1,14,-1
 10 -250 l 1,15,-1
 10 -185 l 1,16,-1
 87 -185 l 1,17,-1
 87 435 l 1,18,-1
 10 435 l 1,19,-1
 10 500 l 1,20,-1
 172 500 l 1,21,-1
 172 181 l 2,22,23
 172 123 172 123 193 93.5 c 128,-1,24
 214 64 214 64 280 64 c 0,25,26
 330 64 330 64 423 124 c 1,27,-1
 423 435 l 1,28,-1
 346 435 l 1,0,-1
EndSplineSet
EndChar

StartChar: paragraph
Encoding: 182 182 119
Width: 686
GlyphClass: 2
Flags: W
LayerCount: 2
Fore
SplineSet
513 547 m 1,0,-1
 381 547 l 1,1,-1
 381 -220 l 1,2,-1
 311 -220 l 1,3,-1
 311 543 l 1,4,5
 79 524 79 524 79 396 c 0,6,7
 79 315 79 315 142 315 c 0,8,9
 176 315 176 315 188.5 337.5 c 128,-1,10
 201 360 201 360 201 406 c 1,11,-1
 269 406 l 1,12,13
 269 341 269 341 239 296.5 c 128,-1,14
 209 252 209 252 142 252 c 128,-1,15
 75 252 75 252 43 294 c 128,-1,16
 11 336 11 336 11 396 c 0,17,18
 11 494 11 494 104 552 c 128,-1,19
 197 610 197 610 400 610 c 2,20,-1
 658 610 l 1,21,-1
 658 547 l 1,22,-1
 583 547 l 1,23,-1
 583 -220 l 1,24,-1
 513 -220 l 1,25,-1
 513 547 l 1,0,-1
EndSplineSet
EndChar

StartChar: periodcentered
Encoding: 183 183 120
Width: 245
GlyphClass: 2
Flags: W
LayerCount: 2
Fore
SplineSet
87 259 m 128,-1,1
 70 276 70 276 70 300.5 c 128,-1,2
 70 325 70 325 87 342 c 128,-1,3
 104 359 104 359 128.5 359 c 128,-1,4
 153 359 153 359 170 342 c 128,-1,5
 187 325 187 325 187 300.5 c 128,-1,6
 187 276 187 276 170 259 c 128,-1,7
 153 242 153 242 128.5 242 c 128,-1,0
 104 242 104 242 87 259 c 128,-1,1
EndSplineSet
EndChar

StartChar: cedilla
Encoding: 184 184 121
Width: 439
GlyphClass: 2
Flags: W
LayerCount: 2
Fore
SplineSet
305 -74 m 128,-1,1
 331 -99 331 -99 331 -150 c 128,-1,2
 331 -201 331 -201 295.5 -229.5 c 128,-1,3
 260 -258 260 -258 208 -258 c 128,-1,4
 156 -258 156 -258 113 -236 c 1,5,-1
 134 -182 l 1,6,7
 170 -198 170 -198 201 -198 c 0,8,9
 268 -198 268 -198 268 -145 c 0,10,11
 268 -94 268 -94 214 -94 c 0,12,13
 193 -94 193 -94 161 -102 c 1,14,-1
 146 -72 l 1,15,-1
 206 10 l 1,16,-1
 278 10 l 1,17,-1
 236 -45 l 1,18,0
 279 -49 279 -49 305 -74 c 128,-1,1
EndSplineSet
EndChar

StartChar: onesuperior
Encoding: 185 185 122
Width: 286
GlyphClass: 2
Flags: W
LayerCount: 2
Fore
SplineSet
176 503 m 1,0,-1
 226 503 l 1,1,-1
 226 451 l 1,2,-1
 66 451 l 1,3,-1
 66 503 l 1,4,-1
 120 503 l 1,5,-1
 120 676 l 1,6,-1
 69 668 l 1,7,-1
 60 707 l 1,8,-1
 176 753 l 1,9,-1
 176 503 l 1,0,-1
EndSplineSet
EndChar

StartChar: ordmasculine
Encoding: 186 186 123
Width: 344
GlyphClass: 2
Flags: W
LayerCount: 2
Fore
SplineSet
118 603 m 128,-1,1
 118 504 118 504 172 504 c 128,-1,2
 226 504 226 504 226 603 c 128,-1,3
 226 702 226 702 172 702 c 128,-1,0
 118 702 118 702 118 603 c 128,-1,1
60 603 m 128,-1,5
 60 673 60 673 88.5 713.5 c 128,-1,6
 117 754 117 754 172 754 c 128,-1,7
 227 754 227 754 255.5 713.5 c 128,-1,8
 284 673 284 673 284 603 c 128,-1,9
 284 533 284 533 255.5 492.5 c 128,-1,10
 227 452 227 452 172 452 c 128,-1,11
 117 452 117 452 88.5 492.5 c 128,-1,4
 60 533 60 533 60 603 c 128,-1,5
EndSplineSet
EndChar

StartChar: guillemotright
Encoding: 187 187 124
Width: 476
GlyphClass: 2
Flags: W
LayerCount: 2
Fore
SplineSet
418 176 m 1,0,-1
 266 20 l 1,1,-1
 227 54 l 1,2,-1
 347 203 l 1,3,-1
 227 352 l 1,4,-1
 266 386 l 1,5,-1
 418 230 l 1,6,-1
 418 176 l 1,0,-1
257 176 m 1,7,-1
 105 20 l 1,8,-1
 66 54 l 1,9,-1
 186 203 l 1,10,-1
 66 352 l 1,11,-1
 105 386 l 1,12,-1
 257 230 l 1,13,-1
 257 176 l 1,7,-1
EndSplineSet
EndChar

StartChar: onequarter
Encoding: 188 188 125
Width: 331
GlyphClass: 2
Flags: W
LayerCount: 2
Fore
SplineSet
226 294 m 1,0,-1
 226 121 l 1,1,-1
 267 121 l 1,2,-1
 267 79 l 1,3,-1
 226 79 l 1,4,-1
 226 42 l 1,5,-1
 259 42 l 1,6,-1
 259 0 l 1,7,-1
 132 0 l 1,8,-1
 132 42 l 1,9,-1
 170 42 l 1,10,-1
 170 79 l 1,11,-1
 51 79 l 1,12,-1
 51 118 l 1,13,-1
 180 294 l 1,14,-1
 226 294 l 1,0,-1
202 503 m 1,15,-1
 252 503 l 1,16,-1
 252 451 l 1,17,-1
 92 451 l 1,18,-1
 92 503 l 1,19,-1
 146 503 l 1,20,-1
 146 676 l 1,21,-1
 95 668 l 1,22,-1
 86 707 l 1,23,-1
 202 753 l 1,24,-1
 202 503 l 1,15,-1
71 400 m 1,25,-1
 278 400 l 1,26,-1
 278 346 l 1,27,-1
 71 346 l 1,28,-1
 71 400 l 1,25,-1
170 121 m 1,29,-1
 170 205 l 1,30,-1
 108 121 l 1,31,-1
 170 121 l 1,29,-1
EndSplineSet
EndChar

StartChar: onehalf
Encoding: 189 189 126
Width: 328
GlyphClass: 2
Flags: W
LayerCount: 2
Fore
SplineSet
60 0 m 1,0,-1
 60 40 l 1,1,-1
 66 43 l 1,2,3
 112 75 112 75 151.5 119.5 c 128,-1,4
 191 164 191 164 191 208 c 0,5,6
 191 246 191 246 146 246 c 0,7,8
 131 246 131 246 113 242 c 1,9,-1
 113 207 l 1,10,-1
 62 207 l 1,11,-1
 62 278 l 1,12,13
 98 298 98 298 145 298 c 0,14,15
 247 298 247 298 247 209 c 0,16,17
 247 126 247 126 143 49 c 1,18,-1
 158 52 l 1,19,-1
 206 52 l 1,20,-1
 235 79 l 1,21,-1
 262 79 l 1,22,-1
 251 0 l 1,23,-1
 60 0 l 1,0,-1
192 503 m 1,24,-1
 242 503 l 1,25,-1
 242 451 l 1,26,-1
 82 451 l 1,27,-1
 82 503 l 1,28,-1
 136 503 l 1,29,-1
 136 676 l 1,30,-1
 85 668 l 1,31,-1
 76 707 l 1,32,-1
 192 753 l 1,33,-1
 192 503 l 1,24,-1
61 400 m 1,34,-1
 268 400 l 1,35,-1
 268 346 l 1,36,-1
 61 346 l 1,37,-1
 61 400 l 1,34,-1
EndSplineSet
EndChar

StartChar: threequarters
Encoding: 190 190 127
Width: 338
GlyphClass: 2
Flags: W
LayerCount: 2
Fore
SplineSet
235 294 m 1,0,-1
 235 121 l 1,1,-1
 276 121 l 1,2,-1
 276 79 l 1,3,-1
 235 79 l 1,4,-1
 235 42 l 1,5,-1
 268 42 l 1,6,-1
 268 0 l 1,7,-1
 141 0 l 1,8,-1
 141 42 l 1,9,-1
 179 42 l 1,10,-1
 179 79 l 1,11,-1
 60 79 l 1,12,-1
 60 118 l 1,13,-1
 189 294 l 1,14,-1
 235 294 l 1,0,-1
83 669 m 1,15,-1
 83 742 l 1,16,17
 137 754 137 754 171.5 754 c 128,-1,18
 206 754 206 754 235.5 734.5 c 128,-1,19
 265 715 265 715 265 675 c 128,-1,20
 265 635 265 635 232 612 c 1,21,22
 272 590 272 590 272 544.5 c 128,-1,23
 272 499 272 499 240 475.5 c 128,-1,24
 208 452 208 452 158 452 c 128,-1,25
 108 452 108 452 64 474 c 1,26,-1
 86 520 l 1,27,28
 122 504 122 504 160 504 c 0,29,30
 216 504 216 504 216 545 c 0,31,32
 216 583 216 583 160 583 c 2,33,-1
 124 583 l 1,34,-1
 124 635 l 1,35,-1
 149 635 l 1,36,37
 209 637 209 637 209 676 c 0,38,39
 209 702 209 702 161 702 c 0,40,41
 149 702 149 702 134 699 c 1,42,-1
 134 669 l 1,43,-1
 83 669 l 1,15,-1
61 400 m 1,44,-1
 278 400 l 1,45,-1
 278 346 l 1,46,-1
 61 346 l 1,47,-1
 61 400 l 1,44,-1
179 121 m 1,48,-1
 179 205 l 1,49,-1
 117 121 l 1,50,-1
 179 121 l 1,48,-1
EndSplineSet
EndChar

StartChar: questiondown
Encoding: 191 191 128
Width: 550
GlyphClass: 2
Flags: W
LayerCount: 2
Fore
SplineSet
290 299 m 1,0,-1
 290 208 l 1,1,2
 376 171 376 171 424 123 c 128,-1,3
 472 75 472 75 472 -9 c 0,4,5
 472 -210 472 -210 238 -210 c 0,6,7
 125 -210 125 -210 55 -169 c 1,8,-1
 55 -35 l 1,9,-1
 125 -35 l 1,10,-1
 125 -118 l 1,11,12
 178 -135 178 -135 241 -135 c 0,13,14
 388 -135 388 -135 388 -8 c 0,15,16
 388 26 388 26 375 53.5 c 128,-1,17
 362 81 362 81 328 108 c 128,-1,18
 294 135 294 135 220 167 c 1,19,-1
 220 299 l 1,20,-1
 290 299 l 1,0,-1
218 415 m 128,-1,22
 204 431 204 431 204 453.5 c 128,-1,23
 204 476 204 476 219.5 493 c 128,-1,24
 235 510 235 510 257 510 c 128,-1,25
 279 510 279 510 293 494 c 128,-1,26
 307 478 307 478 307 455.5 c 128,-1,27
 307 433 307 433 291.5 416 c 128,-1,28
 276 399 276 399 254 399 c 128,-1,21
 232 399 232 399 218 415 c 128,-1,22
EndSplineSet
EndChar

StartChar: Agrave
Encoding: 192 192 129
Width: 768
GlyphClass: 2
Flags: W
LayerCount: 2
Fore
SplineSet
389 700 m 2,0,-1
 564 700 l 1,1,-1
 564 625 l 1,2,-1
 504 625 l 1,3,-1
 702 75 l 1,4,-1
 768 75 l 1,5,-1
 768 0 l 1,6,-1
 556 0 l 1,7,-1
 556 75 l 1,8,-1
 615 75 l 1,9,-1
 570 206 l 1,10,-1
 296 206 l 1,11,-1
 251 75 l 1,12,-1
 311 75 l 1,13,-1
 311 0 l 1,14,-1
 99 0 l 1,15,-1
 99 75 l 1,16,-1
 164 75 l 1,17,-1
 362 624 l 1,18,19
 206 622 206 622 143 588.5 c 128,-1,20
 80 555 80 555 80 486 c 0,21,22
 80 456 80 456 93 436.5 c 128,-1,23
 106 417 106 417 131 417 c 0,24,25
 178 417 178 417 178 496 c 1,26,-1
 258 496 l 1,27,28
 258 431 258 431 228 386.5 c 128,-1,29
 198 342 198 342 131 342 c 128,-1,30
 64 342 64 342 32 384 c 128,-1,31
 0 426 0 426 0 486 c 0,32,33
 0 584 0 584 93 642 c 128,-1,34
 186 700 186 700 389 700 c 2,0,-1
433 605 m 1,35,-1
 318 271 l 1,36,-1
 548 271 l 1,37,-1
 433 605 l 1,35,-1
455 760 m 1,38,-1
 331 921 l 1,39,-1
 402 968 l 1,40,-1
 499 786 l 1,41,-1
 455 760 l 1,38,-1
EndSplineSet
EndChar

StartChar: Aacute
Encoding: 193 193 130
Width: 768
GlyphClass: 2
Flags: W
LayerCount: 2
Fore
SplineSet
389 700 m 2,0,-1
 564 700 l 1,1,-1
 564 625 l 1,2,-1
 504 625 l 1,3,-1
 702 75 l 1,4,-1
 768 75 l 1,5,-1
 768 0 l 1,6,-1
 556 0 l 1,7,-1
 556 75 l 1,8,-1
 615 75 l 1,9,-1
 570 206 l 1,10,-1
 296 206 l 1,11,-1
 251 75 l 1,12,-1
 311 75 l 1,13,-1
 311 0 l 1,14,-1
 99 0 l 1,15,-1
 99 75 l 1,16,-1
 164 75 l 1,17,-1
 362 624 l 1,18,19
 206 622 206 622 143 588.5 c 128,-1,20
 80 555 80 555 80 486 c 0,21,22
 80 456 80 456 93 436.5 c 128,-1,23
 106 417 106 417 131 417 c 0,24,25
 178 417 178 417 178 496 c 1,26,-1
 258 496 l 1,27,28
 258 431 258 431 228 386.5 c 128,-1,29
 198 342 198 342 131 342 c 128,-1,30
 64 342 64 342 32 384 c 128,-1,31
 0 426 0 426 0 486 c 0,32,33
 0 584 0 584 93 642 c 128,-1,34
 186 700 186 700 389 700 c 2,0,-1
433 605 m 1,35,-1
 318 271 l 1,36,-1
 548 271 l 1,37,-1
 433 605 l 1,35,-1
557 921 m 1,38,-1
 433 760 l 1,39,-1
 389 786 l 1,40,-1
 486 968 l 1,41,-1
 557 921 l 1,38,-1
EndSplineSet
EndChar

StartChar: Acircumflex
Encoding: 194 194 131
Width: 768
GlyphClass: 2
Flags: W
LayerCount: 2
Fore
SplineSet
389 700 m 2,0,-1
 564 700 l 1,1,-1
 564 625 l 1,2,-1
 504 625 l 1,3,-1
 702 75 l 1,4,-1
 768 75 l 1,5,-1
 768 0 l 1,6,-1
 556 0 l 1,7,-1
 556 75 l 1,8,-1
 615 75 l 1,9,-1
 570 206 l 1,10,-1
 296 206 l 1,11,-1
 251 75 l 1,12,-1
 311 75 l 1,13,-1
 311 0 l 1,14,-1
 99 0 l 1,15,-1
 99 75 l 1,16,-1
 164 75 l 1,17,-1
 362 624 l 1,18,19
 206 622 206 622 143 588.5 c 128,-1,20
 80 555 80 555 80 486 c 0,21,22
 80 456 80 456 93 436.5 c 128,-1,23
 106 417 106 417 131 417 c 0,24,25
 178 417 178 417 178 496 c 1,26,-1
 258 496 l 1,27,28
 258 431 258 431 228 386.5 c 128,-1,29
 198 342 198 342 131 342 c 128,-1,30
 64 342 64 342 32 384 c 128,-1,31
 0 426 0 426 0 486 c 0,32,33
 0 584 0 584 93 642 c 128,-1,34
 186 700 186 700 389 700 c 2,0,-1
433 605 m 1,35,-1
 318 271 l 1,36,-1
 548 271 l 1,37,-1
 433 605 l 1,35,-1
460 935 m 1,38,-1
 596 783 l 1,39,-1
 557 750 l 1,40,-1
 433 864 l 1,41,-1
 309 750 l 1,42,-1
 270 783 l 1,43,-1
 406 935 l 1,44,-1
 460 935 l 1,38,-1
EndSplineSet
EndChar

StartChar: Atilde
Encoding: 195 195 132
Width: 768
GlyphClass: 2
Flags: W
LayerCount: 2
Fore
SplineSet
389 700 m 2,0,-1
 564 700 l 1,1,-1
 564 625 l 1,2,-1
 504 625 l 1,3,-1
 702 75 l 1,4,-1
 768 75 l 1,5,-1
 768 0 l 1,6,-1
 556 0 l 1,7,-1
 556 75 l 1,8,-1
 615 75 l 1,9,-1
 570 206 l 1,10,-1
 296 206 l 1,11,-1
 251 75 l 1,12,-1
 311 75 l 1,13,-1
 311 0 l 1,14,-1
 99 0 l 1,15,-1
 99 75 l 1,16,-1
 164 75 l 1,17,-1
 362 624 l 1,18,19
 206 622 206 622 143 588.5 c 128,-1,20
 80 555 80 555 80 486 c 0,21,22
 80 456 80 456 93 436.5 c 128,-1,23
 106 417 106 417 131 417 c 0,24,25
 178 417 178 417 178 496 c 1,26,-1
 258 496 l 1,27,28
 258 431 258 431 228 386.5 c 128,-1,29
 198 342 198 342 131 342 c 128,-1,30
 64 342 64 342 32 384 c 128,-1,31
 0 426 0 426 0 486 c 0,32,33
 0 584 0 584 93 642 c 128,-1,34
 186 700 186 700 389 700 c 2,0,-1
433 605 m 1,35,-1
 318 271 l 1,36,-1
 548 271 l 1,37,-1
 433 605 l 1,35,-1
373 885 m 0,38,39
 403 885 403 885 443.5 867.5 c 128,-1,40
 484 850 484 850 497 846 c 1,41,-1
 555 885 l 1,42,-1
 587 861 l 1,43,44
 558 782 558 782 496 782 c 0,45,46
 466 782 466 782 425.5 799.5 c 128,-1,47
 385 817 385 817 372 821 c 1,48,-1
 314 782 l 1,49,-1
 282 806 l 1,50,51
 311 885 311 885 373 885 c 0,38,39
EndSplineSet
EndChar

StartChar: Adieresis
Encoding: 196 196 133
Width: 768
GlyphClass: 2
Flags: W
LayerCount: 2
Fore
SplineSet
389 700 m 2,0,-1
 564 700 l 1,1,-1
 564 625 l 1,2,-1
 504 625 l 1,3,-1
 702 75 l 1,4,-1
 768 75 l 1,5,-1
 768 0 l 1,6,-1
 556 0 l 1,7,-1
 556 75 l 1,8,-1
 615 75 l 1,9,-1
 570 206 l 1,10,-1
 296 206 l 1,11,-1
 251 75 l 1,12,-1
 311 75 l 1,13,-1
 311 0 l 1,14,-1
 99 0 l 1,15,-1
 99 75 l 1,16,-1
 164 75 l 1,17,-1
 362 624 l 1,18,19
 206 622 206 622 143 588.5 c 128,-1,20
 80 555 80 555 80 486 c 0,21,22
 80 456 80 456 93 436.5 c 128,-1,23
 106 417 106 417 131 417 c 0,24,25
 178 417 178 417 178 496 c 1,26,-1
 258 496 l 1,27,28
 258 431 258 431 228 386.5 c 128,-1,29
 198 342 198 342 131 342 c 128,-1,30
 64 342 64 342 32 384 c 128,-1,31
 0 426 0 426 0 486 c 0,32,33
 0 584 0 584 93 642 c 128,-1,34
 186 700 186 700 389 700 c 2,0,-1
433 605 m 1,35,-1
 318 271 l 1,36,-1
 548 271 l 1,37,-1
 433 605 l 1,35,-1
289 846 m 128,-1,39
 289 866 289 866 303 880.5 c 128,-1,40
 317 895 317 895 337 895 c 128,-1,41
 357 895 357 895 371.5 880.5 c 128,-1,42
 386 866 386 866 386 846 c 128,-1,43
 386 826 386 826 371.5 812 c 128,-1,44
 357 798 357 798 337.5 798 c 128,-1,45
 318 798 318 798 303.5 812 c 128,-1,38
 289 826 289 826 289 846 c 128,-1,39
480 846 m 128,-1,47
 480 866 480 866 494 880.5 c 128,-1,48
 508 895 508 895 528 895 c 128,-1,49
 548 895 548 895 562.5 880.5 c 128,-1,50
 577 866 577 866 577 846 c 128,-1,51
 577 826 577 826 562.5 812 c 128,-1,52
 548 798 548 798 528 798 c 128,-1,53
 508 798 508 798 494 812 c 128,-1,46
 480 826 480 826 480 846 c 128,-1,47
EndSplineSet
EndChar

StartChar: Aring
Encoding: 197 197 134
Width: 768
GlyphClass: 2
Flags: W
LayerCount: 2
Fore
SplineSet
389 700 m 2,0,-1
 564 700 l 1,1,-1
 564 625 l 1,2,-1
 504 625 l 1,3,-1
 702 75 l 1,4,-1
 768 75 l 1,5,-1
 768 0 l 1,6,-1
 556 0 l 1,7,-1
 556 75 l 1,8,-1
 615 75 l 1,9,-1
 570 206 l 1,10,-1
 296 206 l 1,11,-1
 251 75 l 1,12,-1
 311 75 l 1,13,-1
 311 0 l 1,14,-1
 99 0 l 1,15,-1
 99 75 l 1,16,-1
 164 75 l 1,17,-1
 362 624 l 1,18,19
 206 622 206 622 143 588.5 c 128,-1,20
 80 555 80 555 80 486 c 0,21,22
 80 456 80 456 93 436.5 c 128,-1,23
 106 417 106 417 131 417 c 0,24,25
 178 417 178 417 178 496 c 1,26,-1
 258 496 l 1,27,28
 258 431 258 431 228 386.5 c 128,-1,29
 198 342 198 342 131 342 c 128,-1,30
 64 342 64 342 32 384 c 128,-1,31
 0 426 0 426 0 486 c 0,32,33
 0 584 0 584 93 642 c 128,-1,34
 186 700 186 700 389 700 c 2,0,-1
433 605 m 1,35,-1
 318 271 l 1,36,-1
 548 271 l 1,37,-1
 433 605 l 1,35,-1
508.5 780 m 128,-1,39
 478 750 478 750 432.5 750 c 128,-1,40
 387 750 387 750 355.5 780.5 c 128,-1,41
 324 811 324 811 324 854 c 128,-1,42
 324 897 324 897 356 928.5 c 128,-1,43
 388 960 388 960 433 960 c 128,-1,44
 478 960 478 960 508.5 929 c 128,-1,45
 539 898 539 898 539 854 c 128,-1,38
 539 810 539 810 508.5 780 c 128,-1,39
397.5 819.5 m 128,-1,47
 411 805 411 805 432.5 805 c 128,-1,48
 454 805 454 805 466.5 819 c 128,-1,49
 479 833 479 833 479 854.5 c 128,-1,50
 479 876 479 876 466.5 890.5 c 128,-1,51
 454 905 454 905 432.5 905 c 128,-1,52
 411 905 411 905 397.5 890 c 128,-1,53
 384 875 384 875 384 854.5 c 128,-1,46
 384 834 384 834 397.5 819.5 c 128,-1,47
EndSplineSet
EndChar

StartChar: AE
Encoding: 198 198 135
Width: 985
GlyphClass: 2
Flags: W
LayerCount: 2
Fore
SplineSet
594 311 m 1,0,-1
 594 75 l 1,1,-1
 883 75 l 1,2,-1
 883 190 l 1,3,-1
 953 190 l 1,4,-1
 953 0 l 1,5,-1
 412 0 l 1,6,-1
 412 75 l 1,7,-1
 509 75 l 1,8,-1
 509 206 l 1,9,-1
 285 206 l 1,10,-1
 221 75 l 1,11,-1
 271 75 l 1,12,-1
 271 0 l 1,13,-1
 59 0 l 1,14,-1
 59 75 l 1,15,-1
 133 75 l 1,16,-1
 402 625 l 1,17,-1
 389 625 l 2,18,19
 217 625 217 625 148.5 591.5 c 128,-1,20
 80 558 80 558 80 486 c 0,21,22
 80 456 80 456 93 436.5 c 128,-1,23
 106 417 106 417 131 417 c 0,24,25
 178 417 178 417 178 496 c 1,26,-1
 258 496 l 1,27,28
 258 431 258 431 228 386.5 c 128,-1,29
 198 342 198 342 131 342 c 128,-1,30
 64 342 64 342 32 384 c 128,-1,31
 0 426 0 426 0 486 c 0,32,33
 0 584 0 584 93 642 c 128,-1,34
 186 700 186 700 389 700 c 2,35,-1
 944 700 l 1,36,-1
 944 510 l 1,37,-1
 874 510 l 1,38,-1
 874 625 l 1,39,-1
 594 625 l 1,40,-1
 594 386 l 1,41,-1
 732 386 l 1,42,-1
 732 446 l 1,43,-1
 802 446 l 1,44,-1
 802 251 l 1,45,-1
 732 251 l 1,46,-1
 732 311 l 1,47,-1
 594 311 l 1,0,-1
509 271 m 1,48,-1
 509 625 l 1,49,-1
 490 625 l 1,50,-1
 317 271 l 1,51,-1
 509 271 l 1,48,-1
EndSplineSet
EndChar

StartChar: Ccedilla
Encoding: 199 199 136
Width: 591
GlyphClass: 2
Flags: W
LayerCount: 2
Fore
SplineSet
530 423 m 128,-1,1
 562 465 562 465 562 525 c 0,2,3
 562 607 562 607 494 658.5 c 128,-1,4
 426 710 426 710 335 710 c 0,5,6
 187 710 187 710 101 608.5 c 128,-1,7
 15 507 15 507 15 348 c 128,-1,8
 15 189 15 189 100.5 89.5 c 128,-1,9
 186 -10 186 -10 339 -10 c 128,-1,10
 492 -10 492 -10 581 106 c 1,11,-1
 520 156 l 1,12,13
 438 70 438 70 334.5 70 c 128,-1,14
 231 70 231 70 168 149.5 c 128,-1,15
 105 229 105 229 105 350 c 128,-1,16
 105 471 105 471 168 550.5 c 128,-1,17
 231 630 231 630 335 630 c 0,18,19
 394 630 394 630 438 601.5 c 128,-1,20
 482 573 482 573 482 525 c 0,21,22
 482 495 482 495 469 475.5 c 128,-1,23
 456 456 456 456 431 456 c 0,24,25
 384 456 384 456 384 535 c 1,26,-1
 304 535 l 1,27,28
 304 470 304 470 334 425.5 c 128,-1,29
 364 381 364 381 431 381 c 128,-1,0
 498 381 498 381 530 423 c 128,-1,1
419 -76 m 128,-1,31
 445 -101 445 -101 445 -152 c 128,-1,32
 445 -203 445 -203 409.5 -231.5 c 128,-1,33
 374 -260 374 -260 322 -260 c 128,-1,34
 270 -260 270 -260 227 -238 c 1,35,-1
 248 -184 l 1,36,37
 284 -200 284 -200 315 -200 c 0,38,39
 382 -200 382 -200 382 -147 c 0,40,41
 382 -96 382 -96 328 -96 c 0,42,43
 307 -96 307 -96 275 -104 c 1,44,-1
 260 -74 l 1,45,-1
 320 8 l 1,46,-1
 392 8 l 1,47,-1
 350 -47 l 1,48,30
 393 -51 393 -51 419 -76 c 128,-1,31
EndSplineSet
EndChar

StartChar: Egrave
Encoding: 200 200 137
Width: 780
GlyphClass: 2
Flags: W
LayerCount: 2
Fore
SplineSet
389 311 m 1,0,-1
 389 75 l 1,1,-1
 678 75 l 1,2,-1
 678 190 l 1,3,-1
 748 190 l 1,4,-1
 748 0 l 1,5,-1
 207 0 l 1,6,-1
 207 75 l 1,7,-1
 304 75 l 1,8,-1
 304 623 l 1,9,10
 181 615 181 615 130.5 582 c 128,-1,11
 80 549 80 549 80 486 c 0,12,13
 80 456 80 456 93 436.5 c 128,-1,14
 106 417 106 417 131 417 c 0,15,16
 178 417 178 417 178 496 c 1,17,-1
 258 496 l 1,18,19
 258 431 258 431 228 386.5 c 128,-1,20
 198 342 198 342 131 342 c 128,-1,21
 64 342 64 342 32 384 c 128,-1,22
 0 426 0 426 0 486 c 0,23,24
 0 584 0 584 93 642 c 128,-1,25
 186 700 186 700 389 700 c 2,26,-1
 739 700 l 1,27,-1
 739 510 l 1,28,-1
 669 510 l 1,29,-1
 669 625 l 1,30,-1
 389 625 l 1,31,-1
 389 386 l 1,32,-1
 527 386 l 1,33,-1
 527 446 l 1,34,-1
 597 446 l 1,35,-1
 597 251 l 1,36,-1
 527 251 l 1,37,-1
 527 311 l 1,38,-1
 389 311 l 1,0,-1
472 760 m 1,39,-1
 348 921 l 1,40,-1
 419 968 l 1,41,-1
 516 786 l 1,42,-1
 472 760 l 1,39,-1
EndSplineSet
EndChar

StartChar: Eacute
Encoding: 201 201 138
Width: 780
GlyphClass: 2
Flags: W
LayerCount: 2
Fore
SplineSet
389 311 m 1,0,-1
 389 75 l 1,1,-1
 678 75 l 1,2,-1
 678 190 l 1,3,-1
 748 190 l 1,4,-1
 748 0 l 1,5,-1
 207 0 l 1,6,-1
 207 75 l 1,7,-1
 304 75 l 1,8,-1
 304 623 l 1,9,10
 181 615 181 615 130.5 582 c 128,-1,11
 80 549 80 549 80 486 c 0,12,13
 80 456 80 456 93 436.5 c 128,-1,14
 106 417 106 417 131 417 c 0,15,16
 178 417 178 417 178 496 c 1,17,-1
 258 496 l 1,18,19
 258 431 258 431 228 386.5 c 128,-1,20
 198 342 198 342 131 342 c 128,-1,21
 64 342 64 342 32 384 c 128,-1,22
 0 426 0 426 0 486 c 0,23,24
 0 584 0 584 93 642 c 128,-1,25
 186 700 186 700 389 700 c 2,26,-1
 739 700 l 1,27,-1
 739 510 l 1,28,-1
 669 510 l 1,29,-1
 669 625 l 1,30,-1
 389 625 l 1,31,-1
 389 386 l 1,32,-1
 527 386 l 1,33,-1
 527 446 l 1,34,-1
 597 446 l 1,35,-1
 597 251 l 1,36,-1
 527 251 l 1,37,-1
 527 311 l 1,38,-1
 389 311 l 1,0,-1
574 921 m 1,39,-1
 450 760 l 1,40,-1
 406 786 l 1,41,-1
 503 968 l 1,42,-1
 574 921 l 1,39,-1
EndSplineSet
EndChar

StartChar: Ecircumflex
Encoding: 202 202 139
Width: 780
GlyphClass: 2
Flags: W
LayerCount: 2
Fore
SplineSet
389 311 m 1,0,-1
 389 75 l 1,1,-1
 678 75 l 1,2,-1
 678 190 l 1,3,-1
 748 190 l 1,4,-1
 748 0 l 1,5,-1
 207 0 l 1,6,-1
 207 75 l 1,7,-1
 304 75 l 1,8,-1
 304 623 l 1,9,10
 181 615 181 615 130.5 582 c 128,-1,11
 80 549 80 549 80 486 c 0,12,13
 80 456 80 456 93 436.5 c 128,-1,14
 106 417 106 417 131 417 c 0,15,16
 178 417 178 417 178 496 c 1,17,-1
 258 496 l 1,18,19
 258 431 258 431 228 386.5 c 128,-1,20
 198 342 198 342 131 342 c 128,-1,21
 64 342 64 342 32 384 c 128,-1,22
 0 426 0 426 0 486 c 0,23,24
 0 584 0 584 93 642 c 128,-1,25
 186 700 186 700 389 700 c 2,26,-1
 739 700 l 1,27,-1
 739 510 l 1,28,-1
 669 510 l 1,29,-1
 669 625 l 1,30,-1
 389 625 l 1,31,-1
 389 386 l 1,32,-1
 527 386 l 1,33,-1
 527 446 l 1,34,-1
 597 446 l 1,35,-1
 597 251 l 1,36,-1
 527 251 l 1,37,-1
 527 311 l 1,38,-1
 389 311 l 1,0,-1
477 935 m 1,39,-1
 613 783 l 1,40,-1
 574 750 l 1,41,-1
 450 864 l 1,42,-1
 326 750 l 1,43,-1
 287 783 l 1,44,-1
 423 935 l 1,45,-1
 477 935 l 1,39,-1
EndSplineSet
EndChar

StartChar: Edieresis
Encoding: 203 203 140
Width: 780
GlyphClass: 2
Flags: W
LayerCount: 2
Fore
SplineSet
389 311 m 1,0,-1
 389 75 l 1,1,-1
 678 75 l 1,2,-1
 678 190 l 1,3,-1
 748 190 l 1,4,-1
 748 0 l 1,5,-1
 207 0 l 1,6,-1
 207 75 l 1,7,-1
 304 75 l 1,8,-1
 304 623 l 1,9,10
 181 615 181 615 130.5 582 c 128,-1,11
 80 549 80 549 80 486 c 0,12,13
 80 456 80 456 93 436.5 c 128,-1,14
 106 417 106 417 131 417 c 0,15,16
 178 417 178 417 178 496 c 1,17,-1
 258 496 l 1,18,19
 258 431 258 431 228 386.5 c 128,-1,20
 198 342 198 342 131 342 c 128,-1,21
 64 342 64 342 32 384 c 128,-1,22
 0 426 0 426 0 486 c 0,23,24
 0 584 0 584 93 642 c 128,-1,25
 186 700 186 700 389 700 c 2,26,-1
 739 700 l 1,27,-1
 739 510 l 1,28,-1
 669 510 l 1,29,-1
 669 625 l 1,30,-1
 389 625 l 1,31,-1
 389 386 l 1,32,-1
 527 386 l 1,33,-1
 527 446 l 1,34,-1
 597 446 l 1,35,-1
 597 251 l 1,36,-1
 527 251 l 1,37,-1
 527 311 l 1,38,-1
 389 311 l 1,0,-1
306 846 m 128,-1,40
 306 866 306 866 320 880.5 c 128,-1,41
 334 895 334 895 354 895 c 128,-1,42
 374 895 374 895 388.5 880.5 c 128,-1,43
 403 866 403 866 403 846 c 128,-1,44
 403 826 403 826 388.5 812 c 128,-1,45
 374 798 374 798 354 798 c 128,-1,46
 334 798 334 798 320 812 c 128,-1,39
 306 826 306 826 306 846 c 128,-1,40
497 846 m 128,-1,48
 497 866 497 866 511 880.5 c 128,-1,49
 525 895 525 895 545 895 c 128,-1,50
 565 895 565 895 579.5 880.5 c 128,-1,51
 594 866 594 866 594 846 c 128,-1,52
 594 826 594 826 579.5 812 c 128,-1,53
 565 798 565 798 545.5 798 c 128,-1,54
 526 798 526 798 511.5 812 c 128,-1,47
 497 826 497 826 497 846 c 128,-1,48
EndSplineSet
EndChar

StartChar: Igrave
Encoding: 204 204 141
Width: 510
GlyphClass: 2
Flags: W
LayerCount: 2
Fore
SplineSet
389 625 m 1,0,-1
 389 75 l 1,1,-1
 486 75 l 1,2,-1
 486 0 l 1,3,-1
 216 0 l 1,4,-1
 216 75 l 1,5,-1
 304 75 l 1,6,-1
 304 623 l 1,7,8
 181 615 181 615 130.5 582 c 128,-1,9
 80 549 80 549 80 486 c 0,10,11
 80 456 80 456 93 436.5 c 128,-1,12
 106 417 106 417 131 417 c 0,13,14
 178 417 178 417 178 496 c 1,15,-1
 258 496 l 1,16,17
 258 431 258 431 228 386.5 c 128,-1,18
 198 342 198 342 131 342 c 128,-1,19
 64 342 64 342 32 384 c 128,-1,20
 0 426 0 426 0 486 c 0,21,22
 0 584 0 584 93 642 c 128,-1,23
 186 700 186 700 389 700 c 2,24,-1
 486 700 l 1,25,-1
 486 625 l 1,26,-1
 389 625 l 1,0,-1
328 760 m 1,27,-1
 204 921 l 1,28,-1
 275 968 l 1,29,-1
 372 786 l 1,30,-1
 328 760 l 1,27,-1
EndSplineSet
EndChar

StartChar: Iacute
Encoding: 205 205 142
Width: 520
GlyphClass: 2
Flags: W
LayerCount: 2
Fore
SplineSet
389 625 m 1,0,-1
 389 75 l 1,1,-1
 486 75 l 1,2,-1
 486 0 l 1,3,-1
 216 0 l 1,4,-1
 216 75 l 1,5,-1
 304 75 l 1,6,-1
 304 623 l 1,7,8
 181 615 181 615 130.5 582 c 128,-1,9
 80 549 80 549 80 486 c 0,10,11
 80 456 80 456 93 436.5 c 128,-1,12
 106 417 106 417 131 417 c 0,13,14
 178 417 178 417 178 496 c 1,15,-1
 258 496 l 1,16,17
 258 431 258 431 228 386.5 c 128,-1,18
 198 342 198 342 131 342 c 128,-1,19
 64 342 64 342 32 384 c 128,-1,20
 0 426 0 426 0 486 c 0,21,22
 0 584 0 584 93 642 c 128,-1,23
 186 700 186 700 389 700 c 2,24,-1
 486 700 l 1,25,-1
 486 625 l 1,26,-1
 389 625 l 1,0,-1
496 921 m 1,27,-1
 372 760 l 1,28,-1
 328 786 l 1,29,-1
 425 968 l 1,30,-1
 496 921 l 1,27,-1
EndSplineSet
EndChar

StartChar: Icircumflex
Encoding: 206 206 143
Width: 529
GlyphClass: 2
Flags: W
LayerCount: 2
Fore
SplineSet
389 625 m 1,0,-1
 389 75 l 1,1,-1
 486 75 l 1,2,-1
 486 0 l 1,3,-1
 216 0 l 1,4,-1
 216 75 l 1,5,-1
 304 75 l 1,6,-1
 304 623 l 1,7,8
 181 615 181 615 130.5 582 c 128,-1,9
 80 549 80 549 80 486 c 0,10,11
 80 456 80 456 93 436.5 c 128,-1,12
 106 417 106 417 131 417 c 0,13,14
 178 417 178 417 178 496 c 1,15,-1
 258 496 l 1,16,17
 258 431 258 431 228 386.5 c 128,-1,18
 198 342 198 342 131 342 c 128,-1,19
 64 342 64 342 32 384 c 128,-1,20
 0 426 0 426 0 486 c 0,21,22
 0 584 0 584 93 642 c 128,-1,23
 186 700 186 700 389 700 c 2,24,-1
 486 700 l 1,25,-1
 486 625 l 1,26,-1
 389 625 l 1,0,-1
369 935 m 1,27,-1
 505 783 l 1,28,-1
 466 750 l 1,29,-1
 342 864 l 1,30,-1
 218 750 l 1,31,-1
 179 783 l 1,32,-1
 315 935 l 1,33,-1
 369 935 l 1,27,-1
EndSplineSet
EndChar

StartChar: Idieresis
Encoding: 207 207 144
Width: 510
GlyphClass: 2
Flags: W
LayerCount: 2
Fore
SplineSet
389 625 m 1,0,-1
 389 75 l 1,1,-1
 486 75 l 1,2,-1
 486 0 l 1,3,-1
 216 0 l 1,4,-1
 216 75 l 1,5,-1
 304 75 l 1,6,-1
 304 623 l 1,7,8
 181 615 181 615 130.5 582 c 128,-1,9
 80 549 80 549 80 486 c 0,10,11
 80 456 80 456 93 436.5 c 128,-1,12
 106 417 106 417 131 417 c 0,13,14
 178 417 178 417 178 496 c 1,15,-1
 258 496 l 1,16,17
 258 431 258 431 228 386.5 c 128,-1,18
 198 342 198 342 131 342 c 128,-1,19
 64 342 64 342 32 384 c 128,-1,20
 0 426 0 426 0 486 c 0,21,22
 0 584 0 584 93 642 c 128,-1,23
 186 700 186 700 389 700 c 2,24,-1
 486 700 l 1,25,-1
 486 625 l 1,26,-1
 389 625 l 1,0,-1
189 846 m 128,-1,28
 189 866 189 866 203 880.5 c 128,-1,29
 217 895 217 895 237 895 c 128,-1,30
 257 895 257 895 271.5 880.5 c 128,-1,31
 286 866 286 866 286 846 c 128,-1,32
 286 826 286 826 271.5 812 c 128,-1,33
 257 798 257 798 237.5 798 c 128,-1,34
 218 798 218 798 203.5 812 c 128,-1,27
 189 826 189 826 189 846 c 128,-1,28
380 846 m 128,-1,36
 380 866 380 866 394 880.5 c 128,-1,37
 408 895 408 895 428 895 c 128,-1,38
 448 895 448 895 462.5 880.5 c 128,-1,39
 477 866 477 866 477 846 c 128,-1,40
 477 826 477 826 462.5 812 c 128,-1,41
 448 798 448 798 428 798 c 128,-1,42
 408 798 408 798 394 812 c 128,-1,35
 380 826 380 826 380 846 c 128,-1,36
EndSplineSet
EndChar

StartChar: Eth
Encoding: 208 208 145
Width: 847
GlyphClass: 2
Flags: W
LayerCount: 2
Fore
SplineSet
509 -10 m 1,0,-1
 304 0 l 1,1,-1
 216 0 l 1,2,-1
 216 75 l 1,3,-1
 304 75 l 1,4,-1
 304 260 l 1,5,-1
 200 260 l 1,6,-1
 200 317 l 1,7,-1
 304 317 l 1,8,-1
 304 622 l 1,9,10
 182 613 182 613 131 579 c 128,-1,11
 80 545 80 545 80 486 c 0,12,13
 80 456 80 456 93 436.5 c 128,-1,14
 106 417 106 417 131 417 c 0,15,16
 178 417 178 417 178 496 c 1,17,-1
 258 496 l 1,18,19
 258 431 258 431 228 386.5 c 128,-1,20
 198 342 198 342 131 342 c 128,-1,21
 64 342 64 342 32 384 c 128,-1,22
 0 426 0 426 0 486 c 0,23,24
 0 584 0 584 93 642 c 128,-1,25
 186 700 186 700 390.5 700 c 128,-1,26
 595 700 595 700 703.5 597.5 c 128,-1,27
 812 495 812 495 812 320 c 0,28,29
 812 148 812 148 715 58 c 0,30,31
 641 -10 641 -10 509 -10 c 1,0,-1
509 65 m 0,32,33
 569 65 569 65 613 87.5 c 128,-1,34
 657 110 657 110 680 148 c 0,35,36
 722 221 722 221 722 320 c 0,37,38
 722 465 722 465 637 545 c 128,-1,39
 552 625 552 625 389 625 c 1,40,-1
 389 317 l 1,41,-1
 490 317 l 1,42,-1
 490 260 l 1,43,-1
 389 260 l 1,44,-1
 389 71 l 1,45,46
 481 65 481 65 509 65 c 0,32,33
EndSplineSet
EndChar

StartChar: Ntilde
Encoding: 209 209 146
Width: 933
GlyphClass: 2
Flags: W
LayerCount: 2
Fore
SplineSet
480 885 m 0,0,1
 510 885 510 885 550.5 867.5 c 128,-1,2
 591 850 591 850 604 846 c 1,3,-1
 662 885 l 1,4,-1
 694 861 l 1,5,6
 665 782 665 782 603 782 c 0,7,8
 573 782 573 782 532.5 799.5 c 128,-1,9
 492 817 492 817 479 821 c 1,10,-1
 421 782 l 1,11,-1
 389 806 l 1,12,13
 418 885 418 885 480 885 c 0,0,1
257 710 m 0,14,15
 336 710 336 710 382 682 c 128,-1,16
 428 654 428 654 472 583 c 2,17,-1
 741 150 l 1,18,-1
 741 625 l 1,19,-1
 654 625 l 1,20,-1
 654 700 l 1,21,-1
 923 700 l 1,22,-1
 923 625 l 1,23,-1
 826 625 l 1,24,-1
 826 0 l 1,25,-1
 741 0 l 1,26,-1
 388 564 l 1,27,-1
 388 75 l 1,28,-1
 475 75 l 1,29,-1
 475 0 l 1,30,-1
 206 0 l 1,31,-1
 206 75 l 1,32,-1
 303 75 l 1,33,-1
 303 629 l 1,34,35
 276 635 276 635 249 635 c 0,36,37
 177 635 177 635 128.5 597 c 128,-1,38
 80 559 80 559 80 496 c 0,39,40
 80 466 80 466 93 446.5 c 128,-1,41
 106 427 106 427 131 427 c 0,42,43
 178 427 178 427 178 506 c 1,44,-1
 258 506 l 1,45,46
 258 441 258 441 228 396.5 c 128,-1,47
 198 352 198 352 131 352 c 128,-1,48
 64 352 64 352 32 394 c 128,-1,49
 0 436 0 436 0 496 c 0,50,51
 0 591 0 591 67.5 650.5 c 128,-1,52
 135 710 135 710 257 710 c 0,14,15
EndSplineSet
EndChar

StartChar: Ograve
Encoding: 210 210 147
Width: 710
GlyphClass: 2
Flags: W
LayerCount: 2
Fore
SplineSet
515 330.5 m 128,-1,1
 485 286 485 286 418 286 c 128,-1,2
 351 286 351 286 319 328 c 128,-1,3
 287 370 287 370 287 430 c 0,4,5
 287 512 287 512 343 563.5 c 128,-1,6
 399 615 399 615 474 615 c 0,7,8
 546 615 546 615 606 561 c 0,9,10
 637 533 637 533 656 479 c 128,-1,11
 675 425 675 425 675 352 c 0,12,13
 675 193 675 193 589 91.5 c 128,-1,14
 503 -10 503 -10 355 -10 c 128,-1,15
 207 -10 207 -10 121 91.5 c 128,-1,16
 35 193 35 193 35 350 c 128,-1,17
 35 507 35 507 121 608.5 c 128,-1,18
 207 710 207 710 355 710 c 1,19,-1
 355 635 l 1,20,21
 251 635 251 635 188 554.5 c 128,-1,22
 125 474 125 474 125 350 c 128,-1,23
 125 226 125 226 188 145.5 c 128,-1,24
 251 65 251 65 355 65 c 128,-1,25
 459 65 459 65 522 145.5 c 128,-1,26
 585 226 585 226 585 340.5 c 128,-1,27
 585 455 585 455 552 497.5 c 128,-1,28
 519 540 519 540 475 540 c 128,-1,29
 431 540 431 540 399 509 c 128,-1,30
 367 478 367 478 367 430 c 0,31,32
 367 400 367 400 380 380.5 c 128,-1,33
 393 361 393 361 418 361 c 0,34,35
 465 361 465 361 465 440 c 1,36,-1
 545 440 l 1,37,0
 545 375 545 375 515 330.5 c 128,-1,1
377 760 m 1,38,-1
 253 921 l 1,39,-1
 324 968 l 1,40,-1
 421 786 l 1,41,-1
 377 760 l 1,38,-1
EndSplineSet
EndChar

StartChar: Oacute
Encoding: 211 211 148
Width: 710
GlyphClass: 2
Flags: W
LayerCount: 2
Fore
SplineSet
515 330.5 m 128,-1,1
 485 286 485 286 418 286 c 128,-1,2
 351 286 351 286 319 328 c 128,-1,3
 287 370 287 370 287 430 c 0,4,5
 287 512 287 512 343 563.5 c 128,-1,6
 399 615 399 615 474 615 c 0,7,8
 546 615 546 615 606 561 c 0,9,10
 637 533 637 533 656 479 c 128,-1,11
 675 425 675 425 675 352 c 0,12,13
 675 193 675 193 589 91.5 c 128,-1,14
 503 -10 503 -10 355 -10 c 128,-1,15
 207 -10 207 -10 121 91.5 c 128,-1,16
 35 193 35 193 35 350 c 128,-1,17
 35 507 35 507 121 608.5 c 128,-1,18
 207 710 207 710 355 710 c 1,19,-1
 355 635 l 1,20,21
 251 635 251 635 188 554.5 c 128,-1,22
 125 474 125 474 125 350 c 128,-1,23
 125 226 125 226 188 145.5 c 128,-1,24
 251 65 251 65 355 65 c 128,-1,25
 459 65 459 65 522 145.5 c 128,-1,26
 585 226 585 226 585 340.5 c 128,-1,27
 585 455 585 455 552 497.5 c 128,-1,28
 519 540 519 540 475 540 c 128,-1,29
 431 540 431 540 399 509 c 128,-1,30
 367 478 367 478 367 430 c 0,31,32
 367 400 367 400 380 380.5 c 128,-1,33
 393 361 393 361 418 361 c 0,34,35
 465 361 465 361 465 440 c 1,36,-1
 545 440 l 1,37,0
 545 375 545 375 515 330.5 c 128,-1,1
479 921 m 1,38,-1
 355 760 l 1,39,-1
 311 786 l 1,40,-1
 408 968 l 1,41,-1
 479 921 l 1,38,-1
EndSplineSet
EndChar

StartChar: Ocircumflex
Encoding: 212 212 149
Width: 710
GlyphClass: 2
Flags: W
LayerCount: 2
Fore
SplineSet
515 330.5 m 128,-1,1
 485 286 485 286 418 286 c 128,-1,2
 351 286 351 286 319 328 c 128,-1,3
 287 370 287 370 287 430 c 0,4,5
 287 512 287 512 343 563.5 c 128,-1,6
 399 615 399 615 474 615 c 0,7,8
 546 615 546 615 606 561 c 0,9,10
 637 533 637 533 656 479 c 128,-1,11
 675 425 675 425 675 352 c 0,12,13
 675 193 675 193 589 91.5 c 128,-1,14
 503 -10 503 -10 355 -10 c 128,-1,15
 207 -10 207 -10 121 91.5 c 128,-1,16
 35 193 35 193 35 350 c 128,-1,17
 35 507 35 507 121 608.5 c 128,-1,18
 207 710 207 710 355 710 c 1,19,-1
 355 635 l 1,20,21
 251 635 251 635 188 554.5 c 128,-1,22
 125 474 125 474 125 350 c 128,-1,23
 125 226 125 226 188 145.5 c 128,-1,24
 251 65 251 65 355 65 c 128,-1,25
 459 65 459 65 522 145.5 c 128,-1,26
 585 226 585 226 585 340.5 c 128,-1,27
 585 455 585 455 552 497.5 c 128,-1,28
 519 540 519 540 475 540 c 128,-1,29
 431 540 431 540 399 509 c 128,-1,30
 367 478 367 478 367 430 c 0,31,32
 367 400 367 400 380 380.5 c 128,-1,33
 393 361 393 361 418 361 c 0,34,35
 465 361 465 361 465 440 c 1,36,-1
 545 440 l 1,37,0
 545 375 545 375 515 330.5 c 128,-1,1
382 935 m 1,38,-1
 518 783 l 1,39,-1
 479 750 l 1,40,-1
 355 864 l 1,41,-1
 231 750 l 1,42,-1
 192 783 l 1,43,-1
 328 935 l 1,44,-1
 382 935 l 1,38,-1
EndSplineSet
EndChar

StartChar: Otilde
Encoding: 213 213 150
Width: 710
GlyphClass: 2
Flags: W
LayerCount: 2
Fore
SplineSet
515 330.5 m 128,-1,1
 485 286 485 286 418 286 c 128,-1,2
 351 286 351 286 319 328 c 128,-1,3
 287 370 287 370 287 430 c 0,4,5
 287 512 287 512 343 563.5 c 128,-1,6
 399 615 399 615 474 615 c 0,7,8
 546 615 546 615 606 561 c 0,9,10
 637 533 637 533 656 479 c 128,-1,11
 675 425 675 425 675 352 c 0,12,13
 675 193 675 193 589 91.5 c 128,-1,14
 503 -10 503 -10 355 -10 c 128,-1,15
 207 -10 207 -10 121 91.5 c 128,-1,16
 35 193 35 193 35 350 c 128,-1,17
 35 507 35 507 121 608.5 c 128,-1,18
 207 710 207 710 355 710 c 1,19,-1
 355 635 l 1,20,21
 251 635 251 635 188 554.5 c 128,-1,22
 125 474 125 474 125 350 c 128,-1,23
 125 226 125 226 188 145.5 c 128,-1,24
 251 65 251 65 355 65 c 128,-1,25
 459 65 459 65 522 145.5 c 128,-1,26
 585 226 585 226 585 340.5 c 128,-1,27
 585 455 585 455 552 497.5 c 128,-1,28
 519 540 519 540 475 540 c 128,-1,29
 431 540 431 540 399 509 c 128,-1,30
 367 478 367 478 367 430 c 0,31,32
 367 400 367 400 380 380.5 c 128,-1,33
 393 361 393 361 418 361 c 0,34,35
 465 361 465 361 465 440 c 1,36,-1
 545 440 l 1,37,0
 545 375 545 375 515 330.5 c 128,-1,1
295 885 m 0,38,39
 325 885 325 885 365.5 867.5 c 128,-1,40
 406 850 406 850 419 846 c 1,41,-1
 477 885 l 1,42,-1
 509 861 l 1,43,44
 480 782 480 782 418 782 c 0,45,46
 388 782 388 782 347.5 799.5 c 128,-1,47
 307 817 307 817 294 821 c 1,48,-1
 236 782 l 1,49,-1
 204 806 l 1,50,51
 233 885 233 885 295 885 c 0,38,39
EndSplineSet
EndChar

StartChar: Odieresis
Encoding: 214 214 151
Width: 710
GlyphClass: 2
Flags: W
LayerCount: 2
Fore
SplineSet
515 330.5 m 128,-1,1
 485 286 485 286 418 286 c 128,-1,2
 351 286 351 286 319 328 c 128,-1,3
 287 370 287 370 287 430 c 0,4,5
 287 512 287 512 343 563.5 c 128,-1,6
 399 615 399 615 474 615 c 0,7,8
 546 615 546 615 606 561 c 0,9,10
 637 533 637 533 656 479 c 128,-1,11
 675 425 675 425 675 352 c 0,12,13
 675 193 675 193 589 91.5 c 128,-1,14
 503 -10 503 -10 355 -10 c 128,-1,15
 207 -10 207 -10 121 91.5 c 128,-1,16
 35 193 35 193 35 350 c 128,-1,17
 35 507 35 507 121 608.5 c 128,-1,18
 207 710 207 710 355 710 c 1,19,-1
 355 635 l 1,20,21
 251 635 251 635 188 554.5 c 128,-1,22
 125 474 125 474 125 350 c 128,-1,23
 125 226 125 226 188 145.5 c 128,-1,24
 251 65 251 65 355 65 c 128,-1,25
 459 65 459 65 522 145.5 c 128,-1,26
 585 226 585 226 585 340.5 c 128,-1,27
 585 455 585 455 552 497.5 c 128,-1,28
 519 540 519 540 475 540 c 128,-1,29
 431 540 431 540 399 509 c 128,-1,30
 367 478 367 478 367 430 c 0,31,32
 367 400 367 400 380 380.5 c 128,-1,33
 393 361 393 361 418 361 c 0,34,35
 465 361 465 361 465 440 c 1,36,-1
 545 440 l 1,37,0
 545 375 545 375 515 330.5 c 128,-1,1
211 846 m 128,-1,39
 211 866 211 866 225 880.5 c 128,-1,40
 239 895 239 895 259 895 c 128,-1,41
 279 895 279 895 293.5 880.5 c 128,-1,42
 308 866 308 866 308 846 c 128,-1,43
 308 826 308 826 293.5 812 c 128,-1,44
 279 798 279 798 259.5 798 c 128,-1,45
 240 798 240 798 225.5 812 c 128,-1,38
 211 826 211 826 211 846 c 128,-1,39
402 846 m 128,-1,47
 402 866 402 866 416 880.5 c 128,-1,48
 430 895 430 895 450 895 c 128,-1,49
 470 895 470 895 484.5 880.5 c 128,-1,50
 499 866 499 866 499 846 c 128,-1,51
 499 826 499 826 484.5 812 c 128,-1,52
 470 798 470 798 450 798 c 128,-1,53
 430 798 430 798 416 812 c 128,-1,46
 402 826 402 826 402 846 c 128,-1,47
EndSplineSet
EndChar

StartChar: multiply
Encoding: 215 215 152
Width: 490
GlyphClass: 2
Flags: W
LayerCount: 2
Fore
SplineSet
204 290 m 1,0,-1
 94 400 l 1,1,-1
 135 440 l 1,2,-1
 244 331 l 1,3,-1
 355 441 l 1,4,-1
 397 399 l 1,5,-1
 287 288 l 1,6,-1
 396 179 l 1,7,-1
 356 138 l 1,8,-1
 246 248 l 1,9,-1
 135 137 l 1,10,-1
 93 179 l 1,11,-1
 204 290 l 1,0,-1
EndSplineSet
EndChar

StartChar: Oslash
Encoding: 216 216 153
Width: 710
GlyphClass: 2
Flags: W
LayerCount: 2
Fore
SplineSet
35 350 m 0,0,1
 35 507 35 507 121 608.5 c 128,-1,2
 207 710 207 710 355 710 c 1,3,-1
 355 635 l 1,4,5
 251 635 251 635 188 554.5 c 128,-1,6
 125 474 125 474 125 350 c 0,7,8
 125 269 125 269 153 204.5 c 128,-1,9
 181 140 181 140 232 103 c 1,10,-1
 323 323 l 1,11,12
 287 362 287 362 287 437 c 128,-1,13
 287 512 287 512 343 563.5 c 128,-1,14
 399 615 399 615 474 615 c 0,15,16
 546 615 546 615 606 561 c 0,17,18
 637 533 637 533 656 479 c 128,-1,19
 675 425 675 425 675 352 c 0,20,21
 675 193 675 193 589 91.5 c 128,-1,22
 503 -10 503 -10 355 -10 c 0,23,24
 309 -10 309 -10 265 1 c 1,25,-1
 252 -30 l 1,26,-1
 177 -30 l 1,27,-1
 200 27 l 1,28,29
 121 70 121 70 78 155 c 128,-1,30
 35 240 35 240 35 350 c 0,0,1
417 286 m 0,31,32
 399 286 399 286 384 289 c 1,33,-1
 294 73 l 1,34,35
 319 65 319 65 355 65 c 0,36,37
 459 65 459 65 522 145.5 c 128,-1,38
 585 226 585 226 585 340.5 c 128,-1,39
 585 455 585 455 552 497.5 c 128,-1,40
 519 540 519 540 475 540 c 128,-1,41
 431 540 431 540 399 509 c 128,-1,42
 367 478 367 478 367 430 c 0,43,44
 367 400 367 400 380 380.5 c 128,-1,45
 393 361 393 361 418 361 c 0,46,47
 465 361 465 361 465 440 c 1,48,-1
 545 440 l 1,49,50
 545 375 545 375 515 330.5 c 128,-1,51
 485 286 485 286 417 286 c 0,31,32
EndSplineSet
EndChar

StartChar: Ugrave
Encoding: 217 217 154
Width: 948
GlyphClass: 2
Flags: W
LayerCount: 2
Fore
SplineSet
440 113 m 128,-1,1
 491 70 491 70 571.5 70 c 128,-1,2
 652 70 652 70 704.5 113.5 c 128,-1,3
 757 157 757 157 757 220 c 2,4,-1
 757 625 l 1,5,-1
 670 625 l 1,6,-1
 670 700 l 1,7,-1
 949 700 l 1,8,-1
 949 625 l 1,9,-1
 842 625 l 1,10,-1
 842 220 l 2,11,12
 842 122 842 122 769 56 c 128,-1,13
 696 -10 696 -10 572 -10 c 128,-1,14
 448 -10 448 -10 376 55.5 c 128,-1,15
 304 121 304 121 304 220 c 2,16,-1
 304 623 l 1,17,18
 181 615 181 615 130.5 582 c 128,-1,19
 80 549 80 549 80 486 c 0,20,21
 80 456 80 456 93 436.5 c 128,-1,22
 106 417 106 417 131 417 c 0,23,24
 178 417 178 417 178 496 c 1,25,-1
 258 496 l 1,26,27
 258 431 258 431 228 386.5 c 128,-1,28
 198 342 198 342 131 342 c 128,-1,29
 64 342 64 342 32 384 c 128,-1,30
 0 426 0 426 0 486 c 0,31,32
 0 584 0 584 93 642 c 128,-1,33
 186 700 186 700 389 700 c 2,34,-1
 476 700 l 1,35,-1
 476 625 l 1,36,-1
 389 625 l 1,37,-1
 389 220 l 2,38,0
 389 156 389 156 440 113 c 128,-1,1
599 760 m 1,39,-1
 475 921 l 1,40,-1
 546 968 l 1,41,-1
 643 786 l 1,42,-1
 599 760 l 1,39,-1
EndSplineSet
EndChar

StartChar: Uacute
Encoding: 218 218 155
Width: 948
GlyphClass: 2
Flags: W
LayerCount: 2
Fore
SplineSet
440 113 m 128,-1,1
 491 70 491 70 571.5 70 c 128,-1,2
 652 70 652 70 704.5 113.5 c 128,-1,3
 757 157 757 157 757 220 c 2,4,-1
 757 625 l 1,5,-1
 670 625 l 1,6,-1
 670 700 l 1,7,-1
 949 700 l 1,8,-1
 949 625 l 1,9,-1
 842 625 l 1,10,-1
 842 220 l 2,11,12
 842 122 842 122 769 56 c 128,-1,13
 696 -10 696 -10 572 -10 c 128,-1,14
 448 -10 448 -10 376 55.5 c 128,-1,15
 304 121 304 121 304 220 c 2,16,-1
 304 623 l 1,17,18
 181 615 181 615 130.5 582 c 128,-1,19
 80 549 80 549 80 486 c 0,20,21
 80 456 80 456 93 436.5 c 128,-1,22
 106 417 106 417 131 417 c 0,23,24
 178 417 178 417 178 496 c 1,25,-1
 258 496 l 1,26,27
 258 431 258 431 228 386.5 c 128,-1,28
 198 342 198 342 131 342 c 128,-1,29
 64 342 64 342 32 384 c 128,-1,30
 0 426 0 426 0 486 c 0,31,32
 0 584 0 584 93 642 c 128,-1,33
 186 700 186 700 389 700 c 2,34,-1
 476 700 l 1,35,-1
 476 625 l 1,36,-1
 389 625 l 1,37,-1
 389 220 l 2,38,0
 389 156 389 156 440 113 c 128,-1,1
701 921 m 1,39,-1
 577 760 l 1,40,-1
 533 786 l 1,41,-1
 630 968 l 1,42,-1
 701 921 l 1,39,-1
EndSplineSet
EndChar

StartChar: Ucircumflex
Encoding: 219 219 156
Width: 948
GlyphClass: 2
Flags: W
LayerCount: 2
Fore
SplineSet
440 113 m 128,-1,1
 491 70 491 70 571.5 70 c 128,-1,2
 652 70 652 70 704.5 113.5 c 128,-1,3
 757 157 757 157 757 220 c 2,4,-1
 757 625 l 1,5,-1
 670 625 l 1,6,-1
 670 700 l 1,7,-1
 949 700 l 1,8,-1
 949 625 l 1,9,-1
 842 625 l 1,10,-1
 842 220 l 2,11,12
 842 122 842 122 769 56 c 128,-1,13
 696 -10 696 -10 572 -10 c 128,-1,14
 448 -10 448 -10 376 55.5 c 128,-1,15
 304 121 304 121 304 220 c 2,16,-1
 304 623 l 1,17,18
 181 615 181 615 130.5 582 c 128,-1,19
 80 549 80 549 80 486 c 0,20,21
 80 456 80 456 93 436.5 c 128,-1,22
 106 417 106 417 131 417 c 0,23,24
 178 417 178 417 178 496 c 1,25,-1
 258 496 l 1,26,27
 258 431 258 431 228 386.5 c 128,-1,28
 198 342 198 342 131 342 c 128,-1,29
 64 342 64 342 32 384 c 128,-1,30
 0 426 0 426 0 486 c 0,31,32
 0 584 0 584 93 642 c 128,-1,33
 186 700 186 700 389 700 c 2,34,-1
 476 700 l 1,35,-1
 476 625 l 1,36,-1
 389 625 l 1,37,-1
 389 220 l 2,38,0
 389 156 389 156 440 113 c 128,-1,1
604 935 m 1,39,-1
 740 783 l 1,40,-1
 701 750 l 1,41,-1
 577 864 l 1,42,-1
 453 750 l 1,43,-1
 414 783 l 1,44,-1
 550 935 l 1,45,-1
 604 935 l 1,39,-1
EndSplineSet
EndChar

StartChar: Udieresis
Encoding: 220 220 157
Width: 948
GlyphClass: 2
Flags: W
LayerCount: 2
Fore
SplineSet
440 113 m 128,-1,1
 491 70 491 70 571.5 70 c 128,-1,2
 652 70 652 70 704.5 113.5 c 128,-1,3
 757 157 757 157 757 220 c 2,4,-1
 757 625 l 1,5,-1
 670 625 l 1,6,-1
 670 700 l 1,7,-1
 949 700 l 1,8,-1
 949 625 l 1,9,-1
 842 625 l 1,10,-1
 842 220 l 2,11,12
 842 122 842 122 769 56 c 128,-1,13
 696 -10 696 -10 572 -10 c 128,-1,14
 448 -10 448 -10 376 55.5 c 128,-1,15
 304 121 304 121 304 220 c 2,16,-1
 304 623 l 1,17,18
 181 615 181 615 130.5 582 c 128,-1,19
 80 549 80 549 80 486 c 0,20,21
 80 456 80 456 93 436.5 c 128,-1,22
 106 417 106 417 131 417 c 0,23,24
 178 417 178 417 178 496 c 1,25,-1
 258 496 l 1,26,27
 258 431 258 431 228 386.5 c 128,-1,28
 198 342 198 342 131 342 c 128,-1,29
 64 342 64 342 32 384 c 128,-1,30
 0 426 0 426 0 486 c 0,31,32
 0 584 0 584 93 642 c 128,-1,33
 186 700 186 700 389 700 c 2,34,-1
 476 700 l 1,35,-1
 476 625 l 1,36,-1
 389 625 l 1,37,-1
 389 220 l 2,38,0
 389 156 389 156 440 113 c 128,-1,1
433 846 m 128,-1,40
 433 866 433 866 447 880.5 c 128,-1,41
 461 895 461 895 481 895 c 128,-1,42
 501 895 501 895 515.5 880.5 c 128,-1,43
 530 866 530 866 530 846 c 128,-1,44
 530 826 530 826 515.5 812 c 128,-1,45
 501 798 501 798 481.5 798 c 128,-1,46
 462 798 462 798 447.5 812 c 128,-1,39
 433 826 433 826 433 846 c 128,-1,40
624 846 m 128,-1,48
 624 866 624 866 638 880.5 c 128,-1,49
 652 895 652 895 672 895 c 128,-1,50
 692 895 692 895 706.5 880.5 c 128,-1,51
 721 866 721 866 721 846 c 128,-1,52
 721 826 721 826 706.5 812 c 128,-1,53
 692 798 692 798 672 798 c 128,-1,54
 652 798 652 798 638 812 c 128,-1,47
 624 826 624 826 624 846 c 128,-1,48
EndSplineSet
EndChar

StartChar: Yacute
Encoding: 221 221 158
Width: 745
GlyphClass: 2
Flags: W
LayerCount: 2
Fore
SplineSet
389 704 m 1,0,-1
 389 629 l 1,1,-1
 334 629 l 1,2,-1
 465 388 l 1,3,-1
 592 625 l 1,4,-1
 522 625 l 1,5,-1
 522 700 l 1,6,-1
 744 700 l 1,7,-1
 744 625 l 1,8,-1
 689 625 l 1,9,-1
 507 303 l 1,10,-1
 507 75 l 1,11,-1
 604 75 l 1,12,-1
 604 0 l 1,13,-1
 334 0 l 1,14,-1
 334 75 l 1,15,-1
 422 75 l 1,16,-1
 422 303 l 1,17,-1
 242 620 l 1,18,19
 154 608 154 608 117 576 c 128,-1,20
 80 544 80 544 80 490 c 0,21,22
 80 460 80 460 93 440.5 c 128,-1,23
 106 421 106 421 131 421 c 0,24,25
 178 421 178 421 178 500 c 1,26,-1
 258 500 l 1,27,28
 258 435 258 435 228 390.5 c 128,-1,29
 198 346 198 346 131 346 c 128,-1,30
 64 346 64 346 32 388 c 128,-1,31
 0 430 0 430 0 490 c 0,32,33
 0 588 0 588 93 646 c 128,-1,34
 186 704 186 704 389 704 c 1,0,-1
584 921 m 1,35,-1
 460 760 l 1,36,-1
 416 786 l 1,37,-1
 513 968 l 1,38,-1
 584 921 l 1,35,-1
EndSplineSet
EndChar

StartChar: Thorn
Encoding: 222 222 159
Width: 571
GlyphClass: 2
Flags: W
LayerCount: 2
Fore
SplineSet
181 65 m 1,0,-1
 268 65 l 1,1,-1
 268 0 l 1,2,-1
 18 0 l 1,3,-1
 18 65 l 1,4,-1
 96 65 l 1,5,-1
 96 626 l 1,6,-1
 19 626 l 1,7,-1
 19 691 l 1,8,-1
 268 691 l 1,9,-1
 268 626 l 1,10,-1
 181 626 l 1,11,-1
 181 583 l 1,12,13
 295 590 295 590 306 590 c 0,14,15
 423 590 423 590 484 521 c 128,-1,16
 545 452 545 452 545 348.5 c 128,-1,17
 545 245 545 245 484 177.5 c 128,-1,18
 423 110 423 110 306 110 c 0,19,20
 230 110 230 110 181 112 c 1,21,-1
 181 65 l 1,0,-1
422.5 229 m 128,-1,23
 460 273 460 273 460 351 c 128,-1,24
 460 429 460 429 422.5 472 c 128,-1,25
 385 515 385 515 321 515 c 0,26,27
 288 515 288 515 181 508 c 1,28,-1
 181 187 l 1,29,30
 217 185 217 185 321 185 c 0,31,22
 385 185 385 185 422.5 229 c 128,-1,23
EndSplineSet
EndChar

StartChar: germandbls
Encoding: 223 223 160
Width: 550
GlyphClass: 2
Flags: W
LayerCount: 2
Fore
SplineSet
249 88 m 1,0,1
 305 62 305 62 356 62 c 128,-1,2
 407 62 407 62 429.5 81.5 c 128,-1,3
 452 101 452 101 452 132 c 128,-1,4
 452 163 452 163 424 197 c 128,-1,5
 396 231 396 231 363 256 c 128,-1,6
 330 281 330 281 302 317 c 128,-1,7
 274 353 274 353 274 388.5 c 128,-1,8
 274 424 274 424 300 458 c 128,-1,9
 326 492 326 492 352 522.5 c 128,-1,10
 378 553 378 553 378 579 c 128,-1,11
 378 605 378 605 355.5 625.5 c 128,-1,12
 333 646 333 646 281.5 646 c 128,-1,13
 230 646 230 646 205.5 608 c 128,-1,14
 181 570 181 570 181 512 c 2,15,-1
 181 0 l 1,16,-1
 19 0 l 1,17,-1
 19 65 l 1,18,-1
 96 65 l 1,19,-1
 96 387 l 1,20,-1
 25 387 l 1,21,-1
 25 450 l 1,22,-1
 96 450 l 1,23,-1
 96 511 l 2,24,25
 96 556 96 556 108.5 596 c 128,-1,26
 121 636 121 636 139.5 660 c 128,-1,27
 158 684 158 684 196.5 702.5 c 128,-1,28
 235 721 235 721 288 721 c 0,29,30
 377 721 377 721 420 676.5 c 128,-1,31
 463 632 463 632 463 579 c 0,32,33
 463 548 463 548 446.5 517.5 c 128,-1,34
 430 487 430 487 411 468 c 0,35,36
 359 414 359 414 359 388 c 0,37,38
 359 361 359 361 422 306 c 0,39,40
 448 284 448 284 474 259 c 128,-1,41
 500 234 500 234 518.5 199.5 c 128,-1,42
 537 165 537 165 537 128 c 0,43,44
 537 69 537 69 492.5 28 c 128,-1,45
 448 -13 448 -13 365.5 -13 c 128,-1,46
 283 -13 283 -13 223 12 c 1,47,-1
 249 88 l 1,0,1
EndSplineSet
EndChar

StartChar: agrave
Encoding: 224 224 161
Width: 522
GlyphClass: 2
Flags: W
LayerCount: 2
Fore
SplineSet
167 -10 m 0,0,1
 98 -10 98 -10 59 29.5 c 128,-1,2
 20 69 20 69 20 135.5 c 128,-1,3
 20 202 20 202 72 247 c 128,-1,4
 124 292 124 292 226 292 c 2,5,-1
 335 292 l 1,6,-1
 335 343 l 2,7,8
 335 435 335 435 247 435 c 0,9,10
 173 435 173 435 111 417 c 1,11,-1
 111 350 l 1,12,-1
 41 350 l 1,13,-1
 41 469 l 1,14,15
 86 488 86 488 147.5 499 c 128,-1,16
 209 510 209 510 250 510 c 0,17,18
 330 510 330 510 375 464.5 c 128,-1,19
 420 419 420 419 420 343 c 2,20,-1
 420 60 l 1,21,-1
 502 60 l 1,22,-1
 502 18 l 1,23,24
 465 -5 465 -5 417 -5 c 128,-1,25
 369 -5 369 -5 352 11 c 128,-1,26
 335 27 335 27 335 65 c 1,27,28
 260 -10 260 -10 167 -10 c 0,0,1
176 65 m 0,29,30
 262 65 262 65 335 162 c 1,31,-1
 335 226 l 1,32,-1
 225 226 l 2,33,34
 164 226 164 226 134.5 202 c 128,-1,35
 105 178 105 178 105 141.5 c 128,-1,36
 105 105 105 105 123 85 c 128,-1,37
 141 65 141 65 176 65 c 0,29,30
268 560 m 1,38,-1
 144 721 l 1,39,-1
 215 768 l 1,40,-1
 312 586 l 1,41,-1
 268 560 l 1,38,-1
EndSplineSet
EndChar

StartChar: aacute
Encoding: 225 225 162
Width: 522
GlyphClass: 2
Flags: W
LayerCount: 2
Fore
SplineSet
370 721 m 1,0,-1
 246 560 l 1,1,-1
 202 586 l 1,2,-1
 299 768 l 1,3,-1
 370 721 l 1,0,-1
167 -10 m 0,4,5
 98 -10 98 -10 59 29.5 c 128,-1,6
 20 69 20 69 20 135.5 c 128,-1,7
 20 202 20 202 72 247 c 128,-1,8
 124 292 124 292 226 292 c 2,9,-1
 335 292 l 1,10,-1
 335 343 l 2,11,12
 335 435 335 435 247 435 c 0,13,14
 173 435 173 435 111 417 c 1,15,-1
 111 350 l 1,16,-1
 41 350 l 1,17,-1
 41 469 l 1,18,19
 86 488 86 488 147.5 499 c 128,-1,20
 209 510 209 510 250 510 c 0,21,22
 330 510 330 510 375 464.5 c 128,-1,23
 420 419 420 419 420 343 c 2,24,-1
 420 60 l 1,25,-1
 502 60 l 1,26,-1
 502 18 l 1,27,28
 465 -5 465 -5 417 -5 c 128,-1,29
 369 -5 369 -5 352 11 c 128,-1,30
 335 27 335 27 335 65 c 1,31,32
 260 -10 260 -10 167 -10 c 0,4,5
176 65 m 0,33,34
 262 65 262 65 335 162 c 1,35,-1
 335 226 l 1,36,-1
 225 226 l 2,37,38
 164 226 164 226 134.5 202 c 128,-1,39
 105 178 105 178 105 141.5 c 128,-1,40
 105 105 105 105 123 85 c 128,-1,41
 141 65 141 65 176 65 c 0,33,34
EndSplineSet
EndChar

StartChar: acircumflex
Encoding: 226 226 163
Width: 522
GlyphClass: 2
Flags: W
LayerCount: 2
Fore
SplineSet
273 735 m 1,0,-1
 409 583 l 1,1,-1
 370 550 l 1,2,-1
 246 664 l 1,3,-1
 122 550 l 1,4,-1
 83 583 l 1,5,-1
 219 735 l 1,6,-1
 273 735 l 1,0,-1
167 -10 m 0,7,8
 98 -10 98 -10 59 29.5 c 128,-1,9
 20 69 20 69 20 135.5 c 128,-1,10
 20 202 20 202 72 247 c 128,-1,11
 124 292 124 292 226 292 c 2,12,-1
 335 292 l 1,13,-1
 335 343 l 2,14,15
 335 435 335 435 247 435 c 0,16,17
 173 435 173 435 111 417 c 1,18,-1
 111 350 l 1,19,-1
 41 350 l 1,20,-1
 41 469 l 1,21,22
 86 488 86 488 147.5 499 c 128,-1,23
 209 510 209 510 250 510 c 0,24,25
 330 510 330 510 375 464.5 c 128,-1,26
 420 419 420 419 420 343 c 2,27,-1
 420 60 l 1,28,-1
 502 60 l 1,29,-1
 502 18 l 1,30,31
 465 -5 465 -5 417 -5 c 128,-1,32
 369 -5 369 -5 352 11 c 128,-1,33
 335 27 335 27 335 65 c 1,34,35
 260 -10 260 -10 167 -10 c 0,7,8
176 65 m 0,36,37
 262 65 262 65 335 162 c 1,38,-1
 335 226 l 1,39,-1
 225 226 l 2,40,41
 164 226 164 226 134.5 202 c 128,-1,42
 105 178 105 178 105 141.5 c 128,-1,43
 105 105 105 105 123 85 c 128,-1,44
 141 65 141 65 176 65 c 0,36,37
EndSplineSet
EndChar

StartChar: atilde
Encoding: 227 227 164
Width: 522
GlyphClass: 2
Flags: W
LayerCount: 2
Fore
SplineSet
186 685 m 0,0,1
 216 685 216 685 256.5 667.5 c 128,-1,2
 297 650 297 650 310 646 c 1,3,-1
 368 685 l 1,4,-1
 400 661 l 1,5,6
 371 582 371 582 309 582 c 0,7,8
 279 582 279 582 238.5 599.5 c 128,-1,9
 198 617 198 617 185 621 c 1,10,-1
 127 582 l 1,11,-1
 95 606 l 1,12,13
 124 685 124 685 186 685 c 0,0,1
167 -10 m 0,14,15
 98 -10 98 -10 59 29.5 c 128,-1,16
 20 69 20 69 20 135.5 c 128,-1,17
 20 202 20 202 72 247 c 128,-1,18
 124 292 124 292 226 292 c 2,19,-1
 335 292 l 1,20,-1
 335 343 l 2,21,22
 335 435 335 435 247 435 c 0,23,24
 173 435 173 435 111 417 c 1,25,-1
 111 350 l 1,26,-1
 41 350 l 1,27,-1
 41 469 l 1,28,29
 86 488 86 488 147.5 499 c 128,-1,30
 209 510 209 510 250 510 c 0,31,32
 330 510 330 510 375 464.5 c 128,-1,33
 420 419 420 419 420 343 c 2,34,-1
 420 60 l 1,35,-1
 502 60 l 1,36,-1
 502 18 l 1,37,38
 465 -5 465 -5 417 -5 c 128,-1,39
 369 -5 369 -5 352 11 c 128,-1,40
 335 27 335 27 335 65 c 1,41,42
 260 -10 260 -10 167 -10 c 0,14,15
176 65 m 0,43,44
 262 65 262 65 335 162 c 1,45,-1
 335 226 l 1,46,-1
 225 226 l 2,47,48
 164 226 164 226 134.5 202 c 128,-1,49
 105 178 105 178 105 141.5 c 128,-1,50
 105 105 105 105 123 85 c 128,-1,51
 141 65 141 65 176 65 c 0,43,44
EndSplineSet
EndChar

StartChar: adieresis
Encoding: 228 228 165
Width: 522
GlyphClass: 2
Flags: W
LayerCount: 2
Fore
SplineSet
102 646 m 128,-1,1
 102 666 102 666 116 680.5 c 128,-1,2
 130 695 130 695 150 695 c 128,-1,3
 170 695 170 695 184.5 680.5 c 128,-1,4
 199 666 199 666 199 646 c 128,-1,5
 199 626 199 626 184.5 612 c 128,-1,6
 170 598 170 598 150 598 c 128,-1,7
 130 598 130 598 116 612 c 128,-1,0
 102 626 102 626 102 646 c 128,-1,1
293 646 m 128,-1,9
 293 666 293 666 307 680.5 c 128,-1,10
 321 695 321 695 341 695 c 128,-1,11
 361 695 361 695 375.5 680.5 c 128,-1,12
 390 666 390 666 390 646 c 128,-1,13
 390 626 390 626 375.5 612 c 128,-1,14
 361 598 361 598 341.5 598 c 128,-1,15
 322 598 322 598 307.5 612 c 128,-1,8
 293 626 293 626 293 646 c 128,-1,9
167 -10 m 0,16,17
 98 -10 98 -10 59 29.5 c 128,-1,18
 20 69 20 69 20 135.5 c 128,-1,19
 20 202 20 202 72 247 c 128,-1,20
 124 292 124 292 226 292 c 2,21,-1
 335 292 l 1,22,-1
 335 343 l 2,23,24
 335 435 335 435 247 435 c 0,25,26
 173 435 173 435 111 417 c 1,27,-1
 111 350 l 1,28,-1
 41 350 l 1,29,-1
 41 469 l 1,30,31
 86 488 86 488 147.5 499 c 128,-1,32
 209 510 209 510 250 510 c 0,33,34
 330 510 330 510 375 464.5 c 128,-1,35
 420 419 420 419 420 343 c 2,36,-1
 420 60 l 1,37,-1
 502 60 l 1,38,-1
 502 18 l 1,39,40
 465 -5 465 -5 417 -5 c 128,-1,41
 369 -5 369 -5 352 11 c 128,-1,42
 335 27 335 27 335 65 c 1,43,44
 260 -10 260 -10 167 -10 c 0,16,17
176 65 m 0,45,46
 262 65 262 65 335 162 c 1,47,-1
 335 226 l 1,48,-1
 225 226 l 2,49,50
 164 226 164 226 134.5 202 c 128,-1,51
 105 178 105 178 105 141.5 c 128,-1,52
 105 105 105 105 123 85 c 128,-1,53
 141 65 141 65 176 65 c 0,45,46
EndSplineSet
EndChar

StartChar: aring
Encoding: 229 229 166
Width: 522
GlyphClass: 2
Flags: W
LayerCount: 2
Fore
SplineSet
321.5 580 m 128,-1,1
 291 550 291 550 245.5 550 c 128,-1,2
 200 550 200 550 168.5 580.5 c 128,-1,3
 137 611 137 611 137 654 c 128,-1,4
 137 697 137 697 169 728.5 c 128,-1,5
 201 760 201 760 246 760 c 128,-1,6
 291 760 291 760 321.5 729 c 128,-1,7
 352 698 352 698 352 654 c 128,-1,0
 352 610 352 610 321.5 580 c 128,-1,1
210.5 619.5 m 128,-1,9
 224 605 224 605 245.5 605 c 128,-1,10
 267 605 267 605 279.5 619 c 128,-1,11
 292 633 292 633 292 654.5 c 128,-1,12
 292 676 292 676 279.5 690.5 c 128,-1,13
 267 705 267 705 245.5 705 c 128,-1,14
 224 705 224 705 210.5 690 c 128,-1,15
 197 675 197 675 197 654.5 c 128,-1,8
 197 634 197 634 210.5 619.5 c 128,-1,9
167 -10 m 0,16,17
 98 -10 98 -10 59 29.5 c 128,-1,18
 20 69 20 69 20 135.5 c 128,-1,19
 20 202 20 202 72 247 c 128,-1,20
 124 292 124 292 226 292 c 2,21,-1
 335 292 l 1,22,-1
 335 343 l 2,23,24
 335 435 335 435 247 435 c 0,25,26
 173 435 173 435 111 417 c 1,27,-1
 111 350 l 1,28,-1
 41 350 l 1,29,-1
 41 469 l 1,30,31
 86 488 86 488 147.5 499 c 128,-1,32
 209 510 209 510 250 510 c 0,33,34
 330 510 330 510 375 464.5 c 128,-1,35
 420 419 420 419 420 343 c 2,36,-1
 420 60 l 1,37,-1
 502 60 l 1,38,-1
 502 18 l 1,39,40
 465 -5 465 -5 417 -5 c 128,-1,41
 369 -5 369 -5 352 11 c 128,-1,42
 335 27 335 27 335 65 c 1,43,44
 260 -10 260 -10 167 -10 c 0,16,17
176 65 m 0,45,46
 262 65 262 65 335 162 c 1,47,-1
 335 226 l 1,48,-1
 225 226 l 2,49,50
 164 226 164 226 134.5 202 c 128,-1,51
 105 178 105 178 105 141.5 c 128,-1,52
 105 105 105 105 123 85 c 128,-1,53
 141 65 141 65 176 65 c 0,45,46
EndSplineSet
EndChar

StartChar: ae
Encoding: 230 230 167
Width: 813
GlyphClass: 2
Flags: W
LayerCount: 2
Fore
SplineSet
783 284 m 2,0,-1
 783 231 l 1,1,-1
 430 231 l 1,2,3
 435 158 435 158 473 111.5 c 128,-1,4
 511 65 511 65 575 65 c 0,5,6
 617 65 617 65 650.5 74 c 128,-1,7
 684 83 684 83 697 90.5 c 128,-1,8
 710 98 710 98 733 113 c 1,9,-1
 770 57 l 1,10,11
 694 -10 694 -10 573.5 -10 c 128,-1,12
 453 -10 453 -10 391 82 c 1,13,14
 299 -10 299 -10 177 -10 c 0,15,16
 108 -10 108 -10 69 29.5 c 128,-1,17
 30 69 30 69 30 135.5 c 128,-1,18
 30 202 30 202 82 246.5 c 128,-1,19
 134 291 134 291 236 291 c 2,20,-1
 345 291 l 1,21,-1
 345 343 l 2,22,23
 345 435 345 435 257 435 c 0,24,25
 183 435 183 435 121 417 c 1,26,-1
 121 350 l 1,27,-1
 51 350 l 1,28,-1
 51 469 l 1,29,30
 96 488 96 488 157.5 499 c 128,-1,31
 219 510 219 510 260 510 c 0,32,33
 362 510 362 510 406 437 c 1,34,35
 469 510 469 510 572 510 c 128,-1,36
 675 510 675 510 729 447 c 128,-1,37
 783 384 783 384 783 284 c 2,0,-1
186 65 m 0,38,39
 285 65 285 65 362 142 c 1,40,41
 348 183 348 183 345 225 c 1,42,-1
 235 225 l 2,43,44
 173 225 173 225 144 201.5 c 128,-1,45
 115 178 115 178 115 141.5 c 128,-1,46
 115 105 115 105 133 85 c 128,-1,47
 151 65 151 65 186 65 c 0,38,39
661.5 399 m 128,-1,49
 631 435 631 435 574.5 435 c 128,-1,50
 518 435 518 435 482 398.5 c 128,-1,51
 446 362 446 362 434 302 c 1,52,-1
 698 302 l 1,53,48
 692 363 692 363 661.5 399 c 128,-1,49
EndSplineSet
EndChar

StartChar: ccedilla
Encoding: 231 231 168
Width: 465
GlyphClass: 2
Flags: W
LayerCount: 2
Fore
SplineSet
95.5 436.5 m 128,-1,1
 35 363 35 363 35 250 c 128,-1,2
 35 137 35 137 95.5 63.5 c 128,-1,3
 156 -10 156 -10 267.5 -10 c 128,-1,4
 379 -10 379 -10 450 57 c 1,5,-1
 413 113 l 1,6,7
 394 98 394 98 380 90 c 0,8,9
 338 65 338 65 265 65 c 0,10,11
 196 65 196 65 158 117 c 128,-1,12
 120 169 120 169 120 250 c 128,-1,13
 120 331 120 331 158 383 c 128,-1,14
 196 435 196 435 265 435 c 0,15,16
 313 435 313 435 356 417 c 1,17,-1
 356 350 l 1,18,-1
 426 350 l 1,19,-1
 426 469 l 1,20,21
 358 510 358 510 257 510 c 128,-1,0
 156 510 156 510 95.5 436.5 c 128,-1,1
349 -76 m 128,-1,23
 375 -101 375 -101 375 -152 c 128,-1,24
 375 -203 375 -203 339.5 -231.5 c 128,-1,25
 304 -260 304 -260 252 -260 c 128,-1,26
 200 -260 200 -260 157 -238 c 1,27,-1
 178 -184 l 1,28,29
 214 -200 214 -200 245 -200 c 0,30,31
 312 -200 312 -200 312 -147 c 0,32,33
 312 -96 312 -96 258 -96 c 0,34,35
 237 -96 237 -96 205 -104 c 1,36,-1
 190 -74 l 1,37,-1
 250 8 l 1,38,-1
 322 8 l 1,39,-1
 280 -47 l 1,40,22
 323 -51 323 -51 349 -76 c 128,-1,23
EndSplineSet
EndChar

StartChar: egrave
Encoding: 232 232 169
Width: 503
GlyphClass: 2
Flags: W
LayerCount: 2
Fore
SplineSet
473 284 m 2,0,-1
 473 231 l 1,1,-1
 120 231 l 1,2,3
 125 158 125 158 163 111.5 c 128,-1,4
 201 65 201 65 265 65 c 0,5,6
 307 65 307 65 340.5 74 c 128,-1,7
 374 83 374 83 387 90.5 c 128,-1,8
 400 98 400 98 423 113 c 1,9,-1
 460 57 l 1,10,11
 384 -10 384 -10 270 -10 c 128,-1,12
 156 -10 156 -10 95.5 63.5 c 128,-1,13
 35 137 35 137 35 250 c 128,-1,14
 35 363 35 363 95.5 436.5 c 128,-1,15
 156 510 156 510 260.5 510 c 128,-1,16
 365 510 365 510 419 447 c 128,-1,17
 473 384 473 384 473 284 c 2,0,-1
351.5 399 m 128,-1,19
 321 435 321 435 264.5 435 c 128,-1,20
 208 435 208 435 172 398.5 c 128,-1,21
 136 362 136 362 124 302 c 1,22,-1
 388 302 l 1,23,18
 382 363 382 363 351.5 399 c 128,-1,19
292 560 m 1,24,-1
 168 721 l 1,25,-1
 239 768 l 1,26,-1
 336 586 l 1,27,-1
 292 560 l 1,24,-1
EndSplineSet
EndChar

StartChar: eacute
Encoding: 233 233 170
Width: 503
GlyphClass: 2
Flags: W
LayerCount: 2
Fore
SplineSet
473 284 m 2,0,-1
 473 231 l 1,1,-1
 120 231 l 1,2,3
 125 158 125 158 163 111.5 c 128,-1,4
 201 65 201 65 265 65 c 0,5,6
 307 65 307 65 340.5 74 c 128,-1,7
 374 83 374 83 387 90.5 c 128,-1,8
 400 98 400 98 423 113 c 1,9,-1
 460 57 l 1,10,11
 384 -10 384 -10 270 -10 c 128,-1,12
 156 -10 156 -10 95.5 63.5 c 128,-1,13
 35 137 35 137 35 250 c 128,-1,14
 35 363 35 363 95.5 436.5 c 128,-1,15
 156 510 156 510 260.5 510 c 128,-1,16
 365 510 365 510 419 447 c 128,-1,17
 473 384 473 384 473 284 c 2,0,-1
351.5 399 m 128,-1,19
 321 435 321 435 264.5 435 c 128,-1,20
 208 435 208 435 172 398.5 c 128,-1,21
 136 362 136 362 124 302 c 1,22,-1
 388 302 l 1,23,18
 382 363 382 363 351.5 399 c 128,-1,19
394 721 m 1,24,-1
 270 560 l 1,25,-1
 226 586 l 1,26,-1
 323 768 l 1,27,-1
 394 721 l 1,24,-1
EndSplineSet
EndChar

StartChar: ecircumflex
Encoding: 234 234 171
Width: 503
GlyphClass: 2
Flags: W
LayerCount: 2
Fore
SplineSet
473 284 m 2,0,-1
 473 231 l 1,1,-1
 120 231 l 1,2,3
 125 158 125 158 163 111.5 c 128,-1,4
 201 65 201 65 265 65 c 0,5,6
 307 65 307 65 340.5 74 c 128,-1,7
 374 83 374 83 387 90.5 c 128,-1,8
 400 98 400 98 423 113 c 1,9,-1
 460 57 l 1,10,11
 384 -10 384 -10 270 -10 c 128,-1,12
 156 -10 156 -10 95.5 63.5 c 128,-1,13
 35 137 35 137 35 250 c 128,-1,14
 35 363 35 363 95.5 436.5 c 128,-1,15
 156 510 156 510 260.5 510 c 128,-1,16
 365 510 365 510 419 447 c 128,-1,17
 473 384 473 384 473 284 c 2,0,-1
351.5 399 m 128,-1,19
 321 435 321 435 264.5 435 c 128,-1,20
 208 435 208 435 172 398.5 c 128,-1,21
 136 362 136 362 124 302 c 1,22,-1
 388 302 l 1,23,18
 382 363 382 363 351.5 399 c 128,-1,19
297 735 m 1,24,-1
 433 583 l 1,25,-1
 394 550 l 1,26,-1
 270 664 l 1,27,-1
 146 550 l 1,28,-1
 107 583 l 1,29,-1
 243 735 l 1,30,-1
 297 735 l 1,24,-1
EndSplineSet
EndChar

StartChar: edieresis
Encoding: 235 235 172
Width: 503
GlyphClass: 2
Flags: W
LayerCount: 2
Fore
SplineSet
473 284 m 2,0,-1
 473 231 l 1,1,-1
 120 231 l 1,2,3
 125 158 125 158 163 111.5 c 128,-1,4
 201 65 201 65 265 65 c 0,5,6
 307 65 307 65 340.5 74 c 128,-1,7
 374 83 374 83 387 90.5 c 128,-1,8
 400 98 400 98 423 113 c 1,9,-1
 460 57 l 1,10,11
 384 -10 384 -10 270 -10 c 128,-1,12
 156 -10 156 -10 95.5 63.5 c 128,-1,13
 35 137 35 137 35 250 c 128,-1,14
 35 363 35 363 95.5 436.5 c 128,-1,15
 156 510 156 510 260.5 510 c 128,-1,16
 365 510 365 510 419 447 c 128,-1,17
 473 384 473 384 473 284 c 2,0,-1
351.5 399 m 128,-1,19
 321 435 321 435 264.5 435 c 128,-1,20
 208 435 208 435 172 398.5 c 128,-1,21
 136 362 136 362 124 302 c 1,22,-1
 388 302 l 1,23,18
 382 363 382 363 351.5 399 c 128,-1,19
126 646 m 128,-1,25
 126 666 126 666 140 680.5 c 128,-1,26
 154 695 154 695 174 695 c 128,-1,27
 194 695 194 695 208.5 680.5 c 128,-1,28
 223 666 223 666 223 646 c 128,-1,29
 223 626 223 626 208.5 612 c 128,-1,30
 194 598 194 598 174 598 c 128,-1,31
 154 598 154 598 140 612 c 128,-1,24
 126 626 126 626 126 646 c 128,-1,25
317 646 m 128,-1,33
 317 666 317 666 331 680.5 c 128,-1,34
 345 695 345 695 365 695 c 128,-1,35
 385 695 385 695 399.5 680.5 c 128,-1,36
 414 666 414 666 414 646 c 128,-1,37
 414 626 414 626 399.5 612 c 128,-1,38
 385 598 385 598 365.5 598 c 128,-1,39
 346 598 346 598 331.5 612 c 128,-1,32
 317 626 317 626 317 646 c 128,-1,33
EndSplineSet
EndChar

StartChar: igrave
Encoding: 236 236 173
Width: 315
GlyphClass: 2
Flags: W
LayerCount: 2
Fore
SplineSet
41 435 m 1,0,-1
 41 500 l 1,1,-1
 203 500 l 1,2,-1
 203 65 l 1,3,-1
 290 65 l 1,4,-1
 290 0 l 1,5,-1
 40 0 l 1,6,-1
 40 65 l 1,7,-1
 118 65 l 1,8,-1
 118 435 l 1,9,-1
 41 435 l 1,0,-1
182 560 m 1,10,-1
 58 721 l 1,11,-1
 129 768 l 1,12,-1
 226 586 l 1,13,-1
 182 560 l 1,10,-1
EndSplineSet
EndChar

StartChar: iacute
Encoding: 237 237 174
Width: 315
GlyphClass: 2
Flags: W
LayerCount: 2
Fore
SplineSet
41 435 m 1,0,-1
 41 500 l 1,1,-1
 203 500 l 1,2,-1
 203 65 l 1,3,-1
 290 65 l 1,4,-1
 290 0 l 1,5,-1
 40 0 l 1,6,-1
 40 65 l 1,7,-1
 118 65 l 1,8,-1
 118 435 l 1,9,-1
 41 435 l 1,0,-1
284 721 m 1,10,-1
 160 560 l 1,11,-1
 116 586 l 1,12,-1
 213 768 l 1,13,-1
 284 721 l 1,10,-1
EndSplineSet
EndChar

StartChar: icircumflex
Encoding: 238 238 175
Width: 315
GlyphClass: 2
Flags: W
LayerCount: 2
Fore
SplineSet
41 435 m 1,0,-1
 41 500 l 1,1,-1
 203 500 l 1,2,-1
 203 65 l 1,3,-1
 290 65 l 1,4,-1
 290 0 l 1,5,-1
 40 0 l 1,6,-1
 40 65 l 1,7,-1
 118 65 l 1,8,-1
 118 435 l 1,9,-1
 41 435 l 1,0,-1
187 735 m 1,10,-1
 323 583 l 1,11,-1
 284 550 l 1,12,-1
 160 664 l 1,13,-1
 36 550 l 1,14,-1
 -3 583 l 1,15,-1
 133 735 l 1,16,-1
 187 735 l 1,10,-1
EndSplineSet
EndChar

StartChar: idieresis
Encoding: 239 239 176
Width: 315
GlyphClass: 2
Flags: W
LayerCount: 2
Fore
SplineSet
41 435 m 1,0,-1
 41 500 l 1,1,-1
 203 500 l 1,2,-1
 203 65 l 1,3,-1
 290 65 l 1,4,-1
 290 0 l 1,5,-1
 40 0 l 1,6,-1
 40 65 l 1,7,-1
 118 65 l 1,8,-1
 118 435 l 1,9,-1
 41 435 l 1,0,-1
16 646 m 128,-1,11
 16 666 16 666 30 680.5 c 128,-1,12
 44 695 44 695 64 695 c 128,-1,13
 84 695 84 695 98.5 680.5 c 128,-1,14
 113 666 113 666 113 646 c 128,-1,15
 113 626 113 626 98.5 612 c 128,-1,16
 84 598 84 598 64 598 c 128,-1,17
 44 598 44 598 30 612 c 128,-1,10
 16 626 16 626 16 646 c 128,-1,11
207 646 m 128,-1,19
 207 666 207 666 221 680.5 c 128,-1,20
 235 695 235 695 255 695 c 128,-1,21
 275 695 275 695 289.5 680.5 c 128,-1,22
 304 666 304 666 304 646 c 128,-1,23
 304 626 304 626 289.5 612 c 128,-1,24
 275 598 275 598 255.5 598 c 128,-1,25
 236 598 236 598 221.5 612 c 128,-1,18
 207 626 207 626 207 646 c 128,-1,19
EndSplineSet
EndChar

StartChar: eth
Encoding: 240 240 177
Width: 507
GlyphClass: 2
Flags: W
LayerCount: 2
Fore
SplineSet
479 294 m 0,0,1
 479 216 479 216 458.5 156 c 128,-1,2
 438 96 438 96 385.5 55.5 c 128,-1,3
 333 15 333 15 252 15 c 0,4,5
 153 15 153 15 97.5 82.5 c 128,-1,6
 42 150 42 150 42 251.5 c 128,-1,7
 42 353 42 353 109.5 412 c 128,-1,8
 177 471 177 471 290 471 c 0,9,10
 338 471 338 471 373 458 c 1,11,12
 353 533 353 533 315 584 c 1,13,-1
 235 523 l 1,14,-1
 194 571 l 1,15,-1
 271 629 l 1,16,17
 218 669 218 669 152 676 c 1,18,-1
 171 743 l 1,19,20
 263 732 263 732 333 676 c 1,21,-1
 407 732 l 1,22,-1
 447 684 l 1,23,-1
 377 631 l 1,24,25
 479 507 479 507 479 294 c 0,0,1
299 397 m 0,26,27
 213 397 213 397 170.5 357.5 c 128,-1,28
 128 318 128 318 128 249 c 128,-1,29
 128 180 128 180 158 134.5 c 128,-1,30
 188 89 188 89 253 89 c 0,31,32
 395 89 395 89 395 283 c 0,33,34
 395 338 395 338 388 383 c 1,35,36
 351 397 351 397 299 397 c 0,26,27
EndSplineSet
EndChar

StartChar: ntilde
Encoding: 241 241 178
Width: 610
GlyphClass: 2
Flags: W
LayerCount: 2
Fore
SplineSet
182 65 m 1,0,-1
 269 65 l 1,1,-1
 269 0 l 1,2,-1
 20 0 l 1,3,-1
 20 65 l 1,4,-1
 97 65 l 1,5,-1
 97 435 l 1,6,-1
 20 435 l 1,7,-1
 20 500 l 1,8,-1
 163 500 l 1,9,-1
 175 447 l 1,10,11
 209 466 209 466 230 476.5 c 128,-1,12
 251 487 251 487 290.5 498.5 c 128,-1,13
 330 510 330 510 367 510 c 0,14,15
 453 510 453 510 485.5 459 c 128,-1,16
 518 408 518 408 518 318 c 2,17,-1
 518 60 l 1,18,-1
 600 60 l 1,19,-1
 600 18 l 1,20,21
 563 -5 563 -5 514.5 -5 c 128,-1,22
 466 -5 466 -5 449.5 11.5 c 128,-1,23
 433 28 433 28 433 65 c 2,24,-1
 433 318 l 2,25,26
 433 376 433 376 418 405.5 c 128,-1,27
 403 435 403 435 349 435 c 128,-1,28
 295 435 295 435 182 375 c 1,29,-1
 182 65 l 1,0,-1
240 685 m 0,30,31
 270 685 270 685 310.5 667.5 c 128,-1,32
 351 650 351 650 364 646 c 1,33,-1
 422 685 l 1,34,-1
 454 661 l 1,35,36
 425 582 425 582 363 582 c 0,37,38
 333 582 333 582 292.5 599.5 c 128,-1,39
 252 617 252 617 239 621 c 1,40,-1
 181 582 l 1,41,-1
 149 606 l 1,42,43
 178 685 178 685 240 685 c 0,30,31
EndSplineSet
EndChar

StartChar: ograve
Encoding: 242 242 179
Width: 550
GlyphClass: 2
Flags: W
LayerCount: 2
Fore
SplineSet
35 250 m 128,-1,1
 35 363 35 363 98 436.5 c 128,-1,2
 161 510 161 510 275 510 c 128,-1,3
 389 510 389 510 452 436.5 c 128,-1,4
 515 363 515 363 515 250 c 128,-1,5
 515 137 515 137 452 63.5 c 128,-1,6
 389 -10 389 -10 275 -10 c 128,-1,7
 161 -10 161 -10 98 63.5 c 128,-1,0
 35 137 35 137 35 250 c 128,-1,1
120 250 m 128,-1,9
 120 169 120 169 161 117 c 128,-1,10
 202 65 202 65 275 65 c 128,-1,11
 348 65 348 65 389 117 c 128,-1,12
 430 169 430 169 430 250 c 128,-1,13
 430 331 430 331 389 383 c 128,-1,14
 348 435 348 435 275 435 c 128,-1,15
 202 435 202 435 161 383 c 128,-1,8
 120 331 120 331 120 250 c 128,-1,9
297 560 m 1,16,-1
 173 721 l 1,17,-1
 244 768 l 1,18,-1
 341 586 l 1,19,-1
 297 560 l 1,16,-1
EndSplineSet
EndChar

StartChar: oacute
Encoding: 243 243 180
Width: 550
GlyphClass: 2
Flags: W
LayerCount: 2
Fore
SplineSet
35 250 m 128,-1,1
 35 363 35 363 98 436.5 c 128,-1,2
 161 510 161 510 275 510 c 128,-1,3
 389 510 389 510 452 436.5 c 128,-1,4
 515 363 515 363 515 250 c 128,-1,5
 515 137 515 137 452 63.5 c 128,-1,6
 389 -10 389 -10 275 -10 c 128,-1,7
 161 -10 161 -10 98 63.5 c 128,-1,0
 35 137 35 137 35 250 c 128,-1,1
120 250 m 128,-1,9
 120 169 120 169 161 117 c 128,-1,10
 202 65 202 65 275 65 c 128,-1,11
 348 65 348 65 389 117 c 128,-1,12
 430 169 430 169 430 250 c 128,-1,13
 430 331 430 331 389 383 c 128,-1,14
 348 435 348 435 275 435 c 128,-1,15
 202 435 202 435 161 383 c 128,-1,8
 120 331 120 331 120 250 c 128,-1,9
399 721 m 1,16,-1
 275 560 l 1,17,-1
 231 586 l 1,18,-1
 328 768 l 1,19,-1
 399 721 l 1,16,-1
EndSplineSet
EndChar

StartChar: ocircumflex
Encoding: 244 244 181
Width: 550
GlyphClass: 2
Flags: W
LayerCount: 2
Fore
SplineSet
35 250 m 128,-1,1
 35 363 35 363 98 436.5 c 128,-1,2
 161 510 161 510 275 510 c 128,-1,3
 389 510 389 510 452 436.5 c 128,-1,4
 515 363 515 363 515 250 c 128,-1,5
 515 137 515 137 452 63.5 c 128,-1,6
 389 -10 389 -10 275 -10 c 128,-1,7
 161 -10 161 -10 98 63.5 c 128,-1,0
 35 137 35 137 35 250 c 128,-1,1
120 250 m 128,-1,9
 120 169 120 169 161 117 c 128,-1,10
 202 65 202 65 275 65 c 128,-1,11
 348 65 348 65 389 117 c 128,-1,12
 430 169 430 169 430 250 c 128,-1,13
 430 331 430 331 389 383 c 128,-1,14
 348 435 348 435 275 435 c 128,-1,15
 202 435 202 435 161 383 c 128,-1,8
 120 331 120 331 120 250 c 128,-1,9
302 735 m 1,16,-1
 438 583 l 1,17,-1
 399 550 l 1,18,-1
 275 664 l 1,19,-1
 151 550 l 1,20,-1
 112 583 l 1,21,-1
 248 735 l 1,22,-1
 302 735 l 1,16,-1
EndSplineSet
EndChar

StartChar: otilde
Encoding: 245 245 182
Width: 550
GlyphClass: 2
Flags: W
LayerCount: 2
Fore
SplineSet
35 250 m 128,-1,1
 35 363 35 363 98 436.5 c 128,-1,2
 161 510 161 510 275 510 c 128,-1,3
 389 510 389 510 452 436.5 c 128,-1,4
 515 363 515 363 515 250 c 128,-1,5
 515 137 515 137 452 63.5 c 128,-1,6
 389 -10 389 -10 275 -10 c 128,-1,7
 161 -10 161 -10 98 63.5 c 128,-1,0
 35 137 35 137 35 250 c 128,-1,1
120 250 m 128,-1,9
 120 169 120 169 161 117 c 128,-1,10
 202 65 202 65 275 65 c 128,-1,11
 348 65 348 65 389 117 c 128,-1,12
 430 169 430 169 430 250 c 128,-1,13
 430 331 430 331 389 383 c 128,-1,14
 348 435 348 435 275 435 c 128,-1,15
 202 435 202 435 161 383 c 128,-1,8
 120 331 120 331 120 250 c 128,-1,9
215 685 m 0,16,17
 245 685 245 685 285.5 667.5 c 128,-1,18
 326 650 326 650 339 646 c 1,19,-1
 397 685 l 1,20,-1
 429 661 l 1,21,22
 400 582 400 582 338 582 c 0,23,24
 308 582 308 582 267.5 599.5 c 128,-1,25
 227 617 227 617 214 621 c 1,26,-1
 156 582 l 1,27,-1
 124 606 l 1,28,29
 153 685 153 685 215 685 c 0,16,17
EndSplineSet
EndChar

StartChar: odieresis
Encoding: 246 246 183
Width: 550
GlyphClass: 2
Flags: W
LayerCount: 2
Fore
SplineSet
35 250 m 128,-1,1
 35 363 35 363 98 436.5 c 128,-1,2
 161 510 161 510 275 510 c 128,-1,3
 389 510 389 510 452 436.5 c 128,-1,4
 515 363 515 363 515 250 c 128,-1,5
 515 137 515 137 452 63.5 c 128,-1,6
 389 -10 389 -10 275 -10 c 128,-1,7
 161 -10 161 -10 98 63.5 c 128,-1,0
 35 137 35 137 35 250 c 128,-1,1
120 250 m 128,-1,9
 120 169 120 169 161 117 c 128,-1,10
 202 65 202 65 275 65 c 128,-1,11
 348 65 348 65 389 117 c 128,-1,12
 430 169 430 169 430 250 c 128,-1,13
 430 331 430 331 389 383 c 128,-1,14
 348 435 348 435 275 435 c 128,-1,15
 202 435 202 435 161 383 c 128,-1,8
 120 331 120 331 120 250 c 128,-1,9
131 646 m 128,-1,17
 131 666 131 666 145 680.5 c 128,-1,18
 159 695 159 695 179 695 c 128,-1,19
 199 695 199 695 213.5 680.5 c 128,-1,20
 228 666 228 666 228 646 c 128,-1,21
 228 626 228 626 213.5 612 c 128,-1,22
 199 598 199 598 179.5 598 c 128,-1,23
 160 598 160 598 145.5 612 c 128,-1,16
 131 626 131 626 131 646 c 128,-1,17
322 646 m 128,-1,25
 322 666 322 666 336 680.5 c 128,-1,26
 350 695 350 695 370 695 c 128,-1,27
 390 695 390 695 404.5 680.5 c 128,-1,28
 419 666 419 666 419 646 c 128,-1,29
 419 626 419 626 404.5 612 c 128,-1,30
 390 598 390 598 370 598 c 128,-1,31
 350 598 350 598 336 612 c 128,-1,24
 322 626 322 626 322 646 c 128,-1,25
EndSplineSet
EndChar

StartChar: divide
Encoding: 247 247 184
Width: 370
GlyphClass: 2
Flags: W
LayerCount: 2
Fore
SplineSet
60 320 m 1,0,-1
 60 377 l 1,1,-1
 310 377 l 1,2,-1
 310 320 l 1,3,-1
 60 320 l 1,0,-1
130 190 m 128,-1,5
 130 215 130 215 147.5 232.5 c 128,-1,6
 165 250 165 250 190 250 c 128,-1,7
 215 250 215 250 232.5 232.5 c 128,-1,8
 250 215 250 215 250 190 c 128,-1,9
 250 165 250 165 232.5 147.5 c 128,-1,10
 215 130 215 130 190 130 c 128,-1,11
 165 130 165 130 147.5 147.5 c 128,-1,4
 130 165 130 165 130 190 c 128,-1,5
130 500 m 128,-1,13
 130 525 130 525 147.5 542.5 c 128,-1,14
 165 560 165 560 190 560 c 128,-1,15
 215 560 215 560 232.5 542.5 c 128,-1,16
 250 525 250 525 250 500 c 128,-1,17
 250 475 250 475 232.5 457.5 c 128,-1,18
 215 440 215 440 190 440 c 128,-1,19
 165 440 165 440 147.5 457.5 c 128,-1,12
 130 475 130 475 130 500 c 128,-1,13
EndSplineSet
EndChar

StartChar: oslash
Encoding: 248 248 185
Width: 550
GlyphClass: 2
Flags: W
LayerCount: 2
Fore
SplineSet
91 71 m 1,0,1
 35 141 35 141 35 252 c 128,-1,2
 35 363 35 363 98 436.5 c 128,-1,3
 161 510 161 510 275 510 c 0,4,5
 352 510 352 510 408 474 c 1,6,-1
 428 500 l 1,7,-1
 515 500 l 1,8,-1
 459 428 l 1,9,10
 515 357 515 357 515 247 c 128,-1,11
 515 137 515 137 452 63.5 c 128,-1,12
 389 -10 389 -10 275 -10 c 0,13,14
 198 -10 198 -10 143 25 c 1,15,-1
 124 0 l 1,16,-1
 36 0 l 1,17,-1
 91 71 l 1,0,1
161 383 m 128,-1,19
 120 331 120 331 120 257.5 c 128,-1,20
 120 184 120 184 145 140 c 1,21,-1
 358 411 l 1,22,23
 323 435 323 435 275 435 c 0,24,18
 202 435 202 435 161 383 c 128,-1,19
389 117 m 128,-1,26
 430 169 430 169 430 240 c 128,-1,27
 430 311 430 311 405 359 c 1,28,-1
 193 88 l 1,29,30
 227 65 227 65 275 65 c 0,31,25
 348 65 348 65 389 117 c 128,-1,26
EndSplineSet
EndChar

StartChar: ugrave
Encoding: 249 249 186
Width: 600
GlyphClass: 2
Flags: W
LayerCount: 2
Fore
SplineSet
346 435 m 1,0,-1
 346 500 l 1,1,-1
 508 500 l 1,2,-1
 508 60 l 1,3,-1
 590 60 l 1,4,-1
 590 18 l 1,5,6
 553 -5 553 -5 491.5 -5 c 128,-1,7
 430 -5 430 -5 424 48 c 1,8,9
 319 -11 319 -11 235.5 -11 c 128,-1,10
 152 -11 152 -11 119.5 40 c 128,-1,11
 87 91 87 91 87 181 c 2,12,-1
 87 435 l 1,13,-1
 10 435 l 1,14,-1
 10 500 l 1,15,-1
 172 500 l 1,16,-1
 172 181 l 2,17,18
 172 123 172 123 187 93.5 c 128,-1,19
 202 64 202 64 256 64 c 128,-1,20
 310 64 310 64 423 124 c 1,21,-1
 423 435 l 1,22,-1
 346 435 l 1,0,-1
312 560 m 1,23,-1
 188 721 l 1,24,-1
 259 768 l 1,25,-1
 356 586 l 1,26,-1
 312 560 l 1,23,-1
EndSplineSet
EndChar

StartChar: uacute
Encoding: 250 250 187
Width: 600
GlyphClass: 2
Flags: W
LayerCount: 2
Fore
SplineSet
346 435 m 1,0,-1
 346 500 l 1,1,-1
 508 500 l 1,2,-1
 508 60 l 1,3,-1
 590 60 l 1,4,-1
 590 18 l 1,5,6
 553 -5 553 -5 491.5 -5 c 128,-1,7
 430 -5 430 -5 424 48 c 1,8,9
 319 -11 319 -11 235.5 -11 c 128,-1,10
 152 -11 152 -11 119.5 40 c 128,-1,11
 87 91 87 91 87 181 c 2,12,-1
 87 435 l 1,13,-1
 10 435 l 1,14,-1
 10 500 l 1,15,-1
 172 500 l 1,16,-1
 172 181 l 2,17,18
 172 123 172 123 187 93.5 c 128,-1,19
 202 64 202 64 256 64 c 128,-1,20
 310 64 310 64 423 124 c 1,21,-1
 423 435 l 1,22,-1
 346 435 l 1,0,-1
414 721 m 1,23,-1
 290 560 l 1,24,-1
 246 586 l 1,25,-1
 343 768 l 1,26,-1
 414 721 l 1,23,-1
EndSplineSet
EndChar

StartChar: ucircumflex
Encoding: 251 251 188
Width: 600
GlyphClass: 2
Flags: W
LayerCount: 2
Fore
SplineSet
346 435 m 1,0,-1
 346 500 l 1,1,-1
 508 500 l 1,2,-1
 508 60 l 1,3,-1
 590 60 l 1,4,-1
 590 18 l 1,5,6
 553 -5 553 -5 491.5 -5 c 128,-1,7
 430 -5 430 -5 424 48 c 1,8,9
 319 -11 319 -11 235.5 -11 c 128,-1,10
 152 -11 152 -11 119.5 40 c 128,-1,11
 87 91 87 91 87 181 c 2,12,-1
 87 435 l 1,13,-1
 10 435 l 1,14,-1
 10 500 l 1,15,-1
 172 500 l 1,16,-1
 172 181 l 2,17,18
 172 123 172 123 187 93.5 c 128,-1,19
 202 64 202 64 256 64 c 128,-1,20
 310 64 310 64 423 124 c 1,21,-1
 423 435 l 1,22,-1
 346 435 l 1,0,-1
317 735 m 1,23,-1
 453 583 l 1,24,-1
 414 550 l 1,25,-1
 290 664 l 1,26,-1
 166 550 l 1,27,-1
 127 583 l 1,28,-1
 263 735 l 1,29,-1
 317 735 l 1,23,-1
EndSplineSet
EndChar

StartChar: udieresis
Encoding: 252 252 189
Width: 600
GlyphClass: 2
Flags: W
LayerCount: 2
Fore
SplineSet
346 435 m 1,0,-1
 346 500 l 1,1,-1
 508 500 l 1,2,-1
 508 60 l 1,3,-1
 590 60 l 1,4,-1
 590 18 l 1,5,6
 553 -5 553 -5 491.5 -5 c 128,-1,7
 430 -5 430 -5 424 48 c 1,8,9
 319 -11 319 -11 235.5 -11 c 128,-1,10
 152 -11 152 -11 119.5 40 c 128,-1,11
 87 91 87 91 87 181 c 2,12,-1
 87 435 l 1,13,-1
 10 435 l 1,14,-1
 10 500 l 1,15,-1
 172 500 l 1,16,-1
 172 181 l 2,17,18
 172 123 172 123 187 93.5 c 128,-1,19
 202 64 202 64 256 64 c 128,-1,20
 310 64 310 64 423 124 c 1,21,-1
 423 435 l 1,22,-1
 346 435 l 1,0,-1
146 646 m 128,-1,24
 146 666 146 666 160 680.5 c 128,-1,25
 174 695 174 695 194 695 c 128,-1,26
 214 695 214 695 228.5 680.5 c 128,-1,27
 243 666 243 666 243 646 c 128,-1,28
 243 626 243 626 228.5 612 c 128,-1,29
 214 598 214 598 194 598 c 128,-1,30
 174 598 174 598 160 612 c 128,-1,23
 146 626 146 626 146 646 c 128,-1,24
337 646 m 128,-1,32
 337 666 337 666 351 680.5 c 128,-1,33
 365 695 365 695 385 695 c 128,-1,34
 405 695 405 695 419.5 680.5 c 128,-1,35
 434 666 434 666 434 646 c 128,-1,36
 434 626 434 626 419.5 612 c 128,-1,37
 405 598 405 598 385.5 598 c 128,-1,38
 366 598 366 598 351.5 612 c 128,-1,31
 337 626 337 626 337 646 c 128,-1,32
EndSplineSet
EndChar

StartChar: yacute
Encoding: 253 253 190
Width: 524
GlyphClass: 2
Flags: W
LayerCount: 2
Fore
SplineSet
10 435 m 1,0,-1
 10 500 l 1,1,-1
 199 500 l 1,2,-1
 199 435 l 1,3,-1
 163 435 l 1,4,-1
 275 96 l 1,5,-1
 380 435 l 1,6,-1
 334 435 l 1,7,-1
 334 500 l 1,8,-1
 514 500 l 1,9,-1
 514 435 l 1,10,-1
 467 435 l 1,11,-1
 322 0 l 2,12,13
 284 -111 284 -111 238 -168.5 c 128,-1,14
 192 -226 192 -226 110 -226 c 0,15,16
 63 -226 63 -226 10 -208 c 1,17,-1
 34 -138 l 1,18,19
 75 -150 75 -150 104 -150 c 0,20,21
 190 -150 190 -150 236 -14 c 1,22,-1
 72 435 l 1,23,-1
 10 435 l 1,0,-1
394 721 m 1,24,-1
 270 560 l 1,25,-1
 226 586 l 1,26,-1
 323 768 l 1,27,-1
 394 721 l 1,24,-1
EndSplineSet
EndChar

StartChar: thorn
Encoding: 254 254 191
Width: 552
GlyphClass: 2
Flags: W
LayerCount: 2
Fore
SplineSet
10 -215 m 1,0,-1
 10 -150 l 1,1,-1
 87 -150 l 1,2,-1
 87 635 l 1,3,-1
 10 635 l 1,4,-1
 10 700 l 1,5,-1
 172 700 l 1,6,-1
 172 445 l 1,7,8
 231 510 231 510 323 510 c 128,-1,9
 415 510 415 510 466 437.5 c 128,-1,10
 517 365 517 365 517 251.5 c 128,-1,11
 517 138 517 138 457 64 c 128,-1,12
 397 -10 397 -10 286 -10 c 0,13,14
 234 -10 234 -10 172 10 c 1,15,-1
 172 -150 l 1,16,-1
 249 -150 l 1,17,-1
 249 -215 l 1,18,-1
 10 -215 l 1,0,-1
399 382 m 128,-1,20
 366 435 366 435 307.5 435 c 128,-1,21
 249 435 249 435 213 389 c 128,-1,22
 177 343 177 343 172 275 c 1,23,-1
 172 96 l 1,24,25
 226 65 226 65 279 65 c 0,26,27
 348 65 348 65 390 114.5 c 128,-1,28
 432 164 432 164 432 246.5 c 128,-1,19
 432 329 432 329 399 382 c 128,-1,20
EndSplineSet
EndChar

StartChar: ydieresis
Encoding: 255 255 192
Width: 524
GlyphClass: 2
Flags: W
LayerCount: 2
Fore
SplineSet
10 435 m 1,0,-1
 10 500 l 1,1,-1
 199 500 l 1,2,-1
 199 435 l 1,3,-1
 163 435 l 1,4,-1
 275 96 l 1,5,-1
 380 435 l 1,6,-1
 334 435 l 1,7,-1
 334 500 l 1,8,-1
 514 500 l 1,9,-1
 514 435 l 1,10,-1
 467 435 l 1,11,-1
 322 0 l 2,12,13
 284 -111 284 -111 238 -168.5 c 128,-1,14
 192 -226 192 -226 110 -226 c 0,15,16
 63 -226 63 -226 10 -208 c 1,17,-1
 34 -138 l 1,18,19
 75 -150 75 -150 104 -150 c 0,20,21
 190 -150 190 -150 236 -14 c 1,22,-1
 72 435 l 1,23,-1
 10 435 l 1,0,-1
126 646 m 128,-1,25
 126 666 126 666 140 680.5 c 128,-1,26
 154 695 154 695 174 695 c 128,-1,27
 194 695 194 695 208.5 680.5 c 128,-1,28
 223 666 223 666 223 646 c 128,-1,29
 223 626 223 626 208.5 612 c 128,-1,30
 194 598 194 598 174 598 c 128,-1,31
 154 598 154 598 140 612 c 128,-1,24
 126 626 126 626 126 646 c 128,-1,25
317 646 m 128,-1,33
 317 666 317 666 331 680.5 c 128,-1,34
 345 695 345 695 365 695 c 128,-1,35
 385 695 385 695 399.5 680.5 c 128,-1,36
 414 666 414 666 414 646 c 128,-1,37
 414 626 414 626 399.5 612 c 128,-1,38
 385 598 385 598 365.5 598 c 128,-1,39
 346 598 346 598 331.5 612 c 128,-1,32
 317 626 317 626 317 646 c 128,-1,33
EndSplineSet
EndChar

StartChar: Abreve
Encoding: 258 258 193
Width: 768
GlyphClass: 2
Flags: W
LayerCount: 2
Fore
SplineSet
389 700 m 2,0,-1
 564 700 l 1,1,-1
 564 625 l 1,2,-1
 504 625 l 1,3,-1
 702 75 l 1,4,-1
 768 75 l 1,5,-1
 768 0 l 1,6,-1
 556 0 l 1,7,-1
 556 75 l 1,8,-1
 615 75 l 1,9,-1
 570 206 l 1,10,-1
 296 206 l 1,11,-1
 251 75 l 1,12,-1
 311 75 l 1,13,-1
 311 0 l 1,14,-1
 99 0 l 1,15,-1
 99 75 l 1,16,-1
 164 75 l 1,17,-1
 362 624 l 1,18,19
 206 622 206 622 143 588.5 c 128,-1,20
 80 555 80 555 80 486 c 0,21,22
 80 456 80 456 93 436.5 c 128,-1,23
 106 417 106 417 131 417 c 0,24,25
 178 417 178 417 178 496 c 1,26,-1
 258 496 l 1,27,28
 258 431 258 431 228 386.5 c 128,-1,29
 198 342 198 342 131 342 c 128,-1,30
 64 342 64 342 32 384 c 128,-1,31
 0 426 0 426 0 486 c 0,32,33
 0 584 0 584 93 642 c 128,-1,34
 186 700 186 700 389 700 c 2,0,-1
433 605 m 1,35,-1
 318 271 l 1,36,-1
 548 271 l 1,37,-1
 433 605 l 1,35,-1
433 750 m 128,-1,39
 340 750 340 750 260 864 c 1,40,-1
 304 894 l 1,41,42
 361 825 361 825 410 815 c 0,43,44
 420 813 420 813 433 813 c 128,-1,45
 446 813 446 813 456 815 c 128,-1,46
 466 817 466 817 482 824 c 0,47,48
 516 838 516 838 562 894 c 1,49,-1
 606 864 l 1,50,38
 526 750 526 750 433 750 c 128,-1,39
EndSplineSet
EndChar

StartChar: abreve
Encoding: 259 259 194
Width: 522
GlyphClass: 2
Flags: W
LayerCount: 2
Fore
SplineSet
167 -10 m 0,0,1
 98 -10 98 -10 59 29.5 c 128,-1,2
 20 69 20 69 20 135.5 c 128,-1,3
 20 202 20 202 72 247 c 128,-1,4
 124 292 124 292 226 292 c 2,5,-1
 335 292 l 1,6,-1
 335 343 l 2,7,8
 335 435 335 435 247 435 c 0,9,10
 173 435 173 435 111 417 c 1,11,-1
 111 350 l 1,12,-1
 41 350 l 1,13,-1
 41 469 l 1,14,15
 86 488 86 488 147.5 499 c 128,-1,16
 209 510 209 510 250 510 c 0,17,18
 330 510 330 510 375 464.5 c 128,-1,19
 420 419 420 419 420 343 c 2,20,-1
 420 60 l 1,21,-1
 502 60 l 1,22,-1
 502 18 l 1,23,24
 465 -5 465 -5 417 -5 c 128,-1,25
 369 -5 369 -5 352 11 c 128,-1,26
 335 27 335 27 335 65 c 1,27,28
 260 -10 260 -10 167 -10 c 0,0,1
176 65 m 0,29,30
 262 65 262 65 335 162 c 1,31,-1
 335 226 l 1,32,-1
 225 226 l 2,33,34
 164 226 164 226 134.5 202 c 128,-1,35
 105 178 105 178 105 141.5 c 128,-1,36
 105 105 105 105 123 85 c 128,-1,37
 141 65 141 65 176 65 c 0,29,30
246 550 m 128,-1,39
 153 550 153 550 73 664 c 1,40,-1
 117 694 l 1,41,42
 174 625 174 625 223 615 c 0,43,44
 233 613 233 613 246 613 c 128,-1,45
 259 613 259 613 269 615 c 128,-1,46
 279 617 279 617 296 624 c 0,47,48
 329 638 329 638 375 694 c 1,49,-1
 419 664 l 1,50,38
 339 550 339 550 246 550 c 128,-1,39
EndSplineSet
EndChar

StartChar: Cacute
Encoding: 262 262 195
Width: 611
GlyphClass: 2
Flags: W
LayerCount: 2
Fore
SplineSet
550 423 m 128,-1,1
 518 381 518 381 451 381 c 128,-1,2
 384 381 384 381 354 425.5 c 128,-1,3
 324 470 324 470 324 535 c 1,4,-1
 404 535 l 1,5,6
 404 456 404 456 451 456 c 0,7,8
 476 456 476 456 489 475.5 c 128,-1,9
 502 495 502 495 502 525 c 0,10,11
 502 573 502 573 458 601.5 c 128,-1,12
 414 630 414 630 355 630 c 0,13,14
 251 630 251 630 188 550.5 c 128,-1,15
 125 471 125 471 125 350 c 128,-1,16
 125 229 125 229 188 149.5 c 128,-1,17
 251 70 251 70 354.5 70 c 128,-1,18
 458 70 458 70 540 156 c 1,19,-1
 601 106 l 1,20,21
 512 -10 512 -10 359 -10 c 128,-1,22
 206 -10 206 -10 120.5 89.5 c 128,-1,23
 35 189 35 189 35 348 c 128,-1,24
 35 507 35 507 121 608.5 c 128,-1,25
 207 710 207 710 355 710 c 0,26,27
 446 710 446 710 514 658.5 c 128,-1,28
 582 607 582 607 582 525 c 0,29,0
 582 465 582 465 550 423 c 128,-1,1
479 921 m 1,30,-1
 355 760 l 1,31,-1
 311 786 l 1,32,-1
 408 968 l 1,33,-1
 479 921 l 1,30,-1
EndSplineSet
EndChar

StartChar: cacute
Encoding: 263 263 196
Width: 465
GlyphClass: 2
Flags: W
LayerCount: 2
Fore
SplineSet
95.5 436.5 m 128,-1,1
 156 510 156 510 257 510 c 128,-1,2
 358 510 358 510 426 469 c 1,3,-1
 426 350 l 1,4,-1
 356 350 l 1,5,-1
 356 417 l 1,6,7
 313 435 313 435 265 435 c 0,8,9
 196 435 196 435 158 383 c 128,-1,10
 120 331 120 331 120 250 c 128,-1,11
 120 169 120 169 158 117 c 128,-1,12
 196 65 196 65 265 65 c 0,13,14
 338 65 338 65 380 90 c 0,15,16
 394 98 394 98 413 113 c 1,17,-1
 450 57 l 1,18,19
 379 -10 379 -10 267.5 -10 c 128,-1,20
 156 -10 156 -10 95.5 63.5 c 128,-1,21
 35 137 35 137 35 250 c 128,-1,0
 35 363 35 363 95.5 436.5 c 128,-1,1
389 721 m 1,22,-1
 265 560 l 1,23,-1
 221 586 l 1,24,-1
 318 768 l 1,25,-1
 389 721 l 1,22,-1
EndSplineSet
EndChar

StartChar: ccircumflex
Encoding: 265 265 197
Width: 465
GlyphClass: 2
Flags: W
LayerCount: 2
Fore
SplineSet
95.5 436.5 m 128,-1,1
 156 510 156 510 257 510 c 128,-1,2
 358 510 358 510 426 469 c 1,3,-1
 426 350 l 1,4,-1
 356 350 l 1,5,-1
 356 417 l 1,6,7
 313 435 313 435 265 435 c 0,8,9
 196 435 196 435 158 383 c 128,-1,10
 120 331 120 331 120 250 c 128,-1,11
 120 169 120 169 158 117 c 128,-1,12
 196 65 196 65 265 65 c 0,13,14
 304 65 304 65 335 73.5 c 128,-1,15
 366 82 366 82 379.5 90 c 128,-1,16
 393 98 393 98 413 113 c 1,17,-1
 450 57 l 1,18,19
 379 -10 379 -10 267.5 -10 c 128,-1,20
 156 -10 156 -10 95.5 63.5 c 128,-1,21
 35 137 35 137 35 250 c 128,-1,0
 35 363 35 363 95.5 436.5 c 128,-1,1
292 735 m 1,22,-1
 428 583 l 1,23,-1
 389 550 l 1,24,-1
 265 664 l 1,25,-1
 141 550 l 1,26,-1
 102 583 l 1,27,-1
 238 735 l 1,28,-1
 292 735 l 1,22,-1
EndSplineSet
EndChar

StartChar: Ccaron
Encoding: 268 268 198
Width: 611
GlyphClass: 2
Flags: W
LayerCount: 2
Fore
SplineSet
550 423 m 128,-1,1
 518 381 518 381 451 381 c 128,-1,2
 384 381 384 381 354 425.5 c 128,-1,3
 324 470 324 470 324 535 c 1,4,-1
 404 535 l 1,5,6
 404 456 404 456 451 456 c 0,7,8
 476 456 476 456 489 475.5 c 128,-1,9
 502 495 502 495 502 525 c 0,10,11
 502 573 502 573 458 601.5 c 128,-1,12
 414 630 414 630 355 630 c 0,13,14
 251 630 251 630 188 550.5 c 128,-1,15
 125 471 125 471 125 350 c 128,-1,16
 125 229 125 229 188 149.5 c 128,-1,17
 251 70 251 70 354.5 70 c 128,-1,18
 458 70 458 70 540 156 c 1,19,-1
 601 106 l 1,20,21
 512 -10 512 -10 359 -10 c 128,-1,22
 206 -10 206 -10 120.5 89.5 c 128,-1,23
 35 189 35 189 35 348 c 128,-1,24
 35 507 35 507 121 608.5 c 128,-1,25
 207 710 207 710 355 710 c 0,26,27
 446 710 446 710 514 658.5 c 128,-1,28
 582 607 582 607 582 525 c 0,29,0
 582 465 582 465 550 423 c 128,-1,1
518 902 m 1,30,-1
 382 750 l 1,31,-1
 328 750 l 1,32,-1
 192 902 l 1,33,-1
 231 935 l 1,34,-1
 355 821 l 1,35,-1
 479 935 l 1,36,-1
 518 902 l 1,30,-1
EndSplineSet
EndChar

StartChar: ccaron
Encoding: 269 269 199
Width: 465
GlyphClass: 2
Flags: W
LayerCount: 2
Fore
SplineSet
95.5 436.5 m 128,-1,1
 156 510 156 510 257 510 c 128,-1,2
 358 510 358 510 426 469 c 1,3,-1
 426 350 l 1,4,-1
 356 350 l 1,5,-1
 356 417 l 1,6,7
 313 435 313 435 265 435 c 0,8,9
 196 435 196 435 158 383 c 128,-1,10
 120 331 120 331 120 250 c 128,-1,11
 120 169 120 169 158 117 c 128,-1,12
 196 65 196 65 265 65 c 0,13,14
 304 65 304 65 335 73.5 c 128,-1,15
 366 82 366 82 379.5 90 c 128,-1,16
 393 98 393 98 413 113 c 1,17,-1
 450 57 l 1,18,19
 379 -10 379 -10 267.5 -10 c 128,-1,20
 156 -10 156 -10 95.5 63.5 c 128,-1,21
 35 137 35 137 35 250 c 128,-1,0
 35 363 35 363 95.5 436.5 c 128,-1,1
428 702 m 1,22,-1
 292 550 l 1,23,-1
 238 550 l 1,24,-1
 102 702 l 1,25,-1
 141 735 l 1,26,-1
 265 621 l 1,27,-1
 389 735 l 1,28,-1
 428 702 l 1,22,-1
EndSplineSet
EndChar

StartChar: Dcaron
Encoding: 270 270 200
Width: 847
GlyphClass: 2
Flags: W
LayerCount: 2
Fore
SplineSet
304 0 m 1,0,-1
 216 0 l 1,1,-1
 216 75 l 1,2,-1
 304 75 l 1,3,-1
 304 622 l 1,4,5
 182 613 182 613 131 579 c 128,-1,6
 80 545 80 545 80 486 c 0,7,8
 80 456 80 456 93 436.5 c 128,-1,9
 106 417 106 417 131 417 c 0,10,11
 178 417 178 417 178 496 c 1,12,-1
 258 496 l 1,13,14
 258 431 258 431 228 386.5 c 128,-1,15
 198 342 198 342 131 342 c 128,-1,16
 64 342 64 342 32 384 c 128,-1,17
 0 426 0 426 0 486 c 0,18,19
 0 584 0 584 93 642 c 128,-1,20
 186 700 186 700 390.5 700 c 128,-1,21
 595 700 595 700 703.5 597.5 c 128,-1,22
 812 495 812 495 812 320 c 0,23,24
 812 210 812 210 772 133 c 0,25,26
 697 -10 697 -10 509 -10 c 1,27,-1
 304 0 l 1,0,-1
509 65 m 0,28,29
 569 65 569 65 613 87.5 c 128,-1,30
 657 110 657 110 680 148 c 0,31,32
 722 221 722 221 722 320 c 0,33,34
 722 465 722 465 637 545 c 128,-1,35
 552 625 552 625 389 625 c 1,36,-1
 389 71 l 1,37,38
 481 65 481 65 509 65 c 0,28,29
553 902 m 1,39,-1
 417 750 l 1,40,-1
 363 750 l 1,41,-1
 227 902 l 1,42,-1
 266 935 l 1,43,-1
 390 821 l 1,44,-1
 514 935 l 1,45,-1
 553 902 l 1,39,-1
EndSplineSet
EndChar

StartChar: ebreve
Encoding: 277 277 201
Width: 503
GlyphClass: 2
Flags: W
LayerCount: 2
Fore
SplineSet
473 284 m 2,0,-1
 473 231 l 1,1,-1
 120 231 l 1,2,3
 125 158 125 158 163 111.5 c 128,-1,4
 201 65 201 65 265 65 c 0,5,6
 307 65 307 65 340.5 74 c 128,-1,7
 374 83 374 83 387 90.5 c 128,-1,8
 400 98 400 98 423 113 c 1,9,-1
 460 57 l 1,10,11
 384 -10 384 -10 270 -10 c 128,-1,12
 156 -10 156 -10 95.5 63.5 c 128,-1,13
 35 137 35 137 35 250 c 128,-1,14
 35 363 35 363 95.5 436.5 c 128,-1,15
 156 510 156 510 260.5 510 c 128,-1,16
 365 510 365 510 419 447 c 128,-1,17
 473 384 473 384 473 284 c 2,0,-1
351.5 399 m 128,-1,19
 321 435 321 435 264.5 435 c 128,-1,20
 208 435 208 435 172 398.5 c 128,-1,21
 136 362 136 362 124 302 c 1,22,-1
 388 302 l 1,23,18
 382 363 382 363 351.5 399 c 128,-1,19
270 550 m 128,-1,25
 177 550 177 550 97 664 c 1,26,-1
 141 694 l 1,27,28
 198 625 198 625 247 615 c 0,29,30
 257 613 257 613 270 613 c 128,-1,31
 283 613 283 613 293 615 c 128,-1,32
 303 617 303 617 320 624 c 0,33,34
 353 638 353 638 399 694 c 1,35,-1
 443 664 l 1,36,24
 363 550 363 550 270 550 c 128,-1,25
EndSplineSet
EndChar

StartChar: Ecaron
Encoding: 282 282 202
Width: 780
GlyphClass: 2
Flags: W
LayerCount: 2
Fore
SplineSet
389 311 m 1,0,-1
 389 75 l 1,1,-1
 678 75 l 1,2,-1
 678 190 l 1,3,-1
 748 190 l 1,4,-1
 748 0 l 1,5,-1
 207 0 l 1,6,-1
 207 75 l 1,7,-1
 304 75 l 1,8,-1
 304 623 l 1,9,10
 181 615 181 615 130.5 582 c 128,-1,11
 80 549 80 549 80 486 c 0,12,13
 80 456 80 456 93 436.5 c 128,-1,14
 106 417 106 417 131 417 c 0,15,16
 178 417 178 417 178 496 c 1,17,-1
 258 496 l 1,18,19
 258 431 258 431 228 386.5 c 128,-1,20
 198 342 198 342 131 342 c 128,-1,21
 64 342 64 342 32 384 c 128,-1,22
 0 426 0 426 0 486 c 0,23,24
 0 584 0 584 93 642 c 128,-1,25
 186 700 186 700 389 700 c 2,26,-1
 739 700 l 1,27,-1
 739 510 l 1,28,-1
 669 510 l 1,29,-1
 669 625 l 1,30,-1
 389 625 l 1,31,-1
 389 386 l 1,32,-1
 527 386 l 1,33,-1
 527 446 l 1,34,-1
 597 446 l 1,35,-1
 597 251 l 1,36,-1
 527 251 l 1,37,-1
 527 311 l 1,38,-1
 389 311 l 1,0,-1
613 902 m 1,39,-1
 477 750 l 1,40,-1
 423 750 l 1,41,-1
 287 902 l 1,42,-1
 326 935 l 1,43,-1
 450 821 l 1,44,-1
 574 935 l 1,45,-1
 613 902 l 1,39,-1
EndSplineSet
EndChar

StartChar: ecaron
Encoding: 283 283 203
Width: 503
GlyphClass: 2
Flags: W
LayerCount: 2
Fore
SplineSet
473 284 m 2,0,-1
 473 231 l 1,1,-1
 120 231 l 1,2,3
 125 158 125 158 163 111.5 c 128,-1,4
 201 65 201 65 265 65 c 0,5,6
 307 65 307 65 340.5 74 c 128,-1,7
 374 83 374 83 387 90.5 c 128,-1,8
 400 98 400 98 423 113 c 1,9,-1
 460 57 l 1,10,11
 384 -10 384 -10 270 -10 c 128,-1,12
 156 -10 156 -10 95.5 63.5 c 128,-1,13
 35 137 35 137 35 250 c 128,-1,14
 35 363 35 363 95.5 436.5 c 128,-1,15
 156 510 156 510 260.5 510 c 128,-1,16
 365 510 365 510 419 447 c 128,-1,17
 473 384 473 384 473 284 c 2,0,-1
351.5 399 m 128,-1,19
 321 435 321 435 264.5 435 c 128,-1,20
 208 435 208 435 172 398.5 c 128,-1,21
 136 362 136 362 124 302 c 1,22,-1
 388 302 l 1,23,18
 382 363 382 363 351.5 399 c 128,-1,19
433 702 m 1,24,-1
 297 550 l 1,25,-1
 243 550 l 1,26,-1
 107 702 l 1,27,-1
 146 735 l 1,28,-1
 270 621 l 1,29,-1
 394 735 l 1,30,-1
 433 702 l 1,24,-1
EndSplineSet
EndChar

StartChar: hbar
Encoding: 295 295 204
Width: 610
GlyphClass: 2
Flags: W
LayerCount: 2
Fore
SplineSet
20 556 m 1,0,-1
 20 620 l 1,1,-1
 97 620 l 1,2,-1
 97 685 l 1,3,-1
 20 685 l 1,4,-1
 20 750 l 1,5,-1
 182 750 l 1,6,-1
 182 620 l 1,7,-1
 325 620 l 1,8,-1
 325 556 l 1,9,-1
 182 556 l 1,10,-1
 182 451 l 1,11,12
 285 510 285 510 369 510 c 128,-1,13
 453 510 453 510 485.5 459 c 128,-1,14
 518 408 518 408 518 318 c 2,15,-1
 518 60 l 1,16,-1
 600 60 l 1,17,-1
 600 18 l 1,18,19
 563 -5 563 -5 514.5 -5 c 128,-1,20
 466 -5 466 -5 449.5 11.5 c 128,-1,21
 433 28 433 28 433 65 c 2,22,-1
 433 318 l 2,23,24
 433 376 433 376 418 405.5 c 128,-1,25
 403 435 403 435 349 435 c 128,-1,26
 295 435 295 435 182 375 c 1,27,-1
 182 65 l 1,28,-1
 269 65 l 1,29,-1
 269 0 l 1,30,-1
 20 0 l 1,31,-1
 20 65 l 1,32,-1
 97 65 l 1,33,-1
 97 556 l 1,34,-1
 20 556 l 1,0,-1
EndSplineSet
EndChar

StartChar: Itilde
Encoding: 296 296 205
Width: 550
GlyphClass: 2
Flags: W
LayerCount: 2
Fore
SplineSet
389 625 m 1,0,-1
 389 75 l 1,1,-1
 486 75 l 1,2,-1
 486 0 l 1,3,-1
 216 0 l 1,4,-1
 216 75 l 1,5,-1
 304 75 l 1,6,-1
 304 623 l 1,7,8
 181 615 181 615 130.5 582 c 128,-1,9
 80 549 80 549 80 486 c 0,10,11
 80 456 80 456 93 436.5 c 128,-1,12
 106 417 106 417 131 417 c 0,13,14
 178 417 178 417 178 496 c 1,15,-1
 258 496 l 1,16,17
 258 431 258 431 228 386.5 c 128,-1,18
 198 342 198 342 131 342 c 128,-1,19
 64 342 64 342 32 384 c 128,-1,20
 0 426 0 426 0 486 c 0,21,22
 0 584 0 584 93 642 c 128,-1,23
 186 700 186 700 389 700 c 2,24,-1
 486 700 l 1,25,-1
 486 625 l 1,26,-1
 389 625 l 1,0,-1
312 885 m 0,27,28
 342 885 342 885 382.5 867.5 c 128,-1,29
 423 850 423 850 436 846 c 1,30,-1
 494 885 l 1,31,-1
 526 861 l 1,32,33
 497 782 497 782 435 782 c 0,34,35
 405 782 405 782 364.5 799.5 c 128,-1,36
 324 817 324 817 311 821 c 1,37,-1
 253 782 l 1,38,-1
 221 806 l 1,39,40
 250 885 250 885 312 885 c 0,27,28
EndSplineSet
EndChar

StartChar: itilde
Encoding: 297 297 206
Width: 315
GlyphClass: 2
Flags: W
LayerCount: 2
Fore
SplineSet
41 435 m 1,0,-1
 41 500 l 1,1,-1
 203 500 l 1,2,-1
 203 65 l 1,3,-1
 290 65 l 1,4,-1
 290 0 l 1,5,-1
 40 0 l 1,6,-1
 40 65 l 1,7,-1
 118 65 l 1,8,-1
 118 435 l 1,9,-1
 41 435 l 1,0,-1
77 685 m 0,10,11
 107 685 107 685 147.5 667.5 c 128,-1,12
 188 650 188 650 201 646 c 1,13,-1
 259 685 l 1,14,-1
 291 661 l 1,15,16
 262 582 262 582 200 582 c 0,17,18
 170 582 170 582 129.5 599.5 c 128,-1,19
 89 617 89 617 76 621 c 1,20,-1
 18 582 l 1,21,-1
 -14 606 l 1,22,23
 15 685 15 685 77 685 c 0,10,11
EndSplineSet
EndChar

StartChar: dotlessi
Encoding: 305 305 207
Width: 315
GlyphClass: 2
Flags: W
LayerCount: 2
Fore
SplineSet
41 435 m 1,0,-1
 41 500 l 1,1,-1
 203 500 l 1,2,-1
 203 65 l 1,3,-1
 290 65 l 1,4,-1
 290 0 l 1,5,-1
 40 0 l 1,6,-1
 40 65 l 1,7,-1
 118 65 l 1,8,-1
 118 435 l 1,9,-1
 41 435 l 1,0,-1
EndSplineSet
EndChar

StartChar: IJ
Encoding: 306 306 208
Width: 851
GlyphClass: 2
Flags: W
LayerCount: 2
Fore
SplineSet
542 625 m 1,0,-1
 542 700 l 1,1,-1
 841 700 l 1,2,-1
 841 625 l 1,3,-1
 734 625 l 1,4,-1
 734 100 l 2,5,6
 734 -21 734 -21 676 -90.5 c 128,-1,7
 618 -160 618 -160 505 -160 c 1,8,-1
 505 -90 l 1,9,10
 574 -90 574 -90 611.5 -40 c 128,-1,11
 649 10 649 10 649 100 c 2,12,-1
 649 625 l 1,13,-1
 542 625 l 1,0,-1
389 625 m 1,14,-1
 389 75 l 1,15,-1
 486 75 l 1,16,-1
 486 0 l 1,17,-1
 216 0 l 1,18,-1
 216 75 l 1,19,-1
 304 75 l 1,20,-1
 304 623 l 1,21,22
 181 615 181 615 130.5 582 c 128,-1,23
 80 549 80 549 80 486 c 0,24,25
 80 456 80 456 93 436.5 c 128,-1,26
 106 417 106 417 131 417 c 0,27,28
 178 417 178 417 178 496 c 1,29,-1
 258 496 l 1,30,31
 258 431 258 431 228 386.5 c 128,-1,32
 198 342 198 342 131 342 c 128,-1,33
 64 342 64 342 32 384 c 128,-1,34
 0 426 0 426 0 486 c 0,35,36
 0 584 0 584 93 642 c 128,-1,37
 186 700 186 700 389 700 c 2,38,-1
 486 700 l 1,39,-1
 486 625 l 1,40,-1
 389 625 l 1,14,-1
EndSplineSet
EndChar

StartChar: ij
Encoding: 307 307 209
Width: 554
GlyphClass: 2
Flags: W
LayerCount: 2
Fore
SplineSet
41 435 m 1,0,-1
 41 500 l 1,1,-1
 203 500 l 1,2,-1
 203 65 l 1,3,-1
 290 65 l 1,4,-1
 290 0 l 1,5,-1
 40 0 l 1,6,-1
 40 65 l 1,7,-1
 118 65 l 1,8,-1
 118 435 l 1,9,-1
 41 435 l 1,0,-1
122 605 m 128,-1,11
 108 621 108 621 108 643.5 c 128,-1,12
 108 666 108 666 123.5 683 c 128,-1,13
 139 700 139 700 161 700 c 128,-1,14
 183 700 183 700 197 684 c 128,-1,15
 211 668 211 668 211 645.5 c 128,-1,16
 211 623 211 623 195.5 606 c 128,-1,17
 180 589 180 589 158 589 c 128,-1,10
 136 589 136 589 122 605 c 128,-1,11
322 434 m 1,18,-1
 322 499 l 1,19,-1
 484 499 l 1,20,-1
 484 25 l 2,21,22
 484 -88 484 -88 430.5 -156.5 c 128,-1,23
 377 -225 377 -225 263 -225 c 1,24,-1
 263 -151 l 1,25,26
 333 -151 333 -151 366 -107.5 c 128,-1,27
 399 -64 399 -64 399 25 c 2,28,-1
 399 434 l 1,29,-1
 322 434 l 1,18,-1
398 605 m 128,-1,31
 384 621 384 621 384 643.5 c 128,-1,32
 384 666 384 666 399.5 683 c 128,-1,33
 415 700 415 700 437 700 c 128,-1,34
 459 700 459 700 473 684 c 128,-1,35
 487 668 487 668 487 645.5 c 128,-1,36
 487 623 487 623 471.5 606 c 128,-1,37
 456 589 456 589 434 589 c 128,-1,30
 412 589 412 589 398 605 c 128,-1,31
EndSplineSet
EndChar

StartChar: Jcircumflex
Encoding: 308 308 210
Width: 473
GlyphClass: 2
Flags: W
LayerCount: 2
Fore
SplineSet
389 700 m 2,0,-1
 496 700 l 1,1,-1
 496 625 l 1,2,-1
 389 625 l 1,3,-1
 389 100 l 2,4,5
 389 -21 389 -21 331 -90.5 c 128,-1,6
 273 -160 273 -160 160 -160 c 1,7,-1
 160 -90 l 1,8,9
 229 -90 229 -90 266.5 -40 c 128,-1,10
 304 10 304 10 304 100 c 2,11,-1
 304 623 l 1,12,13
 181 615 181 615 130.5 582 c 128,-1,14
 80 549 80 549 80 486 c 0,15,16
 80 456 80 456 93 436.5 c 128,-1,17
 106 417 106 417 131 417 c 0,18,19
 178 417 178 417 178 496 c 1,20,-1
 258 496 l 1,21,22
 258 431 258 431 228 386.5 c 128,-1,23
 198 342 198 342 131 342 c 128,-1,24
 64 342 64 342 32 384 c 128,-1,25
 0 426 0 426 0 486 c 0,26,27
 0 584 0 584 93 642 c 128,-1,28
 186 700 186 700 389 700 c 2,0,-1
366 930 m 1,29,-1
 502 778 l 1,30,-1
 463 745 l 1,31,-1
 339 859 l 1,32,-1
 215 745 l 1,33,-1
 176 778 l 1,34,-1
 312 930 l 1,35,-1
 366 930 l 1,29,-1
EndSplineSet
EndChar

StartChar: jcircumflex
Encoding: 309 309 211
Width: 288
GlyphClass: 2
Flags: W
LayerCount: 2
Fore
SplineSet
56 435 m 1,0,-1
 56 500 l 1,1,-1
 218 500 l 1,2,-1
 218 25 l 2,3,4
 218 -88 218 -88 164.5 -156.5 c 128,-1,5
 111 -225 111 -225 -3 -225 c 1,6,-1
 -3 -151 l 1,7,8
 67 -151 67 -151 100 -107.5 c 128,-1,9
 133 -64 133 -64 133 25 c 2,10,-1
 133 435 l 1,11,-1
 56 435 l 1,0,-1
171 729 m 1,12,-1
 307 577 l 1,13,-1
 268 544 l 1,14,-1
 144 658 l 1,15,-1
 20 544 l 1,16,-1
 -19 577 l 1,17,-1
 117 729 l 1,18,-1
 171 729 l 1,12,-1
EndSplineSet
EndChar

StartChar: kcommaaccent
Encoding: 311 311 212
Width: 536
GlyphClass: 2
Flags: W
LayerCount: 2
Fore
SplineSet
222.5 -132 m 128,-1,1
 211 -114 211 -114 211 -93 c 128,-1,2
 211 -72 211 -72 228 -56.5 c 128,-1,3
 245 -41 245 -41 270 -41 c 128,-1,4
 295 -41 295 -41 312.5 -58 c 128,-1,5
 330 -75 330 -75 330 -106.5 c 128,-1,6
 330 -138 330 -138 315 -181 c 128,-1,7
 300 -224 300 -224 275 -262 c 1,8,-1
 236 -245 l 1,9,10
 261 -197 261 -197 261 -155 c 1,11,0
 234 -150 234 -150 222.5 -132 c 128,-1,1
172 65 m 1,12,-1
 249 65 l 1,13,-1
 249 0 l 1,14,-1
 10 0 l 1,15,-1
 10 65 l 1,16,-1
 87 65 l 1,17,-1
 87 685 l 1,18,-1
 10 685 l 1,19,-1
 10 750 l 1,20,-1
 172 750 l 1,21,-1
 172 281 l 1,22,-1
 233 303 l 1,23,-1
 351 435 l 1,24,-1
 314 435 l 1,25,-1
 314 500 l 1,26,-1
 502 500 l 1,27,-1
 502 435 l 1,28,-1
 459 435 l 1,29,-1
 301 263 l 1,30,-1
 460 60 l 1,31,-1
 536 60 l 1,32,-1
 536 18 l 1,33,34
 514 5 514 5 497 0 c 128,-1,35
 480 -5 480 -5 443 -5 c 128,-1,36
 406 -5 406 -5 377 33 c 2,37,-1
 233 222 l 1,38,-1
 172 200 l 1,39,-1
 172 65 l 1,12,-1
EndSplineSet
EndChar

StartChar: kgreenlandic
Encoding: 312 312 213
Width: 536
GlyphClass: 2
Flags: W
LayerCount: 2
Fore
SplineSet
172 65 m 1,0,-1
 249 65 l 1,1,-1
 249 0 l 1,2,-1
 10 0 l 1,3,-1
 10 65 l 1,4,-1
 87 65 l 1,5,-1
 87 435 l 1,6,-1
 10 435 l 1,7,-1
 10 500 l 1,8,-1
 172 500 l 1,9,-1
 172 281 l 1,10,-1
 233 303 l 1,11,-1
 351 435 l 1,12,-1
 314 435 l 1,13,-1
 314 500 l 1,14,-1
 502 500 l 1,15,-1
 502 435 l 1,16,-1
 459 435 l 1,17,-1
 301 263 l 1,18,-1
 460 60 l 1,19,-1
 536 60 l 1,20,-1
 536 18 l 1,21,22
 514 5 514 5 497 0 c 128,-1,23
 480 -5 480 -5 443 -5 c 128,-1,24
 406 -5 406 -5 377 33 c 2,25,-1
 233 222 l 1,26,-1
 172 200 l 1,27,-1
 172 65 l 1,0,-1
222.5 -132 m 128,-1,29
 211 -114 211 -114 211 -93 c 128,-1,30
 211 -72 211 -72 228 -56.5 c 128,-1,31
 245 -41 245 -41 270 -41 c 128,-1,32
 295 -41 295 -41 312.5 -58 c 128,-1,33
 330 -75 330 -75 330 -106.5 c 128,-1,34
 330 -138 330 -138 315 -181 c 128,-1,35
 300 -224 300 -224 275 -262 c 1,36,-1
 236 -245 l 1,37,38
 261 -197 261 -197 261 -155 c 1,39,28
 234 -150 234 -150 222.5 -132 c 128,-1,29
EndSplineSet
EndChar

StartChar: Lacute
Encoding: 313 313 214
Width: 764
GlyphClass: 2
Flags: W
LayerCount: 2
Fore
SplineSet
389 625 m 1,0,-1
 389 75 l 1,1,-1
 668 75 l 1,2,-1
 668 190 l 1,3,-1
 738 190 l 1,4,-1
 738 0 l 1,5,-1
 207 0 l 1,6,-1
 207 75 l 1,7,-1
 304 75 l 1,8,-1
 304 623 l 1,9,10
 181 615 181 615 130.5 582 c 128,-1,11
 80 549 80 549 80 486 c 0,12,13
 80 456 80 456 93 436.5 c 128,-1,14
 106 417 106 417 131 417 c 0,15,16
 178 417 178 417 178 496 c 1,17,-1
 258 496 l 1,18,19
 258 431 258 431 228 386.5 c 128,-1,20
 198 342 198 342 131 342 c 128,-1,21
 64 342 64 342 32 384 c 128,-1,22
 0 426 0 426 0 486 c 0,23,24
 0 580 0 580 84 640 c 128,-1,25
 168 700 168 700 348 700 c 2,26,-1
 476 700 l 1,27,-1
 476 625 l 1,28,-1
 389 625 l 1,0,-1
474 921 m 1,29,-1
 350 760 l 1,30,-1
 306 786 l 1,31,-1
 403 968 l 1,32,-1
 474 921 l 1,29,-1
EndSplineSet
EndChar

StartChar: lacute
Encoding: 314 314 215
Width: 295
GlyphClass: 2
Flags: W
LayerCount: 2
Fore
SplineSet
21 685 m 1,0,-1
 21 750 l 1,1,-1
 183 750 l 1,2,-1
 183 65 l 1,3,-1
 270 65 l 1,4,-1
 270 0 l 1,5,-1
 20 0 l 1,6,-1
 20 65 l 1,7,-1
 98 65 l 1,8,-1
 98 685 l 1,9,-1
 21 685 l 1,0,-1
269 953 m 1,10,-1
 145 792 l 1,11,-1
 101 818 l 1,12,-1
 198 1000 l 1,13,-1
 269 953 l 1,10,-1
EndSplineSet
EndChar

StartChar: Ldotaccent
Encoding: 319 319 216
Width: 764
GlyphClass: 2
Flags: W
LayerCount: 2
Fore
SplineSet
389 625 m 1,0,-1
 389 75 l 1,1,-1
 668 75 l 1,2,-1
 668 190 l 1,3,-1
 738 190 l 1,4,-1
 738 0 l 1,5,-1
 207 0 l 1,6,-1
 207 75 l 1,7,-1
 304 75 l 1,8,-1
 304 623 l 1,9,10
 181 615 181 615 130.5 582 c 128,-1,11
 80 549 80 549 80 486 c 0,12,13
 80 456 80 456 93 436.5 c 128,-1,14
 106 417 106 417 131 417 c 0,15,16
 178 417 178 417 178 496 c 1,17,-1
 258 496 l 1,18,19
 258 431 258 431 228 386.5 c 128,-1,20
 198 342 198 342 131 342 c 128,-1,21
 64 342 64 342 32 384 c 128,-1,22
 0 426 0 426 0 486 c 0,23,24
 0 582 0 582 91 641 c 128,-1,25
 182 700 182 700 389 700 c 2,26,-1
 476 700 l 1,27,-1
 476 625 l 1,28,-1
 389 625 l 1,0,-1
506 330 m 128,-1,30
 489 347 489 347 489 371.5 c 128,-1,31
 489 396 489 396 506 413 c 128,-1,32
 523 430 523 430 547.5 430 c 128,-1,33
 572 430 572 430 589 413 c 128,-1,34
 606 396 606 396 606 371.5 c 128,-1,35
 606 347 606 347 589 330 c 128,-1,36
 572 313 572 313 547.5 313 c 128,-1,29
 523 313 523 313 506 330 c 128,-1,30
EndSplineSet
EndChar

StartChar: ldot
Encoding: 320 320 217
Width: 359
GlyphClass: 2
Flags: W
LayerCount: 2
Fore
SplineSet
21 685 m 1,0,-1
 21 750 l 1,1,-1
 183 750 l 1,2,-1
 183 65 l 1,3,-1
 270 65 l 1,4,-1
 270 0 l 1,5,-1
 20 0 l 1,6,-1
 20 65 l 1,7,-1
 98 65 l 1,8,-1
 98 685 l 1,9,-1
 21 685 l 1,0,-1
262 340 m 128,-1,11
 245 357 245 357 245 381.5 c 128,-1,12
 245 406 245 406 262 423 c 128,-1,13
 279 440 279 440 303.5 440 c 128,-1,14
 328 440 328 440 345 423 c 128,-1,15
 362 406 362 406 362 381.5 c 128,-1,16
 362 357 362 357 345 340 c 128,-1,17
 328 323 328 323 303.5 323 c 128,-1,10
 279 323 279 323 262 340 c 128,-1,11
EndSplineSet
EndChar

StartChar: Lslash
Encoding: 321 321 218
Width: 764
GlyphClass: 2
Flags: W
LayerCount: 2
Fore
SplineSet
389 625 m 1,0,-1
 389 378 l 1,1,-1
 518 417 l 1,2,-1
 539 357 l 1,3,-1
 389 312 l 1,4,-1
 389 75 l 1,5,-1
 668 75 l 1,6,-1
 668 190 l 1,7,-1
 738 190 l 1,8,-1
 738 0 l 1,9,-1
 207 0 l 1,10,-1
 207 75 l 1,11,-1
 304 75 l 1,12,-1
 304 287 l 1,13,-1
 201 257 l 1,14,-1
 180 317 l 1,15,-1
 304 353 l 1,16,-1
 304 623 l 1,17,18
 181 615 181 615 130.5 582 c 128,-1,19
 80 549 80 549 80 486 c 0,20,21
 80 456 80 456 93 436.5 c 128,-1,22
 106 417 106 417 131 417 c 0,23,24
 178 417 178 417 178 496 c 1,25,-1
 258 496 l 1,26,27
 258 431 258 431 228 386.5 c 128,-1,28
 198 342 198 342 131 342 c 128,-1,29
 64 342 64 342 32 384 c 128,-1,30
 0 426 0 426 0 486 c 0,31,32
 0 580 0 580 84 640 c 128,-1,33
 168 700 168 700 348 700 c 2,34,-1
 476 700 l 1,35,-1
 476 625 l 1,36,-1
 389 625 l 1,0,-1
EndSplineSet
EndChar

StartChar: lslash
Encoding: 322 322 219
Width: 295
GlyphClass: 2
Flags: W
LayerCount: 2
Fore
SplineSet
21 685 m 1,0,-1
 21 750 l 1,1,-1
 183 750 l 1,2,-1
 183 411 l 1,3,-1
 249 430 l 1,4,-1
 270 370 l 1,5,-1
 183 344 l 1,6,-1
 183 65 l 1,7,-1
 270 65 l 1,8,-1
 270 0 l 1,9,-1
 20 0 l 1,10,-1
 20 65 l 1,11,-1
 98 65 l 1,12,-1
 98 320 l 1,13,-1
 40 303 l 1,14,-1
 19 363 l 1,15,-1
 98 386 l 1,16,-1
 98 685 l 1,17,-1
 21 685 l 1,0,-1
EndSplineSet
EndChar

StartChar: Nacute
Encoding: 323 323 220
Width: 933
GlyphClass: 2
Flags: W
LayerCount: 2
Fore
SplineSet
664 921 m 1,0,-1
 540 760 l 1,1,-1
 496 786 l 1,2,-1
 593 968 l 1,3,-1
 664 921 l 1,0,-1
257 710 m 0,4,5
 336 710 336 710 382 682 c 128,-1,6
 428 654 428 654 472 583 c 2,7,-1
 741 150 l 1,8,-1
 741 625 l 1,9,-1
 654 625 l 1,10,-1
 654 700 l 1,11,-1
 923 700 l 1,12,-1
 923 625 l 1,13,-1
 826 625 l 1,14,-1
 826 0 l 1,15,-1
 741 0 l 1,16,-1
 388 564 l 1,17,-1
 388 75 l 1,18,-1
 475 75 l 1,19,-1
 475 0 l 1,20,-1
 206 0 l 1,21,-1
 206 75 l 1,22,-1
 303 75 l 1,23,-1
 303 629 l 1,24,25
 276 635 276 635 249 635 c 0,26,27
 177 635 177 635 128.5 597 c 128,-1,28
 80 559 80 559 80 496 c 0,29,30
 80 466 80 466 93 446.5 c 128,-1,31
 106 427 106 427 131 427 c 0,32,33
 178 427 178 427 178 506 c 1,34,-1
 258 506 l 1,35,36
 258 441 258 441 228 396.5 c 128,-1,37
 198 352 198 352 131 352 c 128,-1,38
 64 352 64 352 32 394 c 128,-1,39
 0 436 0 436 0 496 c 0,40,41
 0 591 0 591 67.5 650.5 c 128,-1,42
 135 710 135 710 257 710 c 0,4,5
EndSplineSet
EndChar

StartChar: nacute
Encoding: 324 324 221
Width: 610
GlyphClass: 2
Flags: W
LayerCount: 2
Fore
SplineSet
182 65 m 1,0,-1
 269 65 l 1,1,-1
 269 0 l 1,2,-1
 20 0 l 1,3,-1
 20 65 l 1,4,-1
 97 65 l 1,5,-1
 97 435 l 1,6,-1
 20 435 l 1,7,-1
 20 500 l 1,8,-1
 163 500 l 1,9,-1
 175 447 l 1,10,11
 209 466 209 466 230 476.5 c 128,-1,12
 251 487 251 487 290.5 498.5 c 128,-1,13
 330 510 330 510 367 510 c 0,14,15
 453 510 453 510 485.5 459 c 128,-1,16
 518 408 518 408 518 318 c 2,17,-1
 518 60 l 1,18,-1
 600 60 l 1,19,-1
 600 18 l 1,20,21
 563 -5 563 -5 514.5 -5 c 128,-1,22
 466 -5 466 -5 449.5 11.5 c 128,-1,23
 433 28 433 28 433 65 c 2,24,-1
 433 318 l 2,25,26
 433 376 433 376 418 405.5 c 128,-1,27
 403 435 403 435 349 435 c 128,-1,28
 295 435 295 435 182 375 c 1,29,-1
 182 65 l 1,0,-1
424 721 m 1,30,-1
 300 560 l 1,31,-1
 256 586 l 1,32,-1
 353 768 l 1,33,-1
 424 721 l 1,30,-1
EndSplineSet
EndChar

StartChar: Ncaron
Encoding: 327 327 222
Width: 933
GlyphClass: 2
Flags: W
LayerCount: 2
Fore
SplineSet
703 902 m 1,0,-1
 567 750 l 1,1,-1
 513 750 l 1,2,-1
 377 902 l 1,3,-1
 416 935 l 1,4,-1
 540 821 l 1,5,-1
 664 935 l 1,6,-1
 703 902 l 1,0,-1
257 710 m 0,7,8
 336 710 336 710 382 682 c 128,-1,9
 428 654 428 654 472 583 c 2,10,-1
 741 150 l 1,11,-1
 741 625 l 1,12,-1
 654 625 l 1,13,-1
 654 700 l 1,14,-1
 923 700 l 1,15,-1
 923 625 l 1,16,-1
 826 625 l 1,17,-1
 826 0 l 1,18,-1
 741 0 l 1,19,-1
 388 564 l 1,20,-1
 388 75 l 1,21,-1
 475 75 l 1,22,-1
 475 0 l 1,23,-1
 206 0 l 1,24,-1
 206 75 l 1,25,-1
 303 75 l 1,26,-1
 303 629 l 1,27,28
 276 635 276 635 249 635 c 0,29,30
 177 635 177 635 128.5 597 c 128,-1,31
 80 559 80 559 80 496 c 0,32,33
 80 466 80 466 93 446.5 c 128,-1,34
 106 427 106 427 131 427 c 0,35,36
 178 427 178 427 178 506 c 1,37,-1
 258 506 l 1,38,39
 258 441 258 441 228 396.5 c 128,-1,40
 198 352 198 352 131 352 c 128,-1,41
 64 352 64 352 32 394 c 128,-1,42
 0 436 0 436 0 496 c 0,43,44
 0 591 0 591 67.5 650.5 c 128,-1,45
 135 710 135 710 257 710 c 0,7,8
EndSplineSet
EndChar

StartChar: ncaron
Encoding: 328 328 223
Width: 610
GlyphClass: 2
Flags: W
LayerCount: 2
Fore
SplineSet
182 65 m 1,0,-1
 269 65 l 1,1,-1
 269 0 l 1,2,-1
 20 0 l 1,3,-1
 20 65 l 1,4,-1
 97 65 l 1,5,-1
 97 435 l 1,6,-1
 20 435 l 1,7,-1
 20 500 l 1,8,-1
 163 500 l 1,9,-1
 175 447 l 1,10,11
 209 466 209 466 230 476.5 c 128,-1,12
 251 487 251 487 290.5 498.5 c 128,-1,13
 330 510 330 510 367 510 c 0,14,15
 453 510 453 510 485.5 459 c 128,-1,16
 518 408 518 408 518 318 c 2,17,-1
 518 60 l 1,18,-1
 600 60 l 1,19,-1
 600 18 l 1,20,21
 563 -5 563 -5 514.5 -5 c 128,-1,22
 466 -5 466 -5 449.5 11.5 c 128,-1,23
 433 28 433 28 433 65 c 2,24,-1
 433 318 l 2,25,26
 433 376 433 376 418 405.5 c 128,-1,27
 403 435 403 435 349 435 c 128,-1,28
 295 435 295 435 182 375 c 1,29,-1
 182 65 l 1,0,-1
463 702 m 1,30,-1
 327 550 l 1,31,-1
 273 550 l 1,32,-1
 137 702 l 1,33,-1
 176 735 l 1,34,-1
 300 621 l 1,35,-1
 424 735 l 1,36,-1
 463 702 l 1,30,-1
EndSplineSet
EndChar

StartChar: obreve
Encoding: 335 335 224
Width: 550
GlyphClass: 2
Flags: W
LayerCount: 2
Fore
SplineSet
35 250 m 128,-1,1
 35 363 35 363 98 436.5 c 128,-1,2
 161 510 161 510 275 510 c 128,-1,3
 389 510 389 510 452 436.5 c 128,-1,4
 515 363 515 363 515 250 c 128,-1,5
 515 137 515 137 452 63.5 c 128,-1,6
 389 -10 389 -10 275 -10 c 128,-1,7
 161 -10 161 -10 98 63.5 c 128,-1,0
 35 137 35 137 35 250 c 128,-1,1
120 250 m 128,-1,9
 120 169 120 169 161 117 c 128,-1,10
 202 65 202 65 275 65 c 128,-1,11
 348 65 348 65 389 117 c 128,-1,12
 430 169 430 169 430 250 c 128,-1,13
 430 331 430 331 389 383 c 128,-1,14
 348 435 348 435 275 435 c 128,-1,15
 202 435 202 435 161 383 c 128,-1,8
 120 331 120 331 120 250 c 128,-1,9
275 550 m 128,-1,17
 182 550 182 550 102 664 c 1,18,-1
 146 694 l 1,19,20
 203 625 203 625 252 615 c 0,21,22
 262 613 262 613 275 613 c 128,-1,23
 288 613 288 613 298 615 c 128,-1,24
 308 617 308 617 324 624 c 0,25,26
 358 638 358 638 404 694 c 1,27,-1
 448 664 l 1,28,16
 368 550 368 550 275 550 c 128,-1,17
EndSplineSet
EndChar

StartChar: OE
Encoding: 338 338 225
Width: 1066
GlyphClass: 2
Flags: W
LayerCount: 2
Fore
SplineSet
675 311 m 1,0,-1
 675 75 l 1,1,-1
 964 75 l 1,2,-1
 964 190 l 1,3,-1
 1034 190 l 1,4,-1
 1034 0 l 1,5,-1
 590 0 l 1,6,-1
 590 92 l 1,7,8
 502 -10 502 -10 354.5 -10 c 128,-1,9
 207 -10 207 -10 121 91.5 c 128,-1,10
 35 193 35 193 35 352 c 0,11,12
 35 425 35 425 54 479 c 128,-1,13
 73 533 73 533 104 561 c 0,14,15
 164 615 164 615 237.5 615 c 128,-1,16
 311 615 311 615 367 563.5 c 128,-1,17
 423 512 423 512 423 430 c 0,18,19
 423 370 423 370 391 328 c 128,-1,20
 359 286 359 286 292 286 c 128,-1,21
 225 286 225 286 195 330.5 c 128,-1,22
 165 375 165 375 165 440 c 1,23,-1
 245 440 l 1,24,25
 245 361 245 361 292 361 c 0,26,27
 317 361 317 361 330 380.5 c 128,-1,28
 343 400 343 400 343 430 c 0,29,30
 343 478 343 478 311 509 c 128,-1,31
 279 540 279 540 235 540 c 128,-1,32
 191 540 191 540 158 497.5 c 128,-1,33
 125 455 125 455 125 340.5 c 128,-1,34
 125 226 125 226 188 145.5 c 128,-1,35
 251 65 251 65 355 65 c 128,-1,36
 459 65 459 65 522.5 145.5 c 128,-1,37
 586 226 586 226 586 350 c 128,-1,38
 586 474 586 474 522.5 554.5 c 128,-1,39
 459 635 459 635 355 635 c 1,40,-1
 355 710 l 1,41,42
 501 710 501 710 590 607 c 1,43,-1
 590 700 l 1,44,-1
 1025 700 l 1,45,-1
 1025 510 l 1,46,-1
 955 510 l 1,47,-1
 955 625 l 1,48,-1
 675 625 l 1,49,-1
 675 386 l 1,50,-1
 813 386 l 1,51,-1
 813 446 l 1,52,-1
 883 446 l 1,53,-1
 883 251 l 1,54,-1
 813 251 l 1,55,-1
 813 311 l 1,56,-1
 675 311 l 1,0,-1
EndSplineSet
EndChar

StartChar: oe
Encoding: 339 339 226
Width: 898
GlyphClass: 2
Flags: W
LayerCount: 2
Fore
SplineSet
868 284 m 2,0,-1
 868 231 l 1,1,-1
 515 231 l 1,2,3
 520 158 520 158 558 111.5 c 128,-1,4
 596 65 596 65 660 65 c 0,5,6
 702 65 702 65 735.5 74 c 128,-1,7
 769 83 769 83 782 90.5 c 128,-1,8
 795 98 795 98 818 113 c 1,9,-1
 855 57 l 1,10,11
 779 -10 779 -10 656 -10 c 128,-1,12
 533 -10 533 -10 471 90 c 1,13,14
 407 -10 407 -10 275 -10 c 0,15,16
 161 -10 161 -10 98 63.5 c 128,-1,17
 35 137 35 137 35 250 c 128,-1,18
 35 363 35 363 98 436.5 c 128,-1,19
 161 510 161 510 275 510 c 0,20,21
 407 510 407 510 471 410 c 1,22,23
 533 510 533 510 660 510 c 0,24,25
 760 510 760 510 814 447 c 128,-1,26
 868 384 868 384 868 284 c 2,0,-1
120 250 m 128,-1,28
 120 169 120 169 161 117 c 128,-1,29
 202 65 202 65 274 65 c 128,-1,30
 346 65 346 65 387 115 c 128,-1,31
 428 165 428 165 430 242 c 1,32,-1
 430 250 l 2,33,34
 430 331 430 331 389 383 c 128,-1,35
 348 435 348 435 275 435 c 128,-1,36
 202 435 202 435 161 383 c 128,-1,27
 120 331 120 331 120 250 c 128,-1,28
660 435 m 128,-1,38
 604 435 604 435 567.5 398.5 c 128,-1,39
 531 362 531 362 519 302 c 1,40,-1
 783 302 l 1,41,42
 777 363 777 363 746.5 399 c 128,-1,37
 716 435 716 435 660 435 c 128,-1,38
EndSplineSet
EndChar

StartChar: Racute
Encoding: 340 340 227
Width: 842
GlyphClass: 2
Flags: W
LayerCount: 2
Fore
SplineSet
836 140 m 1,0,1
 836 63 836 63 797 26 c 128,-1,2
 758 -11 758 -11 702 -11 c 0,3,4
 609 -11 609 -11 554 54.5 c 128,-1,5
 499 120 499 120 453 281 c 1,6,7
 425 286 425 286 389 300 c 1,8,-1
 389 75 l 1,9,-1
 476 75 l 1,10,-1
 476 0 l 1,11,-1
 207 0 l 1,12,-1
 207 75 l 1,13,-1
 304 75 l 1,14,-1
 304 632 l 1,15,16
 182 623 182 623 131 589 c 128,-1,17
 80 555 80 555 80 496 c 0,18,19
 80 466 80 466 93 446.5 c 128,-1,20
 106 427 106 427 131 427 c 0,21,22
 178 427 178 427 178 506 c 1,23,24
 178 506 178 506 258 506 c 1,25,26
 258 441 258 441 228 396.5 c 128,-1,27
 198 352 198 352 131 352 c 128,-1,28
 64 352 64 352 32 394 c 128,-1,29
 0 436 0 436 0 496 c 0,30,31
 0 594 0 594 93 652 c 128,-1,32
 186 710 186 710 377 710 c 128,-1,33
 568 710 568 710 655 649 c 128,-1,34
 742 588 742 588 742 490.5 c 128,-1,35
 742 393 742 393 685 338 c 128,-1,36
 628 283 628 283 538 277 c 1,37,38
 571 162 571 162 608 113 c 128,-1,39
 645 64 645 64 692 64 c 0,40,41
 722 64 722 64 741.5 84.5 c 128,-1,42
 761 105 761 105 761 140 c 1,43,-1
 836 140 l 1,0,1
389 635 m 1,44,-1
 389 374 l 1,45,46
 436 352 436 352 518 352 c 0,47,48
 575 352 575 352 616 389.5 c 128,-1,49
 657 427 657 427 657 486 c 0,50,51
 657 558 657 558 595 596.5 c 128,-1,52
 533 635 533 635 389 635 c 1,44,-1
504 921 m 1,53,-1
 380 760 l 1,54,-1
 336 786 l 1,55,-1
 433 968 l 1,56,-1
 504 921 l 1,53,-1
EndSplineSet
EndChar

StartChar: racute
Encoding: 341 341 228
Width: 421
GlyphClass: 2
Flags: W
LayerCount: 2
Fore
SplineSet
182 65 m 1,0,-1
 269 65 l 1,1,-1
 269 0 l 1,2,-1
 20 0 l 1,3,-1
 20 65 l 1,4,-1
 97 65 l 1,5,-1
 97 435 l 1,6,-1
 20 435 l 1,7,-1
 20 500 l 1,8,-1
 163 500 l 1,9,-1
 175 447 l 1,10,11
 209 466 209 466 230 476.5 c 128,-1,12
 251 487 251 487 290.5 498.5 c 128,-1,13
 330 510 330 510 367 510 c 1,14,-1
 423 495 l 1,15,-1
 400 413 l 1,16,-1
 355 425 l 1,17,18
 271 425 271 425 182 383 c 1,19,-1
 182 65 l 1,0,-1
313 711 m 1,20,-1
 189 550 l 1,21,-1
 145 576 l 1,22,-1
 242 758 l 1,23,-1
 313 711 l 1,20,-1
EndSplineSet
EndChar

